G04 #@! TF.FileFunction,Paste,Bot*
%FSLAX46Y46*%
G04 Gerber Fmt 4.6, Leading zero omitted, Abs format (unit mm)*
G04 Created by KiCad (PCBNEW 4.0.7) date 12/12/18 15:38:43*
%MOMM*%
%LPD*%
G01*
G04 APERTURE LIST*
%ADD10C,0.100000*%
%ADD11R,0.800000X0.750000*%
%ADD12R,0.600000X2.000000*%
%ADD13R,0.750000X0.800000*%
%ADD14R,2.000000X5.300000*%
%ADD15R,1.200000X2.200000*%
%ADD16R,2.750000X3.050000*%
%ADD17R,0.400000X0.550000*%
%ADD18R,0.500000X0.900000*%
%ADD19R,0.900000X0.500000*%
%ADD20R,0.700000X1.300000*%
%ADD21R,0.600000X1.050000*%
%ADD22R,1.060000X0.650000*%
%ADD23R,2.000000X0.600000*%
%ADD24R,0.800000X0.300000*%
%ADD25R,1.600000X1.000000*%
%ADD26R,0.450000X1.750000*%
%ADD27R,5.300000X2.000000*%
%ADD28R,1.100000X0.250000*%
%ADD29R,0.600000X1.300000*%
%ADD30R,2.200000X1.200000*%
%ADD31R,3.050000X2.750000*%
%ADD32R,1.700000X0.900000*%
G04 APERTURE END LIST*
D10*
D11*
X81014020Y-69342020D03*
X79514020Y-69342020D03*
D12*
X51435020Y-77941020D03*
X52705020Y-77941020D03*
X55245020Y-77941020D03*
X55245020Y-82841020D03*
X53975020Y-82841020D03*
X52705020Y-82841020D03*
X51435020Y-82841020D03*
X53975020Y-77941020D03*
D13*
X51308020Y-86729020D03*
X51308020Y-85229020D03*
X49911020Y-87364020D03*
X49911020Y-85864020D03*
D11*
X55269020Y-85217020D03*
X56769020Y-85217020D03*
X17820968Y-10906658D03*
X16320968Y-10906658D03*
D13*
X37351830Y-25598682D03*
X37351830Y-27098682D03*
D11*
X37593830Y-21014682D03*
X36093830Y-21014682D03*
X44970020Y-32766020D03*
X46470020Y-32766020D03*
D13*
X56769020Y-48363020D03*
X56769020Y-46863020D03*
X35921810Y-25565662D03*
X35921810Y-27065662D03*
X22887770Y-54030938D03*
X22887770Y-55530938D03*
X22887770Y-46132938D03*
X22887770Y-44632938D03*
D11*
X16295770Y-40556938D03*
X17795770Y-40556938D03*
X65012020Y-18796020D03*
X63512020Y-18796020D03*
D13*
X12286000Y-4400000D03*
X12286000Y-2900000D03*
D11*
X114914000Y-31543248D03*
X116414000Y-31543248D03*
D13*
X88486000Y-20172000D03*
X88486000Y-21672000D03*
X21336020Y-70219020D03*
X21336020Y-68719020D03*
D11*
X93611020Y-63627020D03*
X95111020Y-63627020D03*
X96686097Y-58320007D03*
X95186097Y-58320007D03*
D13*
X81661020Y-30988020D03*
X81661020Y-32488020D03*
X55753020Y-50685020D03*
X55753020Y-52185020D03*
D11*
X42016000Y-74770000D03*
X43516000Y-74770000D03*
X59415000Y-74389000D03*
X60915000Y-74389000D03*
X59920020Y-75946020D03*
X58420020Y-75946020D03*
D14*
X42668020Y-34544020D03*
X36068020Y-34544020D03*
X4320020Y-16510020D03*
X10920020Y-16510020D03*
D15*
X19056020Y-76318020D03*
X23616020Y-76318020D03*
D16*
X22861020Y-84293020D03*
X19811020Y-80943020D03*
X19811020Y-84293020D03*
X22861020Y-80943020D03*
D15*
X11370000Y-76318020D03*
X15930000Y-76318020D03*
D16*
X15175000Y-84293020D03*
X12125000Y-80943020D03*
X12125000Y-84293020D03*
X15175000Y-80943020D03*
D15*
X3816020Y-76318020D03*
X8376020Y-76318020D03*
D16*
X7621020Y-84293020D03*
X4571020Y-80943020D03*
X4571020Y-84293020D03*
X7621020Y-80943020D03*
D17*
X29726020Y-82259020D03*
X30226020Y-82259020D03*
X30726020Y-82259020D03*
X30726020Y-80809020D03*
X30226020Y-80809020D03*
X29726020Y-80809020D03*
D18*
X42778000Y-86454000D03*
X44278000Y-86454000D03*
D19*
X49530020Y-83070020D03*
X49530020Y-84570020D03*
D18*
X54090020Y-86741020D03*
X52590020Y-86741020D03*
D19*
X56896020Y-82792020D03*
X56896020Y-81292020D03*
D18*
X52590020Y-85217020D03*
X54090020Y-85217020D03*
X13526968Y-12430658D03*
X15026968Y-12430658D03*
X16328568Y-12489058D03*
X17828568Y-12489058D03*
X36093830Y-19236682D03*
X37593830Y-19236682D03*
X41935830Y-19236682D03*
X43435830Y-19236682D03*
X39141830Y-19236682D03*
X40641830Y-19236682D03*
X44970020Y-29718020D03*
X46470020Y-29718020D03*
X46470020Y-31242020D03*
X44970020Y-31242020D03*
X60059020Y-48133020D03*
X58559020Y-48133020D03*
D19*
X34290020Y-27444020D03*
X34290020Y-28944020D03*
X47244020Y-51320020D03*
X47244020Y-52820020D03*
X45466020Y-25896020D03*
X45466020Y-24396020D03*
D18*
X35826020Y-29718020D03*
X37326020Y-29718020D03*
X23610020Y-73914020D03*
X22110020Y-73914020D03*
X13196020Y-73914020D03*
X11696020Y-73914020D03*
X5576020Y-74041020D03*
X4076020Y-74041020D03*
D19*
X27940020Y-80784020D03*
X27940020Y-82284020D03*
D18*
X28714020Y-77724020D03*
X30214020Y-77724020D03*
D19*
X26383000Y-80751000D03*
X26383000Y-82251000D03*
X18315770Y-54030938D03*
X18315770Y-55530938D03*
X21363770Y-55530938D03*
X21363770Y-54030938D03*
X19839770Y-54030938D03*
X19839770Y-55530938D03*
D18*
X18557770Y-52494938D03*
X17057770Y-52494938D03*
X21351770Y-52494938D03*
X19851770Y-52494938D03*
D20*
X19651770Y-57320938D03*
X21551770Y-57320938D03*
D19*
X15494020Y-46240020D03*
X15494020Y-47740020D03*
D18*
X19089770Y-40556938D03*
X20589770Y-40556938D03*
X17795770Y-42080938D03*
X16295770Y-42080938D03*
D19*
X15494020Y-44946020D03*
X15494020Y-43446020D03*
D18*
X20589770Y-42080938D03*
X19089770Y-42080938D03*
X71870020Y-23368020D03*
X70370020Y-23368020D03*
D19*
X60706000Y-20586020D03*
X60706000Y-22086020D03*
X13810000Y-2900000D03*
X13810000Y-4400000D03*
D18*
X100037618Y-17476082D03*
X101537618Y-17476082D03*
X100037618Y-15698082D03*
X101537618Y-15698082D03*
X102565618Y-17476082D03*
X104065618Y-17476082D03*
X102577618Y-15698082D03*
X104077618Y-15698082D03*
D19*
X95961618Y-20512082D03*
X95961618Y-19012082D03*
X86962000Y-20172000D03*
X86962000Y-21672000D03*
D18*
X116414000Y-33067248D03*
X114914000Y-33067248D03*
D19*
X19812020Y-68719020D03*
X19812020Y-70219020D03*
D18*
X90278513Y-68105849D03*
X91778513Y-68105849D03*
X90278513Y-69883849D03*
X91778513Y-69883849D03*
X91778513Y-66327849D03*
X90278513Y-66327849D03*
X91778513Y-71661849D03*
X90278513Y-71661849D03*
D19*
X52959020Y-50685020D03*
X52959020Y-52185020D03*
X54356020Y-52185020D03*
X54356020Y-50685020D03*
D18*
X46113020Y-76200020D03*
X47613020Y-76200020D03*
X46113020Y-77851020D03*
X47613020Y-77851020D03*
X58142020Y-74422020D03*
X56642020Y-74422020D03*
X43516000Y-73246000D03*
X42016000Y-73246000D03*
D19*
X53307000Y-69805000D03*
X53307000Y-68305000D03*
X53307000Y-72599000D03*
X53307000Y-71099000D03*
D21*
X45240000Y-81548000D03*
X43340000Y-81548000D03*
X43340000Y-84248000D03*
X44290000Y-84248000D03*
X45240000Y-84248000D03*
D12*
X39510830Y-22374682D03*
X40780830Y-22374682D03*
X43320830Y-22374682D03*
X43320830Y-27274682D03*
X42050830Y-27274682D03*
X40780830Y-27274682D03*
X39510830Y-27274682D03*
X42050830Y-22374682D03*
X21178370Y-49552538D03*
X19908370Y-49552538D03*
X17368370Y-49552538D03*
X17368370Y-44652538D03*
X18638370Y-44652538D03*
X19908370Y-44652538D03*
X21178370Y-44652538D03*
X18638370Y-49552538D03*
D22*
X45382000Y-74290000D03*
X45382000Y-73340000D03*
X45382000Y-72390000D03*
X47582000Y-72390000D03*
X47582000Y-74290000D03*
X47582000Y-73340000D03*
D23*
X55937000Y-72230000D03*
X55937000Y-70960000D03*
X55937000Y-68420000D03*
X60837000Y-68420000D03*
X60837000Y-69690000D03*
X60837000Y-70960000D03*
X60837000Y-72230000D03*
X55937000Y-69690000D03*
X68337600Y-20802600D03*
X68337600Y-22072600D03*
X68337600Y-24612600D03*
X63437600Y-24612600D03*
X63437600Y-23342600D03*
X63437600Y-22072600D03*
X63437600Y-20802600D03*
X68337600Y-23342600D03*
D24*
X98240497Y-65182407D03*
X98240497Y-65682407D03*
X98240497Y-66182407D03*
X98240497Y-66682407D03*
X95140497Y-66682407D03*
X95140497Y-66182407D03*
X95140497Y-65682407D03*
X95140497Y-65182407D03*
X98248097Y-59856007D03*
X98248097Y-60356007D03*
X98248097Y-60856007D03*
X98248097Y-61356007D03*
X95148097Y-61356007D03*
X95148097Y-60856007D03*
X95148097Y-60356007D03*
X95148097Y-59856007D03*
D19*
X45720020Y-50558020D03*
X45720020Y-52058020D03*
D18*
X30214020Y-79248020D03*
X28714020Y-79248020D03*
D25*
X8730000Y-66110000D03*
X8730000Y-63110000D03*
D19*
X17112000Y-3662000D03*
X17112000Y-5162000D03*
X17112000Y-6456000D03*
X17112000Y-7956000D03*
D13*
X15588000Y-7956000D03*
X15588000Y-6456000D03*
D26*
X83674020Y-25356020D03*
X84324020Y-25356020D03*
X84974020Y-25356020D03*
X85624020Y-25356020D03*
X86274020Y-25356020D03*
X86924020Y-25356020D03*
X87574020Y-25356020D03*
X88224020Y-25356020D03*
X88874020Y-25356020D03*
X89524020Y-25356020D03*
X90174020Y-25356020D03*
X90824020Y-25356020D03*
X90824020Y-32556020D03*
X90174020Y-32556020D03*
X89524020Y-32556020D03*
X88874020Y-32556020D03*
X88224020Y-32556020D03*
X87574020Y-32556020D03*
X86924020Y-32556020D03*
X86274020Y-32556020D03*
X85624020Y-32556020D03*
X84974020Y-32556020D03*
X84324020Y-32556020D03*
X83674020Y-32556020D03*
D19*
X81448176Y-23875744D03*
X81448176Y-25375744D03*
X79924176Y-23875744D03*
X79924176Y-25375744D03*
D11*
X113272020Y-9673024D03*
X111772020Y-9673024D03*
D27*
X57658020Y-56900020D03*
X57658020Y-63500020D03*
D20*
X19618750Y-59192918D03*
X21518750Y-59192918D03*
D18*
X111772020Y-8149024D03*
X113272020Y-8149024D03*
X101307618Y-14174082D03*
X102807618Y-14174082D03*
D11*
X82816020Y-22987020D03*
X84316020Y-22987020D03*
X30404520Y-1460520D03*
X28904520Y-1460520D03*
X48248020Y-34163020D03*
X46748020Y-34163020D03*
X57582520Y-39179520D03*
X56082520Y-39179520D03*
X81014020Y-64262020D03*
X79514020Y-64262020D03*
X81014020Y-97345520D03*
X79514020Y-97345520D03*
X81014020Y-89916020D03*
X79514020Y-89916020D03*
X81014020Y-81915020D03*
X79514020Y-81915020D03*
X81014020Y-75946020D03*
X79514020Y-75946020D03*
X40652020Y-96012020D03*
X42152020Y-96012020D03*
D18*
X42152020Y-97536020D03*
X40652020Y-97536020D03*
D11*
X60059020Y-46863020D03*
X58559020Y-46863020D03*
D13*
X43434020Y-47613020D03*
X43434020Y-46113020D03*
D19*
X54864020Y-43573020D03*
X54864020Y-45073020D03*
X52959020Y-43573020D03*
X52959020Y-45073020D03*
X52959020Y-49518020D03*
X52959020Y-48018020D03*
X54864020Y-47383020D03*
X54864020Y-48883020D03*
D18*
X47129020Y-43688020D03*
X48629020Y-43688020D03*
X49669020Y-43688020D03*
X51169020Y-43688020D03*
D28*
X50664020Y-45863020D03*
X50664020Y-46363020D03*
X50664020Y-46863020D03*
X50664020Y-47363020D03*
X50664020Y-47863020D03*
X46364020Y-47863020D03*
X46364020Y-47363020D03*
X46364020Y-46863020D03*
X46364020Y-46363020D03*
X46364020Y-45863020D03*
D13*
X48768020Y-52820020D03*
X48768020Y-51320020D03*
D29*
X42799020Y-50893020D03*
X41849020Y-52993020D03*
X43749020Y-52993020D03*
D18*
X47510020Y-49784020D03*
X49010020Y-49784020D03*
D30*
X86682020Y-46107020D03*
X86682020Y-50667020D03*
D31*
X78707020Y-49912020D03*
X82057020Y-46862020D03*
X78707020Y-46862020D03*
X82057020Y-49912020D03*
D30*
X86452020Y-38232020D03*
X86452020Y-42792020D03*
D31*
X78477020Y-42037020D03*
X81827020Y-38987020D03*
X78477020Y-38987020D03*
X81827020Y-42037020D03*
D32*
X81534020Y-55605020D03*
X81534020Y-52705020D03*
X84074020Y-55605020D03*
X84074020Y-52705020D03*
X86614020Y-55605020D03*
X86614020Y-52705020D03*
M02*
