M48
;DRILL file {KiCad 4.0.7} date 11/20/18 00:48:37
;FORMAT={-:-/ absolute / inch / decimal}
FMAT,2
INCH,TZ
T1C0.012
T2C0.026
T3C0.028
T4C0.031
T5C0.039
T6C0.039
T7C0.051
T8C0.059
T9C0.071
T10C0.157
%
G90
G05
M72
T1
X0.025Y-0.035
X0.025Y-0.14
X0.025Y-0.25
X0.025Y-0.38
X0.025Y-0.45
X0.025Y-0.525
X0.025Y-0.62
X0.025Y-0.695
X0.025Y-0.75
X0.025Y-0.805
X0.025Y-0.865
X0.025Y-0.92
X0.025Y-0.975
X0.025Y-1.025
X0.025Y-1.08
X0.025Y-1.135
X0.025Y-1.185
X0.025Y-1.275
X0.025Y-1.35
X0.025Y-1.425
X0.025Y-1.5
X0.025Y-1.585
X0.025Y-1.665
X0.04Y-1.775
X0.04Y-1.925
X0.04Y-2.05
X0.04Y-2.175
X0.04Y-2.3
X0.04Y-2.425
X0.04Y-2.55
X0.04Y-2.675
X0.04Y-2.775
X0.04Y-2.875
X0.04Y-2.975
X0.04Y-3.075
X0.04Y-3.175
X0.04Y-3.275
X0.04Y-3.375
X0.12Y-1.245
X0.15Y-0.035
X0.155Y-1.28
X0.1675Y-3.2525
X0.1825Y-2.9475
X0.19Y-1.31
X0.215Y-1.35
X0.215Y-1.39
X0.215Y-1.43
X0.215Y-2.97
X0.215Y-3.005
X0.215Y-3.04
X0.23Y-0.75
X0.24Y-3.1725
X0.24Y-3.2527
X0.24Y-3.3275
X0.265Y-0.035
X0.27Y-2.97
X0.27Y-3.005
X0.27Y-3.04
X0.275Y-0.75
X0.29Y-1.325
X0.29Y-2.445
X0.29Y-2.48
X0.29Y-2.515
X0.3125Y-3.2525
X0.325Y-0.55
X0.325Y-0.6
X0.325Y-0.65
X0.325Y-0.7
X0.325Y-0.75
X0.33Y-2.445
X0.33Y-2.52
X0.36Y-2.52
X0.37Y-2.445
X0.375Y-1.245
X0.375Y-1.325
X0.375Y-1.4
X0.38Y-0.035
X0.38Y-1.47
X0.38Y-1.53
X0.38Y-1.57
X0.38Y-1.61
X0.38Y-2.97
X0.38Y-3.005
X0.38Y-3.04
X0.42Y-1.47
X0.42Y-1.53
X0.42Y-1.57
X0.42Y-1.61
X0.4225Y-2.9375
X0.425Y-0.495
X0.45Y-0.2
X0.45Y-1.325
X0.46Y-1.53
X0.46Y-1.57
X0.46Y-1.61
X0.46Y-3.2525
X0.465Y-1.47
X0.5Y-0.035
X0.5Y-0.3
X0.51Y-0.62
X0.51Y-0.68
X0.51Y-0.77
X0.51Y-1.47
X0.515Y-0.93
X0.515Y-1.185
X0.5374Y-3.2527
X0.5375Y-3.175
X0.5375Y-3.335
X0.5437Y-0.2037
X0.555Y-1.47
X0.56Y-0.77
X0.565Y-0.85
X0.565Y-0.93
X0.565Y-1.125
X0.57Y-0.62
X0.57Y-0.67
X0.57Y-0.72
X0.595Y-1.185
X0.6Y-1.47
X0.6075Y-3.2527
X0.61Y-0.035
X0.61Y-0.77
X0.61Y-1.66
X0.62Y-0.62
X0.62Y-0.67
X0.62Y-0.72
X0.625Y-1.275
X0.635Y-1.19
X0.6367Y-1.9204
X0.645Y-0.93
X0.645Y-1.47
X0.65Y-1.835
X0.655Y-1.16
X0.665Y-1.28
X0.665Y-1.355
X0.67Y-2.115
X0.69Y-1.205
X0.69Y-1.24
X0.69Y-1.47
X0.69Y-1.83
X0.7Y-0.37
X0.715Y-0.035
X0.725Y-0.895
X0.725Y-0.93
X0.725Y-1.05
X0.725Y-1.17
X0.73Y-0.66
X0.73Y-0.69
X0.73Y-0.76
X0.73Y-0.795
X0.73Y-1.83
X0.73Y-1.875
X0.75Y-1.205
X0.755Y-0.59
X0.76Y-0.875
X0.765Y-3.2525
X0.78Y-0.555
X0.795Y-1.16
X0.81Y-0.035
X0.835Y-1.16
X0.84Y-3.1675
X0.84Y-3.2527
X0.84Y-3.3325
X0.845Y-1.8476
X0.85Y-1.63
X0.87Y-2.37
X0.875Y-1.16
X0.88Y-2.265
X0.89Y-0.36
X0.895Y-2.295
X0.9014Y-2.2243
X0.905Y-2.08
X0.91Y-1.98
X0.91Y-2.04
X0.915Y-2.27
X0.915Y-3.2525
X0.92Y-0.035
X0.92Y-2.315
X0.93Y-2.365
X0.95Y-0.5
X0.95Y-1.495
X0.95Y-2.475
X0.95Y-2.535
X0.95Y-2.585
X0.95Y-2.64
X0.95Y-2.69
X0.95Y-2.74
X0.95Y-2.78
X0.955Y-2.82
X0.96Y-2.035
X0.9655Y-0.9705
X0.9687Y-1.4247
X0.97Y-0.865
X0.995Y-1.495
X1.Y-2.07
X1.015Y-0.035
X1.015Y-0.36
X1.015Y-2.125
X1.015Y-2.19
X1.025Y-1.165
X1.0285Y-0.2415
X1.035Y-1.495
X1.05Y-0.785
X1.05Y-2.235
X1.0545Y-3.3345
X1.075Y-1.495
X1.095Y-3.06
X1.1Y-0.5
X1.1Y-2.235
X1.1Y-3.12
X1.1025Y-0.0575
X1.105Y-0.77
X1.115Y-2.075
X1.12Y-1.495
X1.125Y-1.1
X1.14Y-2.99
X1.16Y-3.12
X1.165Y-1.495
X1.17Y-0.025
X1.175Y-0.825
X1.185Y-2.99
X1.19Y-2.
X1.19Y-2.15
X1.19Y-2.235
X1.1923Y-2.075
X1.2Y-1.36
X1.205Y-1.495
X1.225Y-1.
X1.225Y-3.005
X1.2375Y-0.055
X1.245Y-3.24
X1.25Y-0.5
X1.25Y-3.7
X1.25Y-3.745
X1.25Y-3.79
X1.25Y-3.85
X1.255Y-1.1763
X1.255Y-3.035
X1.26Y-2.235
X1.27Y-1.275
X1.27Y-2.075
X1.285Y-3.065
X1.3Y-0.035
X1.3Y-0.325
X1.305Y-3.7
X1.31Y-3.85
X1.32Y-1.675
X1.32Y-2.235
X1.325Y-0.925
X1.325Y-1.52
X1.34Y-3.07
X1.36Y-1.285
X1.36Y-1.355
X1.36Y-3.7
X1.365Y-0.625
X1.365Y-1.435
X1.365Y-1.52
X1.365Y-1.94
X1.37Y-1.48
X1.375Y-1.015
X1.375Y-3.85
X1.38Y-2.235
X1.385Y-1.675
X1.385Y-2.9287
X1.39Y-0.65
X1.39Y-1.6
X1.39Y-1.875
X1.39Y-3.07
X1.4Y-0.035
X1.4Y-0.5
X1.405Y-1.52
X1.41Y-3.7
X1.42Y-0.69
X1.425Y-3.755
X1.425Y-3.8
X1.425Y-3.85
X1.445Y-1.485
X1.445Y-1.52
X1.445Y-3.07
X1.45Y-2.235
X1.455Y-2.03
X1.465Y-2.85
X1.465Y-3.
X1.466Y-2.9287
X1.475Y-3.76
X1.48Y-1.665
X1.48Y-1.92
X1.49Y-2.1
X1.495Y-2.03
X1.5Y-0.035
X1.505Y-2.645
X1.505Y-3.07
X1.51Y-2.235
X1.515Y-1.96
X1.515Y-1.995
X1.52Y-0.825
X1.525Y-0.675
X1.5337Y-3.205
X1.5337Y-3.2537
X1.5337Y-3.305
X1.535Y-3.71
X1.54Y-1.415
X1.54Y-1.445
X1.54Y-1.505
X1.54Y-1.54
X1.54Y-1.625
X1.545Y-2.9287
X1.55Y-0.325
X1.55Y-0.5
X1.55Y-1.68
X1.55Y-1.8
X1.55Y-1.92
X1.55Y-1.96
X1.55Y-2.645
X1.555Y-3.07
X1.555Y-3.78
X1.56Y-2.225
X1.56Y-3.84
X1.57Y-1.645
X1.58Y-3.1
X1.585Y-1.96
X1.585Y-2.67
X1.6Y-0.035
X1.6Y-3.07
X1.61Y-2.64
X1.6175Y-2.7025
X1.62Y-1.905
X1.62Y-1.94
X1.6256Y-0.8194
X1.65Y-1.175
X1.65Y-3.07
X1.6542Y-2.9792
X1.6634Y-0.5409
X1.665Y-2.615
X1.6775Y-2.7025
X1.68Y-0.73
X1.68Y-2.495
X1.685Y-2.64
X1.69Y-1.01
X1.69Y-3.145
X1.7Y-0.035
X1.705Y-2.615
X1.705Y-3.07
X1.71Y-3.46
X1.72Y-2.4
X1.7225Y-0.54
X1.725Y-2.495
X1.73Y-2.64
X1.735Y-0.65
X1.735Y-2.285
X1.7362Y-1.29
X1.7397Y-1.0465
X1.75Y-0.5
X1.75Y-2.45
X1.755Y-2.4
X1.755Y-2.615
X1.755Y-2.7025
X1.765Y-1.89
X1.765Y-3.07
X1.77Y-2.495
X1.77Y-2.97
X1.775Y-3.375
X1.78Y-2.645
X1.7805Y-1.7205
X1.7806Y-3.015
X1.7867Y-2.8167
X1.79Y-0.99
X1.795Y-1.13
X1.795Y-2.285
X1.795Y-2.4
X1.8Y-0.035
X1.8Y-2.615
X1.8Y-3.255
X1.8025Y-1.3375
X1.805Y-1.93
X1.8125Y-2.685
X1.815Y-0.89
X1.815Y-3.33
X1.82Y-1.105
X1.82Y-2.495
X1.825Y-0.325
X1.825Y-3.15
X1.835Y-2.4
X1.84Y-2.615
X1.84Y-3.185
X1.84Y-3.225
X1.855Y-0.76
X1.855Y-2.285
X1.855Y-3.415
X1.86Y-3.295
X1.865Y-0.635
X1.87Y-3.205
X1.87Y-3.255
X1.895Y-2.755
X1.9Y-0.035
X1.9Y-0.77
X1.9Y-1.07
X1.9Y-1.23
X1.9Y-2.605
X1.905Y-2.405
X1.9098Y-2.1694
X1.91Y-3.06
X1.9125Y-1.305
X1.93Y-2.38
X1.945Y-0.155
X1.9513Y-1.1626
X1.955Y-2.405
X1.965Y-1.105
X1.965Y-2.535
X1.975Y-2.025
X1.9761Y-1.5915
X1.98Y-0.935
X1.98Y-1.97
X1.98Y-2.38
X1.98Y-3.475
X1.995Y-1.915
X2.Y-0.035
X2.Y-0.475
X2.Y-1.085
X2.0045Y-2.9705
X2.005Y-1.245
X2.005Y-2.405
X2.005Y-2.61
X2.015Y-1.675
X2.02Y-3.455
X2.025Y-0.625
X2.025Y-0.75
X2.03Y-2.38
X2.04Y-1.97
X2.045Y-2.61
X2.055Y-2.405
X2.055Y-2.8
X2.075Y-0.845
X2.08Y-0.935
X2.08Y-3.535
X2.085Y-2.61
X2.1Y-0.035
X2.1Y-2.655
X2.1164Y-1.4682
X2.12Y-1.29
X2.12Y-1.34
X2.12Y-1.81
X2.12Y-3.63
X2.125Y-0.725
X2.13Y-2.61
X2.14Y-1.96
X2.1455Y-1.0705
X2.1455Y-1.1295
X2.155Y-0.155
X2.165Y-0.735
X2.165Y-2.58
X2.17Y-2.43
X2.175Y-0.62
X2.175Y-1.245
X2.175Y-2.655
X2.175Y-3.
X2.175Y-3.39
X2.18Y-1.205
X2.19Y-1.485
X2.2Y-0.035
X2.2Y-3.85
X2.2155Y-1.3793
X2.2225Y-1.595
X2.225Y-1.125
X2.225Y-2.655
X2.23Y-1.5
X2.2384Y-3.2949
X2.24Y-3.025
X2.24Y-3.165
X2.2494Y-1.3753
X2.26Y-0.655
X2.265Y-0.515
X2.27Y-1.505
X2.275Y-1.05
X2.275Y-1.9
X2.275Y-3.39
X2.285Y-3.565
X2.2875Y-1.7
X2.2875Y-2.025
X2.2887Y-1.3137
X2.29Y-0.8114
X2.3Y-0.035
X2.3Y-0.95
X2.3Y-2.71
X2.31Y-1.515
X2.315Y-2.675
X2.315Y-3.39
X2.32Y-1.36
X2.325Y-0.745
X2.335Y-1.03
X2.335Y-1.245
X2.34Y-2.89
X2.3466Y-1.7009
X2.35Y-0.155
X2.35Y-0.8533
X2.375Y-2.66
X2.395Y-2.01
X2.4Y-0.035
X2.4Y-1.485
X2.4Y-1.665
X2.4Y-1.71
X2.4Y-1.76
X2.4Y-2.065
X2.4Y-2.465
X2.4Y-2.515
X2.4Y-2.57
X2.4042Y-0.5008
X2.425Y-0.925
X2.425Y-2.66
X2.435Y-0.819
X2.44Y-1.64
X2.445Y-2.465
X2.445Y-2.515
X2.445Y-2.57
X2.45Y-1.79
X2.455Y-3.47
X2.47Y-0.495
X2.47Y-1.15
X2.47Y-1.36
X2.475Y-1.49
X2.475Y-3.025
X2.48Y-2.235
X2.49Y-2.01
X2.49Y-2.045
X2.49Y-2.095
X2.49Y-3.3
X2.4924Y-3.2626
X2.4955Y-3.56
X2.4957Y-0.5807
X2.5Y-0.035
X2.5Y-1.64
X2.5Y-3.85
X2.515Y-0.34
X2.515Y-3.65
X2.52Y-1.935
X2.525Y-0.695
X2.525Y-2.125
X2.525Y-2.425
X2.53Y-0.78
X2.5338Y-1.7892
X2.535Y-1.24
X2.535Y-1.71
X2.535Y-1.865
X2.5475Y-0.34
X2.55Y-0.25
X2.55Y-1.64
X2.55Y-2.225
X2.55Y-3.745
X2.555Y-0.5874
X2.555Y-3.45
X2.555Y-3.485
X2.5626Y-0.954
X2.57Y-1.005
X2.57Y-2.655
X2.58Y-3.6
X2.58Y-3.655
X2.585Y-0.565
X2.585Y-0.705
X2.5894Y-0.9773
X2.6Y-0.035
X2.6Y-1.235
X2.6Y-1.45
X2.6Y-2.975
X2.61Y-1.79
X2.615Y-1.38
X2.625Y-0.57
X2.625Y-0.98
X2.625Y-1.935
X2.6355Y-3.1005
X2.64Y-0.525
X2.64Y-3.37
X2.64Y-3.425
X2.6544Y-2.1356
X2.6577Y-2.1715
X2.6577Y-2.2271
X2.66Y-0.635
X2.665Y-1.13
X2.675Y-1.28
X2.675Y-1.525
X2.675Y-1.75
X2.675Y-1.815
X2.675Y-1.88
X2.675Y-3.37
X2.68Y-3.42
X2.6805Y-0.6845
X2.7Y-0.035
X2.7Y-2.525
X2.7044Y-1.2524
X2.705Y-2.735
X2.705Y-2.855
X2.705Y-3.675
X2.71Y-0.335
X2.71Y-0.655
X2.715Y-0.125
X2.715Y-0.195
X2.7234Y-1.4034
X2.725Y-1.5
X2.7265Y-1.2955
X2.735Y-3.18
X2.7498Y-0.5446
X2.7498Y-0.5789
X2.7506Y-0.6139
X2.755Y-3.675
X2.7658Y-0.4892
X2.78Y-3.18
X2.7893Y-1.0084
X2.795Y-1.2
X2.8Y-0.035
X2.8Y-3.85
X2.8003Y-1.4449
X2.8003Y-2.3
X2.8003Y-2.3357
X2.805Y-3.675
X2.81Y-2.76
X2.815Y-2.62
X2.825Y-2.4
X2.8274Y-1.7224
X2.83Y-1.81
X2.83Y-3.18
X2.85Y-0.845
X2.85Y-2.1
X2.85Y-2.25
X2.855Y-3.675
X2.86Y-0.38
X2.865Y-0.895
X2.87Y-0.48
X2.875Y-0.58
X2.88Y-3.18
X2.881Y-0.529
X2.885Y-0.98
X2.9Y-0.035
X2.9Y-3.675
X2.91Y-3.1
X2.93Y-2.46
X2.93Y-2.51
X2.93Y-2.63
X2.93Y-3.18
X2.95Y-1.33
X2.95Y-3.675
X2.9534Y-0.6863
X2.9561Y-0.88
X2.9644Y-1.0194
X2.97Y-3.18
X2.975Y-0.925
X2.975Y-1.18
X2.997Y-2.363
X3.Y-0.035
X3.Y-3.675
X3.01Y-3.18
X3.025Y-0.775
X3.025Y-1.625
X3.025Y-1.95
X3.03Y-0.48
X3.03Y-1.025
X3.045Y-2.515
X3.045Y-3.675
X3.05Y-1.18
X3.05Y-1.8
X3.05Y-3.85
X3.055Y-3.18
X3.095Y-0.68
X3.1Y-0.035
X3.1Y-1.33
X3.1Y-2.325
X3.1Y-3.675
X3.13Y-1.37
X3.13Y-2.57
X3.13Y-2.78
X3.13Y-3.04
X3.13Y-3.79
X3.1305Y-3.1805
X3.145Y-0.82
X3.145Y-3.5793
X3.15Y-0.905
X3.15Y-3.62
X3.15Y-3.675
X3.16Y-0.665
X3.16Y-1.185
X3.16Y-3.265
X3.16Y-3.31
X3.16Y-3.35
X3.16Y-3.395
X3.16Y-3.435
X3.16Y-3.48
X3.17Y-0.28
X3.17Y-0.38
X3.17Y-1.485
X3.175Y-1.675
X3.175Y-2.425
X3.19Y-0.515
X3.2Y-0.035
X3.2Y-1.5
X3.215Y-1.18
X3.225Y-0.905
X3.225Y-1.435
X3.23Y-2.53
X3.23Y-2.73
X3.23Y-2.99
X3.2325Y-3.8325
X3.235Y-3.54
X3.24Y-3.225
X3.245Y-0.82
X3.245Y-1.32
X3.2636Y-0.6126
X3.275Y-1.495
X3.275Y-2.15
X3.2762Y-1.1001
X3.295Y-1.345
X3.3Y-0.035
X3.3Y-3.85
X3.32Y-1.0987
X3.3202Y-1.1834
X3.325Y-1.625
X3.325Y-1.875
X3.325Y-2.225
X3.345Y-0.865
X3.3455Y-1.2174
X3.35Y-0.235
X3.35Y-0.335
X3.3532Y-0.6668
X3.355Y-0.555
X3.38Y-1.21
X3.385Y-2.58
X3.4Y-0.6
X3.41Y-1.35
X3.425Y-0.035
X3.425Y-1.085
X3.44Y-0.75
X3.45Y-0.55
X3.45Y-2.175
X3.455Y-1.185
X3.4556Y-0.9371
X3.475Y-1.41
X3.475Y-3.55
X3.48Y-2.315
X3.485Y-0.745
X3.4975Y-0.9374
X3.5Y-1.875
X3.51Y-0.56
X3.51Y-1.35
X3.51Y-2.62
X3.515Y-2.68
X3.52Y-2.82
X3.5246Y-1.0546
X3.525Y-2.1
X3.525Y-3.85
X3.5318Y-0.9406
X3.55Y-0.035
X3.55Y-0.595
X3.55Y-1.4
X3.55Y-1.625
X3.55Y-2.025
X3.555Y-0.73
X3.555Y-0.785
X3.575Y-1.055
X3.6Y-3.4
X3.62Y-1.28
X3.625Y-1.35
X3.635Y-2.965
X3.6428Y-1.0986
X3.65Y-3.7
X3.66Y-2.6056
X3.675Y-0.035
X3.675Y-0.55
X3.675Y-0.865
X3.685Y-2.415
X3.685Y-2.545
X3.6852Y-1.0978
X3.7Y-3.075
X3.71Y-2.295
X3.715Y-0.97
X3.72Y-1.255
X3.73Y-0.725
X3.7445Y-2.4605
X3.76Y-1.86
X3.775Y-1.255
X3.775Y-3.2
X3.775Y-3.55
X3.775Y-3.85
X3.78Y-0.71
X3.78Y-0.84
X3.785Y-0.46
X3.8Y-0.035
X3.8065Y-2.2615
X3.8145Y-2.4728
X3.825Y-0.625
X3.85Y-0.8
X3.853Y-0.968
X3.865Y-2.66
X3.87Y-2.445
X3.875Y-0.655
X3.9Y-2.925
X3.9Y-3.7
X3.92Y-0.425
X3.92Y-2.395
X3.925Y-0.035
X3.925Y-1.275
X3.925Y-3.4
X3.9365Y-0.45
X3.9378Y-0.6533
X3.94Y-0.76
X3.96Y-1.45
X3.968Y-0.6721
X3.97Y-0.595
X3.97Y-0.715
X3.975Y-0.3
X3.975Y-0.365
X3.985Y-0.5
X4.Y-0.225
X4.Y-1.575
X4.01Y-0.89
X4.02Y-1.45
X4.025Y-1.245
X4.025Y-2.025
X4.025Y-2.25
X4.025Y-3.85
X4.045Y-0.495
X4.05Y-0.035
X4.05Y-3.1
X4.05Y-3.55
X4.07Y-0.15
X4.075Y-2.725
X4.08Y-1.06
X4.12Y-1.225
X4.129Y-0.599
X4.135Y-0.375
X4.1385Y-0.8485
X4.145Y-0.45
X4.15Y-0.3
X4.1622Y-0.6178
X4.17Y-1.385
X4.175Y-0.035
X4.175Y-0.975
X4.175Y-1.125
X4.2Y-0.15
X4.205Y-1.315
X4.225Y-1.075
X4.23Y-1.455
X4.25Y-0.3
X4.265Y-1.385
X4.3Y-0.035
X4.3Y-0.23
X4.355Y-1.31
X4.36Y-0.32
X4.36Y-0.38
X4.37Y-0.745
X4.37Y-0.795
X4.37Y-0.85
X4.37Y-1.45
X4.37Y-3.85
X4.4Y-0.05
X4.4Y-1.7
X4.4Y-2.125
X4.4Y-2.5
X4.41Y-0.5
X4.41Y-1.
X4.415Y-0.745
X4.415Y-0.795
X4.415Y-0.85
X4.425Y-0.15
X4.465Y-0.745
X4.465Y-0.795
X4.465Y-0.85
X4.475Y-0.035
X4.485Y-1.24
X4.485Y-1.3
X4.525Y-0.15
X4.55Y-0.3
X4.575Y-0.035
X4.6Y-0.225
X4.64Y-0.75
X4.64Y-0.78
X4.64Y-0.83
X4.64Y-0.87
X4.65Y-0.05
X4.65Y-0.15
X4.65Y-0.25
X4.65Y-0.35
X4.65Y-0.925
X4.65Y-1.22
X4.65Y-1.4
X4.65Y-1.6
X4.65Y-1.8
X4.65Y-2.
X4.65Y-2.2
X4.65Y-2.4
X4.65Y-2.6
X4.65Y-2.8
X4.65Y-3.
X4.65Y-3.2
X4.65Y-3.4
X4.65Y-3.6
X4.65Y-3.85
X4.675Y-1.025
X4.675Y-1.125
T4
X0.2096Y-1.6863
X0.2096Y-1.8438
X0.2096Y-1.9225
X0.2096Y-2.0013
X3.3401Y-2.8846
X3.3401Y-2.9634
X3.3401Y-3.0421
X3.3401Y-3.1209
X3.3401Y-3.1996
X3.3401Y-3.2783
X3.3401Y-3.3571
X3.3401Y-3.4358
X3.3401Y-3.5146
X3.3401Y-3.5933
X4.2062Y-2.8846
X4.2062Y-2.9634
X4.2062Y-3.0421
X4.2062Y-3.1209
X4.2062Y-3.1996
X4.2062Y-3.2783
X4.2062Y-3.3571
X4.2062Y-3.4358
X4.2062Y-3.5146
X4.2062Y-3.5933
T5
X0.3022Y-0.1927
X0.3022Y-0.3698
T6
X0.7637Y-0.1437
X0.8637Y-0.1437
X0.9637Y-0.1437
X2.2637Y-0.3337
X2.3637Y-0.3337
X2.9376Y-1.4264
X2.9376Y-1.5264
X2.9376Y-1.6264
X2.9376Y-1.7264
X2.9376Y-1.8264
X2.9376Y-1.9264
X2.9376Y-2.0264
X2.9376Y-2.1264
X3.8376Y-1.4264
X3.8376Y-1.5264
X3.8376Y-1.6264
X3.8376Y-1.7264
X3.8376Y-1.8264
X3.8376Y-1.9264
X3.8376Y-2.0264
X3.8376Y-2.1264
X4.16Y-1.55
X4.16Y-1.65
X4.16Y-1.75
X4.16Y-1.85
X4.16Y-1.95
X4.16Y-2.05
X4.16Y-2.15
X4.16Y-2.25
X4.16Y-2.35
X4.16Y-2.45
T7
X0.4002Y-0.1433
X0.4002Y-0.4192
T8
X0.2096Y-1.6036
X0.2096Y-2.084
T9
X0.5512Y-2.444
X0.5512Y-2.6094
X0.7677Y-2.444
X0.7677Y-2.6094
T10
X1.8281Y-3.6875
T2
X4.4717Y-0.4559G85X4.4559Y-0.4559
G05
X4.4717Y-0.6465G85X4.4559Y-0.6465
G05
X4.4717Y-0.9579G85X4.4559Y-0.9579
G05
X4.4717Y-1.1484G85X4.4559Y-1.1484
G05
T3
X4.5917Y-0.4437G85X4.572Y-0.4437
G05
X4.5917Y-0.6587G85X4.572Y-0.6587
G05
X4.5917Y-0.9457G85X4.572Y-0.9457
G05
X4.5917Y-1.1606G85X4.572Y-1.1606
G05
T6
X0.3051Y-3.5544G85X0.3051Y-3.6331
G05
X0.3839Y-3.7788G85X0.4626Y-3.7788
G05
X0.5413Y-3.5544G85X0.5413Y-3.6331
G05
T0
M30
