G04 #@! TF.FileFunction,Legend,Bot*
%FSLAX46Y46*%
G04 Gerber Fmt 4.6, Leading zero omitted, Abs format (unit mm)*
G04 Created by KiCad (PCBNEW 4.0.7) date 07/05/18 23:16:34*
%MOMM*%
%LPD*%
G01*
G04 APERTURE LIST*
%ADD10C,0.100000*%
%ADD11C,0.120000*%
%ADD12C,0.203200*%
%ADD13C,0.150000*%
G04 APERTURE END LIST*
D10*
X50740020Y-79191020D02*
X50740020Y-78791020D01*
X50740020Y-78791020D02*
X51040020Y-78491020D01*
X51040020Y-78491020D02*
X51040020Y-77691020D01*
X55640020Y-78291020D02*
X55940020Y-78291020D01*
X55940020Y-78291020D02*
X55940020Y-78591020D01*
X51040020Y-82491020D02*
X50740020Y-82491020D01*
X50740020Y-82491020D02*
X50740020Y-82191020D01*
X55640020Y-82491020D02*
X55940020Y-82491020D01*
X55940020Y-82491020D02*
X55940020Y-82191020D01*
D11*
X31869472Y-18552860D02*
X31869472Y-19552860D01*
X33229472Y-19552860D02*
X33229472Y-18552860D01*
X28581472Y-16928860D02*
X27881472Y-16928860D01*
X27881472Y-18128860D02*
X28581472Y-18128860D01*
X31243472Y-21608860D02*
X31243472Y-23608860D01*
X31243472Y-23608860D02*
X27343472Y-23608860D01*
X31243472Y-21608860D02*
X27343472Y-21608860D01*
D10*
X30726072Y-20797460D02*
X30726072Y-20597460D01*
X30726072Y-19047460D02*
X30726072Y-18847460D01*
X29176072Y-19047460D02*
X29176072Y-18872460D01*
X29176072Y-18872460D02*
X29526072Y-18872460D01*
X29451072Y-20797460D02*
X29226072Y-20597460D01*
X29226072Y-20597460D02*
X29001072Y-20597460D01*
X30726072Y-20797460D02*
X30476072Y-20797460D01*
X30726072Y-18847460D02*
X30476072Y-18847460D01*
D11*
X25101020Y-22614020D02*
X25101020Y-23614020D01*
X26461020Y-23614020D02*
X26461020Y-22614020D01*
X24113472Y-18052860D02*
X24113472Y-20052860D01*
X26253472Y-20052860D02*
X26253472Y-18052860D01*
X26789472Y-19314860D02*
X26789472Y-20314860D01*
X28149472Y-20314860D02*
X28149472Y-19314860D01*
X51908020Y-86329020D02*
X51908020Y-85629020D01*
X50708020Y-85629020D02*
X50708020Y-86329020D01*
X50511020Y-86964020D02*
X50511020Y-86264020D01*
X49311020Y-86264020D02*
X49311020Y-86964020D01*
X66837020Y-68103020D02*
X66837020Y-68803020D01*
X68037020Y-68803020D02*
X68037020Y-68103020D01*
X55669020Y-85817020D02*
X56369020Y-85817020D01*
X56369020Y-84617020D02*
X55669020Y-84617020D01*
X17420968Y-10306658D02*
X16720968Y-10306658D01*
X16720968Y-11506658D02*
X17420968Y-11506658D01*
X36751830Y-25998682D02*
X36751830Y-26698682D01*
X37951830Y-26698682D02*
X37951830Y-25998682D01*
X37193830Y-20414682D02*
X36493830Y-20414682D01*
X36493830Y-21614682D02*
X37193830Y-21614682D01*
X45370020Y-33366020D02*
X46070020Y-33366020D01*
X46070020Y-32166020D02*
X45370020Y-32166020D01*
X58733000Y-45275000D02*
X58733000Y-44575000D01*
X57533000Y-44575000D02*
X57533000Y-45275000D01*
X35321810Y-25965662D02*
X35321810Y-26665662D01*
X36521810Y-26665662D02*
X36521810Y-25965662D01*
X22287770Y-54430938D02*
X22287770Y-55130938D01*
X23487770Y-55130938D02*
X23487770Y-54430938D01*
X23487770Y-45732938D02*
X23487770Y-45032938D01*
X22287770Y-45032938D02*
X22287770Y-45732938D01*
X16695770Y-41156938D02*
X17395770Y-41156938D01*
X17395770Y-39956938D02*
X16695770Y-39956938D01*
X64612020Y-18196020D02*
X63912020Y-18196020D01*
X63912020Y-19396020D02*
X64612020Y-19396020D01*
X12886000Y-4000000D02*
X12886000Y-3300000D01*
X11686000Y-3300000D02*
X11686000Y-4000000D01*
X115314000Y-32143248D02*
X116014000Y-32143248D01*
X116014000Y-30943248D02*
X115314000Y-30943248D01*
X87886000Y-20572000D02*
X87886000Y-21272000D01*
X89086000Y-21272000D02*
X89086000Y-20572000D01*
X94011020Y-64227020D02*
X94711020Y-64227020D01*
X94711020Y-63027020D02*
X94011020Y-63027020D01*
X96286097Y-57720007D02*
X95586097Y-57720007D01*
X95586097Y-58920007D02*
X96286097Y-58920007D01*
X81061020Y-31388020D02*
X81061020Y-32088020D01*
X82261020Y-32088020D02*
X82261020Y-31388020D01*
X51313871Y-50856321D02*
X52013871Y-50856321D01*
X52013871Y-49656321D02*
X51313871Y-49656321D01*
X42416000Y-75370000D02*
X43116000Y-75370000D01*
X43116000Y-74170000D02*
X42416000Y-74170000D01*
X59815000Y-74989000D02*
X60515000Y-74989000D01*
X60515000Y-73789000D02*
X59815000Y-73789000D01*
X59520020Y-75346020D02*
X58820020Y-75346020D01*
X58820020Y-76546020D02*
X59520020Y-76546020D01*
X65770020Y-79466020D02*
X63770020Y-79466020D01*
X63770020Y-79466020D02*
X63770020Y-75566020D01*
X65770020Y-79466020D02*
X65770020Y-75566020D01*
X54053000Y-47683000D02*
X52053000Y-47683000D01*
X52053000Y-47683000D02*
X52053000Y-43783000D01*
X54053000Y-47683000D02*
X54053000Y-43783000D01*
D12*
X43118020Y-31544020D02*
X35618020Y-31544020D01*
X43118020Y-37544020D02*
X35618020Y-37544020D01*
X3870020Y-19510020D02*
X11370020Y-19510020D01*
X3870020Y-13510020D02*
X11370020Y-13510020D01*
D10*
X70635200Y-71485400D02*
X70635200Y-71285400D01*
X70635200Y-69735400D02*
X70635200Y-69535400D01*
X69085200Y-69735400D02*
X69085200Y-69560400D01*
X69085200Y-69560400D02*
X69435200Y-69560400D01*
X69360200Y-71485400D02*
X69135200Y-71285400D01*
X69135200Y-71285400D02*
X68910200Y-71285400D01*
X70635200Y-71485400D02*
X70385200Y-71485400D01*
X70635200Y-69535400D02*
X70385200Y-69535400D01*
X55016800Y-47191000D02*
X55216800Y-47191000D01*
X56766800Y-47191000D02*
X56966800Y-47191000D01*
X56766800Y-45641000D02*
X56941800Y-45641000D01*
X56941800Y-45641000D02*
X56941800Y-45991000D01*
X55016800Y-45916000D02*
X55216800Y-45691000D01*
X55216800Y-45691000D02*
X55216800Y-45466000D01*
X55016800Y-47191000D02*
X55016800Y-46941000D01*
X56966800Y-47191000D02*
X56966800Y-46941000D01*
D11*
X17886020Y-79548020D02*
X17886020Y-78048020D01*
X17886020Y-78048020D02*
X18156020Y-78048020D01*
X18156020Y-78048020D02*
X18156020Y-75218020D01*
X24786020Y-79548020D02*
X24786020Y-78048020D01*
X24786020Y-78048020D02*
X24516020Y-78048020D01*
X24516020Y-78048020D02*
X24516020Y-76948020D01*
X10200000Y-79548020D02*
X10200000Y-78048020D01*
X10200000Y-78048020D02*
X10470000Y-78048020D01*
X10470000Y-78048020D02*
X10470000Y-75218020D01*
X17100000Y-79548020D02*
X17100000Y-78048020D01*
X17100000Y-78048020D02*
X16830000Y-78048020D01*
X16830000Y-78048020D02*
X16830000Y-76948020D01*
X2646020Y-79548020D02*
X2646020Y-78048020D01*
X2646020Y-78048020D02*
X2916020Y-78048020D01*
X2916020Y-78048020D02*
X2916020Y-75218020D01*
X9546020Y-79548020D02*
X9546020Y-78048020D01*
X9546020Y-78048020D02*
X9276020Y-78048020D01*
X9276020Y-78048020D02*
X9276020Y-76948020D01*
D10*
X31201020Y-80759020D02*
X31001020Y-80759020D01*
X29451020Y-80759020D02*
X29251020Y-80759020D01*
X29451020Y-82309020D02*
X29276020Y-82309020D01*
X29276020Y-82309020D02*
X29276020Y-81959020D01*
X31201020Y-82034020D02*
X31001020Y-82259020D01*
X31001020Y-82259020D02*
X31001020Y-82484020D01*
X31201020Y-80759020D02*
X31201020Y-81009020D01*
X29251020Y-80759020D02*
X29251020Y-81009020D01*
D11*
X44028000Y-85774000D02*
X43028000Y-85774000D01*
X43028000Y-87134000D02*
X44028000Y-87134000D01*
X50210020Y-84320020D02*
X50210020Y-83320020D01*
X48850020Y-83320020D02*
X48850020Y-84320020D01*
X69223020Y-73451020D02*
X70223020Y-73451020D01*
X70223020Y-72091020D02*
X69223020Y-72091020D01*
X66757020Y-70747020D02*
X66757020Y-71747020D01*
X68117020Y-71747020D02*
X68117020Y-70747020D01*
X64335020Y-68977020D02*
X64335020Y-70977020D01*
X66475020Y-70977020D02*
X66475020Y-68977020D01*
X52840020Y-87421020D02*
X53840020Y-87421020D01*
X53840020Y-86061020D02*
X52840020Y-86061020D01*
X56216020Y-81542020D02*
X56216020Y-82542020D01*
X57576020Y-82542020D02*
X57576020Y-81542020D01*
X53840020Y-84537020D02*
X52840020Y-84537020D01*
X52840020Y-85897020D02*
X53840020Y-85897020D01*
X14776968Y-11750658D02*
X13776968Y-11750658D01*
X13776968Y-13110658D02*
X14776968Y-13110658D01*
X17578568Y-11809058D02*
X16578568Y-11809058D01*
X16578568Y-13169058D02*
X17578568Y-13169058D01*
X37343830Y-18556682D02*
X36343830Y-18556682D01*
X36343830Y-19916682D02*
X37343830Y-19916682D01*
X43185830Y-18556682D02*
X42185830Y-18556682D01*
X42185830Y-19916682D02*
X43185830Y-19916682D01*
X40391830Y-18556682D02*
X39391830Y-18556682D01*
X39391830Y-19916682D02*
X40391830Y-19916682D01*
X46220020Y-29038020D02*
X45220020Y-29038020D01*
X45220020Y-30398020D02*
X46220020Y-30398020D01*
X50087000Y-44933000D02*
X50087000Y-45933000D01*
X51447000Y-45933000D02*
X51447000Y-44933000D01*
X45220020Y-31922020D02*
X46220020Y-31922020D01*
X46220020Y-30562020D02*
X45220020Y-30562020D01*
X56601000Y-42721000D02*
X55601000Y-42721000D01*
X55601000Y-44081000D02*
X56601000Y-44081000D01*
X57863000Y-40045000D02*
X55863000Y-40045000D01*
X55863000Y-42185000D02*
X57863000Y-42185000D01*
X34970020Y-28694020D02*
X34970020Y-27694020D01*
X33610020Y-27694020D02*
X33610020Y-28694020D01*
X57396020Y-48342020D02*
X56396020Y-48342020D01*
X56396020Y-49702020D02*
X57396020Y-49702020D01*
X44786020Y-24646020D02*
X44786020Y-25646020D01*
X46146020Y-25646020D02*
X46146020Y-24646020D01*
X37076020Y-29038020D02*
X36076020Y-29038020D01*
X36076020Y-30398020D02*
X37076020Y-30398020D01*
X22360020Y-74594020D02*
X23360020Y-74594020D01*
X23360020Y-73234020D02*
X22360020Y-73234020D01*
X11946020Y-74594020D02*
X12946020Y-74594020D01*
X12946020Y-73234020D02*
X11946020Y-73234020D01*
X4326020Y-74721020D02*
X5326020Y-74721020D01*
X5326020Y-73361020D02*
X4326020Y-73361020D01*
X28620020Y-82034020D02*
X28620020Y-81034020D01*
X27260020Y-81034020D02*
X27260020Y-82034020D01*
X29964020Y-77044020D02*
X28964020Y-77044020D01*
X28964020Y-78404020D02*
X29964020Y-78404020D01*
X27063000Y-82001000D02*
X27063000Y-81001000D01*
X25703000Y-81001000D02*
X25703000Y-82001000D01*
X18995770Y-55280938D02*
X18995770Y-54280938D01*
X17635770Y-54280938D02*
X17635770Y-55280938D01*
X20683770Y-54280938D02*
X20683770Y-55280938D01*
X22043770Y-55280938D02*
X22043770Y-54280938D01*
X20519770Y-55280938D02*
X20519770Y-54280938D01*
X19159770Y-54280938D02*
X19159770Y-55280938D01*
X17307770Y-53174938D02*
X18307770Y-53174938D01*
X18307770Y-51814938D02*
X17307770Y-51814938D01*
X20101770Y-53174938D02*
X21101770Y-53174938D01*
X21101770Y-51814938D02*
X20101770Y-51814938D01*
X21201770Y-56440938D02*
X20001770Y-56440938D01*
X20001770Y-58200938D02*
X21201770Y-58200938D01*
X16174020Y-47490020D02*
X16174020Y-46490020D01*
X14814020Y-46490020D02*
X14814020Y-47490020D01*
X20339770Y-39876938D02*
X19339770Y-39876938D01*
X19339770Y-41236938D02*
X20339770Y-41236938D01*
X16545770Y-42760938D02*
X17545770Y-42760938D01*
X17545770Y-41400938D02*
X16545770Y-41400938D01*
X14814020Y-43696020D02*
X14814020Y-44696020D01*
X16174020Y-44696020D02*
X16174020Y-43696020D01*
X19339770Y-42760938D02*
X20339770Y-42760938D01*
X20339770Y-41400938D02*
X19339770Y-41400938D01*
X70620020Y-24048020D02*
X71620020Y-24048020D01*
X71620020Y-22688020D02*
X70620020Y-22688020D01*
X61386000Y-21836020D02*
X61386000Y-20836020D01*
X60026000Y-20836020D02*
X60026000Y-21836020D01*
X14490000Y-4150000D02*
X14490000Y-3150000D01*
X13130000Y-3150000D02*
X13130000Y-4150000D01*
X101287618Y-16796082D02*
X100287618Y-16796082D01*
X100287618Y-18156082D02*
X101287618Y-18156082D01*
X101287618Y-15018082D02*
X100287618Y-15018082D01*
X100287618Y-16378082D02*
X101287618Y-16378082D01*
X103815618Y-16796082D02*
X102815618Y-16796082D01*
X102815618Y-18156082D02*
X103815618Y-18156082D01*
X103827618Y-15018082D02*
X102827618Y-15018082D01*
X102827618Y-16378082D02*
X103827618Y-16378082D01*
X95281618Y-19262082D02*
X95281618Y-20262082D01*
X96641618Y-20262082D02*
X96641618Y-19262082D01*
X87642000Y-21422000D02*
X87642000Y-20422000D01*
X86282000Y-20422000D02*
X86282000Y-21422000D01*
X115164000Y-33747248D02*
X116164000Y-33747248D01*
X116164000Y-32387248D02*
X115164000Y-32387248D01*
X91528513Y-67425849D02*
X90528513Y-67425849D01*
X90528513Y-68785849D02*
X91528513Y-68785849D01*
X91528513Y-69203849D02*
X90528513Y-69203849D01*
X90528513Y-70563849D02*
X91528513Y-70563849D01*
X90528513Y-67007849D02*
X91528513Y-67007849D01*
X91528513Y-65647849D02*
X90528513Y-65647849D01*
X90528513Y-72341849D02*
X91528513Y-72341849D01*
X91528513Y-70981849D02*
X90528513Y-70981849D01*
X52163871Y-53132321D02*
X51163871Y-53132321D01*
X51163871Y-54492321D02*
X52163871Y-54492321D01*
X51163871Y-52714321D02*
X52163871Y-52714321D01*
X52163871Y-51354321D02*
X51163871Y-51354321D01*
X47363020Y-75520020D02*
X46363020Y-75520020D01*
X46363020Y-76880020D02*
X47363020Y-76880020D01*
X47363020Y-77171020D02*
X46363020Y-77171020D01*
X46363020Y-78531020D02*
X47363020Y-78531020D01*
X56892020Y-75102020D02*
X57892020Y-75102020D01*
X57892020Y-73742020D02*
X56892020Y-73742020D01*
X42266000Y-73926000D02*
X43266000Y-73926000D01*
X43266000Y-72566000D02*
X42266000Y-72566000D01*
X52627000Y-68555000D02*
X52627000Y-69555000D01*
X53987000Y-69555000D02*
X53987000Y-68555000D01*
X52627000Y-71349000D02*
X52627000Y-72349000D01*
X53987000Y-72349000D02*
X53987000Y-71349000D01*
D10*
X45615000Y-81898000D02*
X45940000Y-81898000D01*
X45940000Y-81898000D02*
X45940000Y-82198000D01*
X42965000Y-83898000D02*
X42640000Y-83898000D01*
X42640000Y-83898000D02*
X42640000Y-83598000D01*
X42940000Y-81898000D02*
X42640000Y-81898000D01*
X42640000Y-81898000D02*
X42640000Y-82223000D01*
X45940000Y-83573000D02*
X45715000Y-83898000D01*
X45715000Y-83898000D02*
X45615000Y-83898000D01*
X45615000Y-83898000D02*
X45615000Y-84423000D01*
X45940000Y-83573000D02*
X45940000Y-83198000D01*
X38815830Y-23624682D02*
X38815830Y-23224682D01*
X38815830Y-23224682D02*
X39115830Y-22924682D01*
X39115830Y-22924682D02*
X39115830Y-22124682D01*
X43715830Y-22724682D02*
X44015830Y-22724682D01*
X44015830Y-22724682D02*
X44015830Y-23024682D01*
X39115830Y-26924682D02*
X38815830Y-26924682D01*
X38815830Y-26924682D02*
X38815830Y-26624682D01*
X43715830Y-26924682D02*
X44015830Y-26924682D01*
X44015830Y-26924682D02*
X44015830Y-26624682D01*
X21873370Y-48302538D02*
X21873370Y-48702538D01*
X21873370Y-48702538D02*
X21573370Y-49002538D01*
X21573370Y-49002538D02*
X21573370Y-49802538D01*
X16973370Y-49202538D02*
X16673370Y-49202538D01*
X16673370Y-49202538D02*
X16673370Y-48902538D01*
X21573370Y-45002538D02*
X21873370Y-45002538D01*
X21873370Y-45002538D02*
X21873370Y-45302538D01*
X16973370Y-45002538D02*
X16673370Y-45002538D01*
X16673370Y-45002538D02*
X16673370Y-45302538D01*
D11*
X45582000Y-71730000D02*
X47382000Y-71730000D01*
X47382000Y-74950000D02*
X44932000Y-74950000D01*
D10*
X57187000Y-72925000D02*
X56787000Y-72925000D01*
X56787000Y-72925000D02*
X56487000Y-72625000D01*
X56487000Y-72625000D02*
X55687000Y-72625000D01*
X56287000Y-68025000D02*
X56287000Y-67725000D01*
X56287000Y-67725000D02*
X56587000Y-67725000D01*
X60487000Y-72625000D02*
X60487000Y-72925000D01*
X60487000Y-72925000D02*
X60187000Y-72925000D01*
X60487000Y-68025000D02*
X60487000Y-67725000D01*
X60487000Y-67725000D02*
X60187000Y-67725000D01*
X67087600Y-20107600D02*
X67487600Y-20107600D01*
X67487600Y-20107600D02*
X67787600Y-20407600D01*
X67787600Y-20407600D02*
X68587600Y-20407600D01*
X67987600Y-25007600D02*
X67987600Y-25307600D01*
X67987600Y-25307600D02*
X67687600Y-25307600D01*
X63787600Y-20407600D02*
X63787600Y-20107600D01*
X63787600Y-20107600D02*
X64087600Y-20107600D01*
X63787600Y-25007600D02*
X63787600Y-25307600D01*
X63787600Y-25307600D02*
X64087600Y-25307600D01*
D11*
X95590497Y-67032407D02*
X97790497Y-67032407D01*
X95590497Y-64832407D02*
X98590497Y-64832407D01*
X95598097Y-61706007D02*
X97798097Y-61706007D01*
X95598097Y-59506007D02*
X98598097Y-59506007D01*
X71329020Y-69223020D02*
X71329020Y-70223020D01*
X72689020Y-70223020D02*
X72689020Y-69223020D01*
X28964020Y-79928020D02*
X29964020Y-79928020D01*
X29964020Y-78568020D02*
X28964020Y-78568020D01*
X9750000Y-63610000D02*
X9750000Y-65610000D01*
X7710000Y-65610000D02*
X7710000Y-63610000D01*
X17792000Y-4912000D02*
X17792000Y-3912000D01*
X16432000Y-3912000D02*
X16432000Y-4912000D01*
X17792000Y-7706000D02*
X17792000Y-6706000D01*
X16432000Y-6706000D02*
X16432000Y-7706000D01*
X16188000Y-7556000D02*
X16188000Y-6856000D01*
X14988000Y-6856000D02*
X14988000Y-7556000D01*
D13*
X82924020Y-26081020D02*
X83149020Y-26081020D01*
X82924020Y-31831020D02*
X83224020Y-31831020D01*
X91574020Y-31831020D02*
X91274020Y-31831020D01*
X91574020Y-26081020D02*
X91274020Y-26081020D01*
X82924020Y-26081020D02*
X82924020Y-31831020D01*
X91574020Y-26081020D02*
X91574020Y-31831020D01*
X83149020Y-26081020D02*
X83149020Y-24481020D01*
D11*
X82128176Y-25125744D02*
X82128176Y-24125744D01*
X80768176Y-24125744D02*
X80768176Y-25125744D01*
X80604176Y-25125744D02*
X80604176Y-24125744D01*
X79244176Y-24125744D02*
X79244176Y-25125744D01*
X112872020Y-9073024D02*
X112172020Y-9073024D01*
X112172020Y-10273024D02*
X112872020Y-10273024D01*
D12*
X54658020Y-56450020D02*
X54658020Y-63950020D01*
X60658020Y-56450020D02*
X60658020Y-63950020D01*
D11*
X21168750Y-58312918D02*
X19968750Y-58312918D01*
X19968750Y-60072918D02*
X21168750Y-60072918D01*
X113022020Y-7469024D02*
X112022020Y-7469024D01*
X112022020Y-8829024D02*
X113022020Y-8829024D01*
X102557618Y-13494082D02*
X101557618Y-13494082D01*
X101557618Y-14854082D02*
X102557618Y-14854082D01*
X83216020Y-23587020D02*
X83916020Y-23587020D01*
X83916020Y-22387020D02*
X83216020Y-22387020D01*
X47848020Y-33563020D02*
X47148020Y-33563020D01*
X47148020Y-34763020D02*
X47848020Y-34763020D01*
X57182520Y-38579520D02*
X56482520Y-38579520D01*
X56482520Y-39779520D02*
X57182520Y-39779520D01*
X79280520Y-63789020D02*
X78580520Y-63789020D01*
X78580520Y-64989020D02*
X79280520Y-64989020D01*
X78836020Y-96745520D02*
X78136020Y-96745520D01*
X78136020Y-97945520D02*
X78836020Y-97945520D01*
X78911520Y-89316020D02*
X78211520Y-89316020D01*
X78211520Y-90516020D02*
X78911520Y-90516020D01*
X78899520Y-81315020D02*
X78199520Y-81315020D01*
X78199520Y-82515020D02*
X78899520Y-82515020D01*
X78899520Y-73187020D02*
X78199520Y-73187020D01*
X78199520Y-74387020D02*
X78899520Y-74387020D01*
X78836020Y-68742020D02*
X78136020Y-68742020D01*
X78136020Y-69942020D02*
X78836020Y-69942020D01*
D13*
X49363401Y-78740115D02*
X50172925Y-78740115D01*
X50268163Y-78787734D01*
X50315782Y-78835353D01*
X50363401Y-78930591D01*
X50363401Y-79121068D01*
X50315782Y-79216306D01*
X50268163Y-79263925D01*
X50172925Y-79311544D01*
X49363401Y-79311544D01*
X49458639Y-79740115D02*
X49411020Y-79787734D01*
X49363401Y-79882972D01*
X49363401Y-80121068D01*
X49411020Y-80216306D01*
X49458639Y-80263925D01*
X49553877Y-80311544D01*
X49649115Y-80311544D01*
X49791972Y-80263925D01*
X50363401Y-79692496D01*
X50363401Y-80311544D01*
X34615401Y-18410003D02*
X34139210Y-18076669D01*
X34615401Y-17838574D02*
X33615401Y-17838574D01*
X33615401Y-18219527D01*
X33663020Y-18314765D01*
X33710639Y-18362384D01*
X33805877Y-18410003D01*
X33948734Y-18410003D01*
X34043972Y-18362384D01*
X34091591Y-18314765D01*
X34139210Y-18219527D01*
X34139210Y-17838574D01*
X33615401Y-18743336D02*
X33615401Y-19362384D01*
X33996353Y-19029050D01*
X33996353Y-19171908D01*
X34043972Y-19267146D01*
X34091591Y-19314765D01*
X34186830Y-19362384D01*
X34424925Y-19362384D01*
X34520163Y-19314765D01*
X34567782Y-19267146D01*
X34615401Y-19171908D01*
X34615401Y-18886193D01*
X34567782Y-18790955D01*
X34520163Y-18743336D01*
X33615401Y-20267146D02*
X33615401Y-19790955D01*
X34091591Y-19743336D01*
X34043972Y-19790955D01*
X33996353Y-19886193D01*
X33996353Y-20124289D01*
X34043972Y-20219527D01*
X34091591Y-20267146D01*
X34186830Y-20314765D01*
X34424925Y-20314765D01*
X34520163Y-20267146D01*
X34567782Y-20219527D01*
X34615401Y-20124289D01*
X34615401Y-19886193D01*
X34567782Y-19790955D01*
X34520163Y-19743336D01*
X28582877Y-16486163D02*
X28630496Y-16533782D01*
X28773353Y-16581401D01*
X28868591Y-16581401D01*
X29011449Y-16533782D01*
X29106687Y-16438544D01*
X29154306Y-16343306D01*
X29201925Y-16152830D01*
X29201925Y-16009972D01*
X29154306Y-15819496D01*
X29106687Y-15724258D01*
X29011449Y-15629020D01*
X28868591Y-15581401D01*
X28773353Y-15581401D01*
X28630496Y-15629020D01*
X28582877Y-15676639D01*
X28249544Y-15581401D02*
X27630496Y-15581401D01*
X27963830Y-15962353D01*
X27820972Y-15962353D01*
X27725734Y-16009972D01*
X27678115Y-16057591D01*
X27630496Y-16152830D01*
X27630496Y-16390925D01*
X27678115Y-16486163D01*
X27725734Y-16533782D01*
X27820972Y-16581401D01*
X28106687Y-16581401D01*
X28201925Y-16533782D01*
X28249544Y-16486163D01*
X26678115Y-16581401D02*
X27249544Y-16581401D01*
X26963830Y-16581401D02*
X26963830Y-15581401D01*
X27059068Y-15724258D01*
X27154306Y-15819496D01*
X27249544Y-15867115D01*
X29154306Y-24963401D02*
X29154306Y-23963401D01*
X28916211Y-23963401D01*
X28773353Y-24011020D01*
X28678115Y-24106258D01*
X28630496Y-24201496D01*
X28582877Y-24391972D01*
X28582877Y-24534830D01*
X28630496Y-24725306D01*
X28678115Y-24820544D01*
X28773353Y-24915782D01*
X28916211Y-24963401D01*
X29154306Y-24963401D01*
X27630496Y-24963401D02*
X28201925Y-24963401D01*
X27916211Y-24963401D02*
X27916211Y-23963401D01*
X28011449Y-24106258D01*
X28106687Y-24201496D01*
X28201925Y-24249115D01*
X27011449Y-23963401D02*
X26916210Y-23963401D01*
X26820972Y-24011020D01*
X26773353Y-24058639D01*
X26725734Y-24153877D01*
X26678115Y-24344353D01*
X26678115Y-24582449D01*
X26725734Y-24772925D01*
X26773353Y-24868163D01*
X26820972Y-24915782D01*
X26916210Y-24963401D01*
X27011449Y-24963401D01*
X27106687Y-24915782D01*
X27154306Y-24868163D01*
X27201925Y-24772925D01*
X27249544Y-24582449D01*
X27249544Y-24344353D01*
X27201925Y-24153877D01*
X27154306Y-24058639D01*
X27106687Y-24011020D01*
X27011449Y-23963401D01*
X30829258Y-17946639D02*
X30924496Y-17899020D01*
X31019734Y-17803782D01*
X31162591Y-17660925D01*
X31257830Y-17613306D01*
X31353068Y-17613306D01*
X31305449Y-17851401D02*
X31400687Y-17803782D01*
X31495925Y-17708544D01*
X31543544Y-17518068D01*
X31543544Y-17184734D01*
X31495925Y-16994258D01*
X31400687Y-16899020D01*
X31305449Y-16851401D01*
X31114972Y-16851401D01*
X31019734Y-16899020D01*
X30924496Y-16994258D01*
X30876877Y-17184734D01*
X30876877Y-17518068D01*
X30924496Y-17708544D01*
X31019734Y-17803782D01*
X31114972Y-17851401D01*
X31305449Y-17851401D01*
X29972115Y-16851401D02*
X30448306Y-16851401D01*
X30495925Y-17327591D01*
X30448306Y-17279972D01*
X30353068Y-17232353D01*
X30114972Y-17232353D01*
X30019734Y-17279972D01*
X29972115Y-17327591D01*
X29924496Y-17422830D01*
X29924496Y-17660925D01*
X29972115Y-17756163D01*
X30019734Y-17803782D01*
X30114972Y-17851401D01*
X30353068Y-17851401D01*
X30448306Y-17803782D01*
X30495925Y-17756163D01*
X24836401Y-22471163D02*
X24360210Y-22137829D01*
X24836401Y-21899734D02*
X23836401Y-21899734D01*
X23836401Y-22280687D01*
X23884020Y-22375925D01*
X23931639Y-22423544D01*
X24026877Y-22471163D01*
X24169734Y-22471163D01*
X24264972Y-22423544D01*
X24312591Y-22375925D01*
X24360210Y-22280687D01*
X24360210Y-21899734D01*
X23931639Y-22852115D02*
X23884020Y-22899734D01*
X23836401Y-22994972D01*
X23836401Y-23233068D01*
X23884020Y-23328306D01*
X23931639Y-23375925D01*
X24026877Y-23423544D01*
X24122115Y-23423544D01*
X24264972Y-23375925D01*
X24836401Y-22804496D01*
X24836401Y-23423544D01*
X23836401Y-23756877D02*
X23836401Y-24423544D01*
X24836401Y-23994972D01*
X22423401Y-19169163D02*
X21947210Y-18835829D01*
X22423401Y-18597734D02*
X21423401Y-18597734D01*
X21423401Y-18978687D01*
X21471020Y-19073925D01*
X21518639Y-19121544D01*
X21613877Y-19169163D01*
X21756734Y-19169163D01*
X21851972Y-19121544D01*
X21899591Y-19073925D01*
X21947210Y-18978687D01*
X21947210Y-18597734D01*
X21423401Y-19502496D02*
X21423401Y-20121544D01*
X21804353Y-19788210D01*
X21804353Y-19931068D01*
X21851972Y-20026306D01*
X21899591Y-20073925D01*
X21994830Y-20121544D01*
X22232925Y-20121544D01*
X22328163Y-20073925D01*
X22375782Y-20026306D01*
X22423401Y-19931068D01*
X22423401Y-19645353D01*
X22375782Y-19550115D01*
X22328163Y-19502496D01*
X21518639Y-20502496D02*
X21471020Y-20550115D01*
X21423401Y-20645353D01*
X21423401Y-20883449D01*
X21471020Y-20978687D01*
X21518639Y-21026306D01*
X21613877Y-21073925D01*
X21709115Y-21073925D01*
X21851972Y-21026306D01*
X22423401Y-20454877D01*
X22423401Y-21073925D01*
X23820401Y-19169163D02*
X23344210Y-18835829D01*
X23820401Y-18597734D02*
X22820401Y-18597734D01*
X22820401Y-18978687D01*
X22868020Y-19073925D01*
X22915639Y-19121544D01*
X23010877Y-19169163D01*
X23153734Y-19169163D01*
X23248972Y-19121544D01*
X23296591Y-19073925D01*
X23344210Y-18978687D01*
X23344210Y-18597734D01*
X22915639Y-19550115D02*
X22868020Y-19597734D01*
X22820401Y-19692972D01*
X22820401Y-19931068D01*
X22868020Y-20026306D01*
X22915639Y-20073925D01*
X23010877Y-20121544D01*
X23106115Y-20121544D01*
X23248972Y-20073925D01*
X23820401Y-19502496D01*
X23820401Y-20121544D01*
X23820401Y-20597734D02*
X23820401Y-20788210D01*
X23772782Y-20883449D01*
X23725163Y-20931068D01*
X23582306Y-21026306D01*
X23391830Y-21073925D01*
X23010877Y-21073925D01*
X22915639Y-21026306D01*
X22868020Y-20978687D01*
X22820401Y-20883449D01*
X22820401Y-20692972D01*
X22868020Y-20597734D01*
X22915639Y-20550115D01*
X23010877Y-20502496D01*
X23248972Y-20502496D01*
X23344210Y-20550115D01*
X23391830Y-20597734D01*
X23439449Y-20692972D01*
X23439449Y-20883449D01*
X23391830Y-20978687D01*
X23344210Y-21026306D01*
X23248972Y-21073925D01*
X51347686Y-89384163D02*
X51395305Y-89431782D01*
X51538162Y-89479401D01*
X51633400Y-89479401D01*
X51776258Y-89431782D01*
X51871496Y-89336544D01*
X51919115Y-89241306D01*
X51966734Y-89050830D01*
X51966734Y-88907972D01*
X51919115Y-88717496D01*
X51871496Y-88622258D01*
X51776258Y-88527020D01*
X51633400Y-88479401D01*
X51538162Y-88479401D01*
X51395305Y-88527020D01*
X51347686Y-88574639D01*
X51014353Y-88479401D02*
X50347686Y-88479401D01*
X50776258Y-89479401D01*
X48768163Y-86447354D02*
X48815782Y-86399735D01*
X48863401Y-86256878D01*
X48863401Y-86161640D01*
X48815782Y-86018782D01*
X48720544Y-85923544D01*
X48625306Y-85875925D01*
X48434830Y-85828306D01*
X48291972Y-85828306D01*
X48101496Y-85875925D01*
X48006258Y-85923544D01*
X47911020Y-86018782D01*
X47863401Y-86161640D01*
X47863401Y-86256878D01*
X47911020Y-86399735D01*
X47958639Y-86447354D01*
X48291972Y-87018782D02*
X48244353Y-86923544D01*
X48196734Y-86875925D01*
X48101496Y-86828306D01*
X48053877Y-86828306D01*
X47958639Y-86875925D01*
X47911020Y-86923544D01*
X47863401Y-87018782D01*
X47863401Y-87209259D01*
X47911020Y-87304497D01*
X47958639Y-87352116D01*
X48053877Y-87399735D01*
X48101496Y-87399735D01*
X48196734Y-87352116D01*
X48244353Y-87304497D01*
X48291972Y-87209259D01*
X48291972Y-87018782D01*
X48339591Y-86923544D01*
X48387210Y-86875925D01*
X48482449Y-86828306D01*
X48672925Y-86828306D01*
X48768163Y-86875925D01*
X48815782Y-86923544D01*
X48863401Y-87018782D01*
X48863401Y-87209259D01*
X48815782Y-87304497D01*
X48768163Y-87352116D01*
X48672925Y-87399735D01*
X48482449Y-87399735D01*
X48387210Y-87352116D01*
X48339591Y-87304497D01*
X48291972Y-87209259D01*
X69294163Y-66413163D02*
X69341782Y-66365544D01*
X69389401Y-66222687D01*
X69389401Y-66127449D01*
X69341782Y-65984591D01*
X69246544Y-65889353D01*
X69151306Y-65841734D01*
X68960830Y-65794115D01*
X68817972Y-65794115D01*
X68627496Y-65841734D01*
X68532258Y-65889353D01*
X68437020Y-65984591D01*
X68389401Y-66127449D01*
X68389401Y-66222687D01*
X68437020Y-66365544D01*
X68484639Y-66413163D01*
X69389401Y-67365544D02*
X69389401Y-66794115D01*
X69389401Y-67079829D02*
X68389401Y-67079829D01*
X68532258Y-66984591D01*
X68627496Y-66889353D01*
X68675115Y-66794115D01*
X68389401Y-68270306D02*
X68389401Y-67794115D01*
X68865591Y-67746496D01*
X68817972Y-67794115D01*
X68770353Y-67889353D01*
X68770353Y-68127449D01*
X68817972Y-68222687D01*
X68865591Y-68270306D01*
X68960830Y-68317925D01*
X69198925Y-68317925D01*
X69294163Y-68270306D01*
X69341782Y-68222687D01*
X69389401Y-68127449D01*
X69389401Y-67889353D01*
X69341782Y-67794115D01*
X69294163Y-67746496D01*
X57538877Y-87225163D02*
X57586496Y-87272782D01*
X57729353Y-87320401D01*
X57824591Y-87320401D01*
X57967449Y-87272782D01*
X58062687Y-87177544D01*
X58110306Y-87082306D01*
X58157925Y-86891830D01*
X58157925Y-86748972D01*
X58110306Y-86558496D01*
X58062687Y-86463258D01*
X57967449Y-86368020D01*
X57824591Y-86320401D01*
X57729353Y-86320401D01*
X57586496Y-86368020D01*
X57538877Y-86415639D01*
X56586496Y-87320401D02*
X57157925Y-87320401D01*
X56872211Y-87320401D02*
X56872211Y-86320401D01*
X56967449Y-86463258D01*
X57062687Y-86558496D01*
X57157925Y-86606115D01*
X55729353Y-86320401D02*
X55919830Y-86320401D01*
X56015068Y-86368020D01*
X56062687Y-86415639D01*
X56157925Y-86558496D01*
X56205544Y-86748972D01*
X56205544Y-87129925D01*
X56157925Y-87225163D01*
X56110306Y-87272782D01*
X56015068Y-87320401D01*
X55824591Y-87320401D01*
X55729353Y-87272782D01*
X55681734Y-87225163D01*
X55634115Y-87129925D01*
X55634115Y-86891830D01*
X55681734Y-86796591D01*
X55729353Y-86748972D01*
X55824591Y-86701353D01*
X56015068Y-86701353D01*
X56110306Y-86748972D01*
X56157925Y-86796591D01*
X56205544Y-86891830D01*
X20835877Y-11279163D02*
X20883496Y-11326782D01*
X21026353Y-11374401D01*
X21121591Y-11374401D01*
X21264449Y-11326782D01*
X21359687Y-11231544D01*
X21407306Y-11136306D01*
X21454925Y-10945830D01*
X21454925Y-10802972D01*
X21407306Y-10612496D01*
X21359687Y-10517258D01*
X21264449Y-10422020D01*
X21121591Y-10374401D01*
X21026353Y-10374401D01*
X20883496Y-10422020D01*
X20835877Y-10469639D01*
X20502544Y-10374401D02*
X19883496Y-10374401D01*
X20216830Y-10755353D01*
X20073972Y-10755353D01*
X19978734Y-10802972D01*
X19931115Y-10850591D01*
X19883496Y-10945830D01*
X19883496Y-11183925D01*
X19931115Y-11279163D01*
X19978734Y-11326782D01*
X20073972Y-11374401D01*
X20359687Y-11374401D01*
X20454925Y-11326782D01*
X20502544Y-11279163D01*
X19264449Y-10374401D02*
X19169210Y-10374401D01*
X19073972Y-10422020D01*
X19026353Y-10469639D01*
X18978734Y-10564877D01*
X18931115Y-10755353D01*
X18931115Y-10993449D01*
X18978734Y-11183925D01*
X19026353Y-11279163D01*
X19073972Y-11326782D01*
X19169210Y-11374401D01*
X19264449Y-11374401D01*
X19359687Y-11326782D01*
X19407306Y-11279163D01*
X19454925Y-11183925D01*
X19502544Y-10993449D01*
X19502544Y-10755353D01*
X19454925Y-10564877D01*
X19407306Y-10469639D01*
X19359687Y-10422020D01*
X19264449Y-10374401D01*
X34393163Y-24630163D02*
X34440782Y-24582544D01*
X34488401Y-24439687D01*
X34488401Y-24344449D01*
X34440782Y-24201591D01*
X34345544Y-24106353D01*
X34250306Y-24058734D01*
X34059830Y-24011115D01*
X33916972Y-24011115D01*
X33726496Y-24058734D01*
X33631258Y-24106353D01*
X33536020Y-24201591D01*
X33488401Y-24344449D01*
X33488401Y-24439687D01*
X33536020Y-24582544D01*
X33583639Y-24630163D01*
X33488401Y-24963496D02*
X33488401Y-25582544D01*
X33869353Y-25249210D01*
X33869353Y-25392068D01*
X33916972Y-25487306D01*
X33964591Y-25534925D01*
X34059830Y-25582544D01*
X34297925Y-25582544D01*
X34393163Y-25534925D01*
X34440782Y-25487306D01*
X34488401Y-25392068D01*
X34488401Y-25106353D01*
X34440782Y-25011115D01*
X34393163Y-24963496D01*
X33583639Y-25963496D02*
X33536020Y-26011115D01*
X33488401Y-26106353D01*
X33488401Y-26344449D01*
X33536020Y-26439687D01*
X33583639Y-26487306D01*
X33678877Y-26534925D01*
X33774115Y-26534925D01*
X33916972Y-26487306D01*
X34488401Y-25915877D01*
X34488401Y-26534925D01*
X37472877Y-22836163D02*
X37520496Y-22883782D01*
X37663353Y-22931401D01*
X37758591Y-22931401D01*
X37901449Y-22883782D01*
X37996687Y-22788544D01*
X38044306Y-22693306D01*
X38091925Y-22502830D01*
X38091925Y-22359972D01*
X38044306Y-22169496D01*
X37996687Y-22074258D01*
X37901449Y-21979020D01*
X37758591Y-21931401D01*
X37663353Y-21931401D01*
X37520496Y-21979020D01*
X37472877Y-22026639D01*
X37139544Y-21931401D02*
X36520496Y-21931401D01*
X36853830Y-22312353D01*
X36710972Y-22312353D01*
X36615734Y-22359972D01*
X36568115Y-22407591D01*
X36520496Y-22502830D01*
X36520496Y-22740925D01*
X36568115Y-22836163D01*
X36615734Y-22883782D01*
X36710972Y-22931401D01*
X36996687Y-22931401D01*
X37091925Y-22883782D01*
X37139544Y-22836163D01*
X36187163Y-21931401D02*
X35568115Y-21931401D01*
X35901449Y-22312353D01*
X35758591Y-22312353D01*
X35663353Y-22359972D01*
X35615734Y-22407591D01*
X35568115Y-22502830D01*
X35568115Y-22740925D01*
X35615734Y-22836163D01*
X35663353Y-22883782D01*
X35758591Y-22931401D01*
X36044306Y-22931401D01*
X36139544Y-22883782D01*
X36187163Y-22836163D01*
X49029877Y-32996163D02*
X49077496Y-33043782D01*
X49220353Y-33091401D01*
X49315591Y-33091401D01*
X49458449Y-33043782D01*
X49553687Y-32948544D01*
X49601306Y-32853306D01*
X49648925Y-32662830D01*
X49648925Y-32519972D01*
X49601306Y-32329496D01*
X49553687Y-32234258D01*
X49458449Y-32139020D01*
X49315591Y-32091401D01*
X49220353Y-32091401D01*
X49077496Y-32139020D01*
X49029877Y-32186639D01*
X48172734Y-32424734D02*
X48172734Y-33091401D01*
X48410830Y-32043782D02*
X48648925Y-32758068D01*
X48029877Y-32758068D01*
X47458449Y-32091401D02*
X47363210Y-32091401D01*
X47267972Y-32139020D01*
X47220353Y-32186639D01*
X47172734Y-32281877D01*
X47125115Y-32472353D01*
X47125115Y-32710449D01*
X47172734Y-32900925D01*
X47220353Y-32996163D01*
X47267972Y-33043782D01*
X47363210Y-33091401D01*
X47458449Y-33091401D01*
X47553687Y-33043782D01*
X47601306Y-32996163D01*
X47648925Y-32900925D01*
X47696544Y-32710449D01*
X47696544Y-32472353D01*
X47648925Y-32281877D01*
X47601306Y-32186639D01*
X47553687Y-32139020D01*
X47458449Y-32091401D01*
X59920163Y-44442163D02*
X59967782Y-44394544D01*
X60015401Y-44251687D01*
X60015401Y-44156449D01*
X59967782Y-44013591D01*
X59872544Y-43918353D01*
X59777306Y-43870734D01*
X59586830Y-43823115D01*
X59443972Y-43823115D01*
X59253496Y-43870734D01*
X59158258Y-43918353D01*
X59063020Y-44013591D01*
X59015401Y-44156449D01*
X59015401Y-44251687D01*
X59063020Y-44394544D01*
X59110639Y-44442163D01*
X59348734Y-45299306D02*
X60015401Y-45299306D01*
X58967782Y-45061210D02*
X59682068Y-44823115D01*
X59682068Y-45442163D01*
X60015401Y-46346925D02*
X60015401Y-45775496D01*
X60015401Y-46061210D02*
X59015401Y-46061210D01*
X59158258Y-45965972D01*
X59253496Y-45870734D01*
X59301115Y-45775496D01*
X32869163Y-24630163D02*
X32916782Y-24582544D01*
X32964401Y-24439687D01*
X32964401Y-24344449D01*
X32916782Y-24201591D01*
X32821544Y-24106353D01*
X32726306Y-24058734D01*
X32535830Y-24011115D01*
X32392972Y-24011115D01*
X32202496Y-24058734D01*
X32107258Y-24106353D01*
X32012020Y-24201591D01*
X31964401Y-24344449D01*
X31964401Y-24439687D01*
X32012020Y-24582544D01*
X32059639Y-24630163D01*
X32297734Y-25487306D02*
X32964401Y-25487306D01*
X31916782Y-25249210D02*
X32631068Y-25011115D01*
X32631068Y-25630163D01*
X32059639Y-25963496D02*
X32012020Y-26011115D01*
X31964401Y-26106353D01*
X31964401Y-26344449D01*
X32012020Y-26439687D01*
X32059639Y-26487306D01*
X32154877Y-26534925D01*
X32250115Y-26534925D01*
X32392972Y-26487306D01*
X32964401Y-25915877D01*
X32964401Y-26534925D01*
X26265163Y-53205163D02*
X26312782Y-53157544D01*
X26360401Y-53014687D01*
X26360401Y-52919449D01*
X26312782Y-52776591D01*
X26217544Y-52681353D01*
X26122306Y-52633734D01*
X25931830Y-52586115D01*
X25788972Y-52586115D01*
X25598496Y-52633734D01*
X25503258Y-52681353D01*
X25408020Y-52776591D01*
X25360401Y-52919449D01*
X25360401Y-53014687D01*
X25408020Y-53157544D01*
X25455639Y-53205163D01*
X25693734Y-54062306D02*
X26360401Y-54062306D01*
X25312782Y-53824210D02*
X26027068Y-53586115D01*
X26027068Y-54205163D01*
X25360401Y-54490877D02*
X25360401Y-55109925D01*
X25741353Y-54776591D01*
X25741353Y-54919449D01*
X25788972Y-55014687D01*
X25836591Y-55062306D01*
X25931830Y-55109925D01*
X26169925Y-55109925D01*
X26265163Y-55062306D01*
X26312782Y-55014687D01*
X26360401Y-54919449D01*
X26360401Y-54633734D01*
X26312782Y-54538496D01*
X26265163Y-54490877D01*
X24741163Y-42537163D02*
X24788782Y-42489544D01*
X24836401Y-42346687D01*
X24836401Y-42251449D01*
X24788782Y-42108591D01*
X24693544Y-42013353D01*
X24598306Y-41965734D01*
X24407830Y-41918115D01*
X24264972Y-41918115D01*
X24074496Y-41965734D01*
X23979258Y-42013353D01*
X23884020Y-42108591D01*
X23836401Y-42251449D01*
X23836401Y-42346687D01*
X23884020Y-42489544D01*
X23931639Y-42537163D01*
X24169734Y-43394306D02*
X24836401Y-43394306D01*
X23788782Y-43156210D02*
X24503068Y-42918115D01*
X24503068Y-43537163D01*
X23836401Y-44394306D02*
X23836401Y-43918115D01*
X24312591Y-43870496D01*
X24264972Y-43918115D01*
X24217353Y-44013353D01*
X24217353Y-44251449D01*
X24264972Y-44346687D01*
X24312591Y-44394306D01*
X24407830Y-44441925D01*
X24645925Y-44441925D01*
X24741163Y-44394306D01*
X24788782Y-44346687D01*
X24836401Y-44251449D01*
X24836401Y-44013353D01*
X24788782Y-43918115D01*
X24741163Y-43870496D01*
X16517877Y-38203163D02*
X16565496Y-38250782D01*
X16708353Y-38298401D01*
X16803591Y-38298401D01*
X16946449Y-38250782D01*
X17041687Y-38155544D01*
X17089306Y-38060306D01*
X17136925Y-37869830D01*
X17136925Y-37726972D01*
X17089306Y-37536496D01*
X17041687Y-37441258D01*
X16946449Y-37346020D01*
X16803591Y-37298401D01*
X16708353Y-37298401D01*
X16565496Y-37346020D01*
X16517877Y-37393639D01*
X15660734Y-37631734D02*
X15660734Y-38298401D01*
X15898830Y-37250782D02*
X16136925Y-37965068D01*
X15517877Y-37965068D01*
X14708353Y-37298401D02*
X14898830Y-37298401D01*
X14994068Y-37346020D01*
X15041687Y-37393639D01*
X15136925Y-37536496D01*
X15184544Y-37726972D01*
X15184544Y-38107925D01*
X15136925Y-38203163D01*
X15089306Y-38250782D01*
X14994068Y-38298401D01*
X14803591Y-38298401D01*
X14708353Y-38250782D01*
X14660734Y-38203163D01*
X14613115Y-38107925D01*
X14613115Y-37869830D01*
X14660734Y-37774591D01*
X14708353Y-37726972D01*
X14803591Y-37679353D01*
X14994068Y-37679353D01*
X15089306Y-37726972D01*
X15136925Y-37774591D01*
X15184544Y-37869830D01*
X68206877Y-19153163D02*
X68254496Y-19200782D01*
X68397353Y-19248401D01*
X68492591Y-19248401D01*
X68635449Y-19200782D01*
X68730687Y-19105544D01*
X68778306Y-19010306D01*
X68825925Y-18819830D01*
X68825925Y-18676972D01*
X68778306Y-18486496D01*
X68730687Y-18391258D01*
X68635449Y-18296020D01*
X68492591Y-18248401D01*
X68397353Y-18248401D01*
X68254496Y-18296020D01*
X68206877Y-18343639D01*
X67302115Y-18248401D02*
X67778306Y-18248401D01*
X67825925Y-18724591D01*
X67778306Y-18676972D01*
X67683068Y-18629353D01*
X67444972Y-18629353D01*
X67349734Y-18676972D01*
X67302115Y-18724591D01*
X67254496Y-18819830D01*
X67254496Y-19057925D01*
X67302115Y-19153163D01*
X67349734Y-19200782D01*
X67444972Y-19248401D01*
X67683068Y-19248401D01*
X67778306Y-19200782D01*
X67825925Y-19153163D01*
X66349734Y-18248401D02*
X66825925Y-18248401D01*
X66873544Y-18724591D01*
X66825925Y-18676972D01*
X66730687Y-18629353D01*
X66492591Y-18629353D01*
X66397353Y-18676972D01*
X66349734Y-18724591D01*
X66302115Y-18819830D01*
X66302115Y-19057925D01*
X66349734Y-19153163D01*
X66397353Y-19200782D01*
X66492591Y-19248401D01*
X66730687Y-19248401D01*
X66825925Y-19200782D01*
X66873544Y-19153163D01*
X12072877Y-6580163D02*
X12120496Y-6627782D01*
X12263353Y-6675401D01*
X12358591Y-6675401D01*
X12501449Y-6627782D01*
X12596687Y-6532544D01*
X12644306Y-6437306D01*
X12691925Y-6246830D01*
X12691925Y-6103972D01*
X12644306Y-5913496D01*
X12596687Y-5818258D01*
X12501449Y-5723020D01*
X12358591Y-5675401D01*
X12263353Y-5675401D01*
X12120496Y-5723020D01*
X12072877Y-5770639D01*
X11168115Y-5675401D02*
X11644306Y-5675401D01*
X11691925Y-6151591D01*
X11644306Y-6103972D01*
X11549068Y-6056353D01*
X11310972Y-6056353D01*
X11215734Y-6103972D01*
X11168115Y-6151591D01*
X11120496Y-6246830D01*
X11120496Y-6484925D01*
X11168115Y-6580163D01*
X11215734Y-6627782D01*
X11310972Y-6675401D01*
X11549068Y-6675401D01*
X11644306Y-6627782D01*
X11691925Y-6580163D01*
X10263353Y-5675401D02*
X10453830Y-5675401D01*
X10549068Y-5723020D01*
X10596687Y-5770639D01*
X10691925Y-5913496D01*
X10739544Y-6103972D01*
X10739544Y-6484925D01*
X10691925Y-6580163D01*
X10644306Y-6627782D01*
X10549068Y-6675401D01*
X10358591Y-6675401D01*
X10263353Y-6627782D01*
X10215734Y-6580163D01*
X10168115Y-6484925D01*
X10168115Y-6246830D01*
X10215734Y-6151591D01*
X10263353Y-6103972D01*
X10358591Y-6056353D01*
X10549068Y-6056353D01*
X10644306Y-6103972D01*
X10691925Y-6151591D01*
X10739544Y-6246830D01*
X112529877Y-31853163D02*
X112577496Y-31900782D01*
X112720353Y-31948401D01*
X112815591Y-31948401D01*
X112958449Y-31900782D01*
X113053687Y-31805544D01*
X113101306Y-31710306D01*
X113148925Y-31519830D01*
X113148925Y-31376972D01*
X113101306Y-31186496D01*
X113053687Y-31091258D01*
X112958449Y-30996020D01*
X112815591Y-30948401D01*
X112720353Y-30948401D01*
X112577496Y-30996020D01*
X112529877Y-31043639D01*
X111625115Y-30948401D02*
X112101306Y-30948401D01*
X112148925Y-31424591D01*
X112101306Y-31376972D01*
X112006068Y-31329353D01*
X111767972Y-31329353D01*
X111672734Y-31376972D01*
X111625115Y-31424591D01*
X111577496Y-31519830D01*
X111577496Y-31757925D01*
X111625115Y-31853163D01*
X111672734Y-31900782D01*
X111767972Y-31948401D01*
X112006068Y-31948401D01*
X112101306Y-31900782D01*
X112148925Y-31853163D01*
X111101306Y-31948401D02*
X110910830Y-31948401D01*
X110815591Y-31900782D01*
X110767972Y-31853163D01*
X110672734Y-31710306D01*
X110625115Y-31519830D01*
X110625115Y-31138877D01*
X110672734Y-31043639D01*
X110720353Y-30996020D01*
X110815591Y-30948401D01*
X111006068Y-30948401D01*
X111101306Y-30996020D01*
X111148925Y-31043639D01*
X111196544Y-31138877D01*
X111196544Y-31376972D01*
X111148925Y-31472210D01*
X111101306Y-31519830D01*
X111006068Y-31567449D01*
X110815591Y-31567449D01*
X110720353Y-31519830D01*
X110672734Y-31472210D01*
X110625115Y-31376972D01*
X90400163Y-21074163D02*
X90447782Y-21026544D01*
X90495401Y-20883687D01*
X90495401Y-20788449D01*
X90447782Y-20645591D01*
X90352544Y-20550353D01*
X90257306Y-20502734D01*
X90066830Y-20455115D01*
X89923972Y-20455115D01*
X89733496Y-20502734D01*
X89638258Y-20550353D01*
X89543020Y-20645591D01*
X89495401Y-20788449D01*
X89495401Y-20883687D01*
X89543020Y-21026544D01*
X89590639Y-21074163D01*
X89495401Y-21407496D02*
X89495401Y-22074163D01*
X90495401Y-21645591D01*
X89828734Y-22883687D02*
X90495401Y-22883687D01*
X89447782Y-22645591D02*
X90162068Y-22407496D01*
X90162068Y-23026544D01*
X93606877Y-62714163D02*
X93654496Y-62761782D01*
X93797353Y-62809401D01*
X93892591Y-62809401D01*
X94035449Y-62761782D01*
X94130687Y-62666544D01*
X94178306Y-62571306D01*
X94225925Y-62380830D01*
X94225925Y-62237972D01*
X94178306Y-62047496D01*
X94130687Y-61952258D01*
X94035449Y-61857020D01*
X93892591Y-61809401D01*
X93797353Y-61809401D01*
X93654496Y-61857020D01*
X93606877Y-61904639D01*
X93035449Y-62237972D02*
X93130687Y-62190353D01*
X93178306Y-62142734D01*
X93225925Y-62047496D01*
X93225925Y-61999877D01*
X93178306Y-61904639D01*
X93130687Y-61857020D01*
X93035449Y-61809401D01*
X92844972Y-61809401D01*
X92749734Y-61857020D01*
X92702115Y-61904639D01*
X92654496Y-61999877D01*
X92654496Y-62047496D01*
X92702115Y-62142734D01*
X92749734Y-62190353D01*
X92844972Y-62237972D01*
X93035449Y-62237972D01*
X93130687Y-62285591D01*
X93178306Y-62333210D01*
X93225925Y-62428449D01*
X93225925Y-62618925D01*
X93178306Y-62714163D01*
X93130687Y-62761782D01*
X93035449Y-62809401D01*
X92844972Y-62809401D01*
X92749734Y-62761782D01*
X92702115Y-62714163D01*
X92654496Y-62618925D01*
X92654496Y-62428449D01*
X92702115Y-62333210D01*
X92749734Y-62285591D01*
X92844972Y-62237972D01*
X92273544Y-61904639D02*
X92225925Y-61857020D01*
X92130687Y-61809401D01*
X91892591Y-61809401D01*
X91797353Y-61857020D01*
X91749734Y-61904639D01*
X91702115Y-61999877D01*
X91702115Y-62095115D01*
X91749734Y-62237972D01*
X92321163Y-62809401D01*
X91702115Y-62809401D01*
X95130877Y-57126163D02*
X95178496Y-57173782D01*
X95321353Y-57221401D01*
X95416591Y-57221401D01*
X95559449Y-57173782D01*
X95654687Y-57078544D01*
X95702306Y-56983306D01*
X95749925Y-56792830D01*
X95749925Y-56649972D01*
X95702306Y-56459496D01*
X95654687Y-56364258D01*
X95559449Y-56269020D01*
X95416591Y-56221401D01*
X95321353Y-56221401D01*
X95178496Y-56269020D01*
X95130877Y-56316639D01*
X94559449Y-56649972D02*
X94654687Y-56602353D01*
X94702306Y-56554734D01*
X94749925Y-56459496D01*
X94749925Y-56411877D01*
X94702306Y-56316639D01*
X94654687Y-56269020D01*
X94559449Y-56221401D01*
X94368972Y-56221401D01*
X94273734Y-56269020D01*
X94226115Y-56316639D01*
X94178496Y-56411877D01*
X94178496Y-56459496D01*
X94226115Y-56554734D01*
X94273734Y-56602353D01*
X94368972Y-56649972D01*
X94559449Y-56649972D01*
X94654687Y-56697591D01*
X94702306Y-56745210D01*
X94749925Y-56840449D01*
X94749925Y-57030925D01*
X94702306Y-57126163D01*
X94654687Y-57173782D01*
X94559449Y-57221401D01*
X94368972Y-57221401D01*
X94273734Y-57173782D01*
X94226115Y-57126163D01*
X94178496Y-57030925D01*
X94178496Y-56840449D01*
X94226115Y-56745210D01*
X94273734Y-56697591D01*
X94368972Y-56649972D01*
X93845163Y-56221401D02*
X93226115Y-56221401D01*
X93559449Y-56602353D01*
X93416591Y-56602353D01*
X93321353Y-56649972D01*
X93273734Y-56697591D01*
X93226115Y-56792830D01*
X93226115Y-57030925D01*
X93273734Y-57126163D01*
X93321353Y-57173782D01*
X93416591Y-57221401D01*
X93702306Y-57221401D01*
X93797544Y-57173782D01*
X93845163Y-57126163D01*
X80494163Y-31234163D02*
X80541782Y-31186544D01*
X80589401Y-31043687D01*
X80589401Y-30948449D01*
X80541782Y-30805591D01*
X80446544Y-30710353D01*
X80351306Y-30662734D01*
X80160830Y-30615115D01*
X80017972Y-30615115D01*
X79827496Y-30662734D01*
X79732258Y-30710353D01*
X79637020Y-30805591D01*
X79589401Y-30948449D01*
X79589401Y-31043687D01*
X79637020Y-31186544D01*
X79684639Y-31234163D01*
X80017972Y-31805591D02*
X79970353Y-31710353D01*
X79922734Y-31662734D01*
X79827496Y-31615115D01*
X79779877Y-31615115D01*
X79684639Y-31662734D01*
X79637020Y-31710353D01*
X79589401Y-31805591D01*
X79589401Y-31996068D01*
X79637020Y-32091306D01*
X79684639Y-32138925D01*
X79779877Y-32186544D01*
X79827496Y-32186544D01*
X79922734Y-32138925D01*
X79970353Y-32091306D01*
X80017972Y-31996068D01*
X80017972Y-31805591D01*
X80065591Y-31710353D01*
X80113210Y-31662734D01*
X80208449Y-31615115D01*
X80398925Y-31615115D01*
X80494163Y-31662734D01*
X80541782Y-31710353D01*
X80589401Y-31805591D01*
X80589401Y-31996068D01*
X80541782Y-32091306D01*
X80494163Y-32138925D01*
X80398925Y-32186544D01*
X80208449Y-32186544D01*
X80113210Y-32138925D01*
X80065591Y-32091306D01*
X80017972Y-31996068D01*
X79922734Y-33043687D02*
X80589401Y-33043687D01*
X79541782Y-32805591D02*
X80256068Y-32567496D01*
X80256068Y-33186544D01*
X49537877Y-50649163D02*
X49585496Y-50696782D01*
X49728353Y-50744401D01*
X49823591Y-50744401D01*
X49966449Y-50696782D01*
X50061687Y-50601544D01*
X50109306Y-50506306D01*
X50156925Y-50315830D01*
X50156925Y-50172972D01*
X50109306Y-49982496D01*
X50061687Y-49887258D01*
X49966449Y-49792020D01*
X49823591Y-49744401D01*
X49728353Y-49744401D01*
X49585496Y-49792020D01*
X49537877Y-49839639D01*
X49061687Y-50744401D02*
X48871211Y-50744401D01*
X48775972Y-50696782D01*
X48728353Y-50649163D01*
X48633115Y-50506306D01*
X48585496Y-50315830D01*
X48585496Y-49934877D01*
X48633115Y-49839639D01*
X48680734Y-49792020D01*
X48775972Y-49744401D01*
X48966449Y-49744401D01*
X49061687Y-49792020D01*
X49109306Y-49839639D01*
X49156925Y-49934877D01*
X49156925Y-50172972D01*
X49109306Y-50268210D01*
X49061687Y-50315830D01*
X48966449Y-50363449D01*
X48775972Y-50363449D01*
X48680734Y-50315830D01*
X48633115Y-50268210D01*
X48585496Y-50172972D01*
X48204544Y-49839639D02*
X48156925Y-49792020D01*
X48061687Y-49744401D01*
X47823591Y-49744401D01*
X47728353Y-49792020D01*
X47680734Y-49839639D01*
X47633115Y-49934877D01*
X47633115Y-50030115D01*
X47680734Y-50172972D01*
X48252163Y-50744401D01*
X47633115Y-50744401D01*
X40520877Y-75795163D02*
X40568496Y-75842782D01*
X40711353Y-75890401D01*
X40806591Y-75890401D01*
X40949449Y-75842782D01*
X41044687Y-75747544D01*
X41092306Y-75652306D01*
X41139925Y-75461830D01*
X41139925Y-75318972D01*
X41092306Y-75128496D01*
X41044687Y-75033258D01*
X40949449Y-74938020D01*
X40806591Y-74890401D01*
X40711353Y-74890401D01*
X40568496Y-74938020D01*
X40520877Y-74985639D01*
X40044687Y-75890401D02*
X39854211Y-75890401D01*
X39758972Y-75842782D01*
X39711353Y-75795163D01*
X39616115Y-75652306D01*
X39568496Y-75461830D01*
X39568496Y-75080877D01*
X39616115Y-74985639D01*
X39663734Y-74938020D01*
X39758972Y-74890401D01*
X39949449Y-74890401D01*
X40044687Y-74938020D01*
X40092306Y-74985639D01*
X40139925Y-75080877D01*
X40139925Y-75318972D01*
X40092306Y-75414210D01*
X40044687Y-75461830D01*
X39949449Y-75509449D01*
X39758972Y-75509449D01*
X39663734Y-75461830D01*
X39616115Y-75414210D01*
X39568496Y-75318972D01*
X39235163Y-74890401D02*
X38616115Y-74890401D01*
X38949449Y-75271353D01*
X38806591Y-75271353D01*
X38711353Y-75318972D01*
X38663734Y-75366591D01*
X38616115Y-75461830D01*
X38616115Y-75699925D01*
X38663734Y-75795163D01*
X38711353Y-75842782D01*
X38806591Y-75890401D01*
X39092306Y-75890401D01*
X39187544Y-75842782D01*
X39235163Y-75795163D01*
X62714163Y-74287163D02*
X62761782Y-74239544D01*
X62809401Y-74096687D01*
X62809401Y-74001449D01*
X62761782Y-73858591D01*
X62666544Y-73763353D01*
X62571306Y-73715734D01*
X62380830Y-73668115D01*
X62237972Y-73668115D01*
X62047496Y-73715734D01*
X61952258Y-73763353D01*
X61857020Y-73858591D01*
X61809401Y-74001449D01*
X61809401Y-74096687D01*
X61857020Y-74239544D01*
X61904639Y-74287163D01*
X62809401Y-74763353D02*
X62809401Y-74953829D01*
X62761782Y-75049068D01*
X62714163Y-75096687D01*
X62571306Y-75191925D01*
X62380830Y-75239544D01*
X61999877Y-75239544D01*
X61904639Y-75191925D01*
X61857020Y-75144306D01*
X61809401Y-75049068D01*
X61809401Y-74858591D01*
X61857020Y-74763353D01*
X61904639Y-74715734D01*
X61999877Y-74668115D01*
X62237972Y-74668115D01*
X62333210Y-74715734D01*
X62380830Y-74763353D01*
X62428449Y-74858591D01*
X62428449Y-75049068D01*
X62380830Y-75144306D01*
X62333210Y-75191925D01*
X62237972Y-75239544D01*
X62142734Y-76096687D02*
X62809401Y-76096687D01*
X61761782Y-75858591D02*
X62476068Y-75620496D01*
X62476068Y-76239544D01*
X59812877Y-77803163D02*
X59860496Y-77850782D01*
X60003353Y-77898401D01*
X60098591Y-77898401D01*
X60241449Y-77850782D01*
X60336687Y-77755544D01*
X60384306Y-77660306D01*
X60431925Y-77469830D01*
X60431925Y-77326972D01*
X60384306Y-77136496D01*
X60336687Y-77041258D01*
X60241449Y-76946020D01*
X60098591Y-76898401D01*
X60003353Y-76898401D01*
X59860496Y-76946020D01*
X59812877Y-76993639D01*
X59336687Y-77898401D02*
X59146211Y-77898401D01*
X59050972Y-77850782D01*
X59003353Y-77803163D01*
X58908115Y-77660306D01*
X58860496Y-77469830D01*
X58860496Y-77088877D01*
X58908115Y-76993639D01*
X58955734Y-76946020D01*
X59050972Y-76898401D01*
X59241449Y-76898401D01*
X59336687Y-76946020D01*
X59384306Y-76993639D01*
X59431925Y-77088877D01*
X59431925Y-77326972D01*
X59384306Y-77422210D01*
X59336687Y-77469830D01*
X59241449Y-77517449D01*
X59050972Y-77517449D01*
X58955734Y-77469830D01*
X58908115Y-77422210D01*
X58860496Y-77326972D01*
X57955734Y-76898401D02*
X58431925Y-76898401D01*
X58479544Y-77374591D01*
X58431925Y-77326972D01*
X58336687Y-77279353D01*
X58098591Y-77279353D01*
X58003353Y-77326972D01*
X57955734Y-77374591D01*
X57908115Y-77469830D01*
X57908115Y-77707925D01*
X57955734Y-77803163D01*
X58003353Y-77850782D01*
X58098591Y-77898401D01*
X58336687Y-77898401D01*
X58431925Y-77850782D01*
X58479544Y-77803163D01*
X67222401Y-76477925D02*
X66222401Y-76477925D01*
X66222401Y-76716020D01*
X66270020Y-76858878D01*
X66365258Y-76954116D01*
X66460496Y-77001735D01*
X66650972Y-77049354D01*
X66793830Y-77049354D01*
X66984306Y-77001735D01*
X67079544Y-76954116D01*
X67174782Y-76858878D01*
X67222401Y-76716020D01*
X67222401Y-76477925D01*
X66555734Y-77906497D02*
X67222401Y-77906497D01*
X66174782Y-77668401D02*
X66889068Y-77430306D01*
X66889068Y-78049354D01*
X53411306Y-42997401D02*
X53411306Y-41997401D01*
X53173211Y-41997401D01*
X53030353Y-42045020D01*
X52935115Y-42140258D01*
X52887496Y-42235496D01*
X52839877Y-42425972D01*
X52839877Y-42568830D01*
X52887496Y-42759306D01*
X52935115Y-42854544D01*
X53030353Y-42949782D01*
X53173211Y-42997401D01*
X53411306Y-42997401D01*
X51887496Y-42997401D02*
X52458925Y-42997401D01*
X52173211Y-42997401D02*
X52173211Y-41997401D01*
X52268449Y-42140258D01*
X52363687Y-42235496D01*
X52458925Y-42283115D01*
X51506544Y-42092639D02*
X51458925Y-42045020D01*
X51363687Y-41997401D01*
X51125591Y-41997401D01*
X51030353Y-42045020D01*
X50982734Y-42092639D01*
X50935115Y-42187877D01*
X50935115Y-42283115D01*
X50982734Y-42425972D01*
X51554163Y-42997401D01*
X50935115Y-42997401D01*
X36743783Y-38644642D02*
X37165546Y-38644642D01*
X37165546Y-39307413D02*
X37165546Y-38042123D01*
X36563027Y-38042123D01*
X35418242Y-39307413D02*
X36141264Y-39307413D01*
X35779753Y-39307413D02*
X35779753Y-38042123D01*
X35900257Y-38222879D01*
X36020761Y-38343383D01*
X36141264Y-38403635D01*
X8041783Y-20737642D02*
X8463546Y-20737642D01*
X8463546Y-21400413D02*
X8463546Y-20135123D01*
X7861027Y-20135123D01*
X7439264Y-20255627D02*
X7379012Y-20195375D01*
X7258509Y-20135123D01*
X6957249Y-20135123D01*
X6836745Y-20195375D01*
X6776493Y-20255627D01*
X6716242Y-20376131D01*
X6716242Y-20496635D01*
X6776493Y-20677390D01*
X7499516Y-21400413D01*
X6716242Y-21400413D01*
X74007819Y-70262782D02*
X73960200Y-70167544D01*
X73864962Y-70072306D01*
X73722105Y-69929449D01*
X73674486Y-69834210D01*
X73674486Y-69738972D01*
X73912581Y-69786591D02*
X73864962Y-69691353D01*
X73769724Y-69596115D01*
X73579248Y-69548496D01*
X73245914Y-69548496D01*
X73055438Y-69596115D01*
X72960200Y-69691353D01*
X72912581Y-69786591D01*
X72912581Y-69977068D01*
X72960200Y-70072306D01*
X73055438Y-70167544D01*
X73245914Y-70215163D01*
X73579248Y-70215163D01*
X73769724Y-70167544D01*
X73864962Y-70072306D01*
X73912581Y-69977068D01*
X73912581Y-69786591D01*
X73007819Y-70596115D02*
X72960200Y-70643734D01*
X72912581Y-70738972D01*
X72912581Y-70977068D01*
X72960200Y-71072306D01*
X73007819Y-71119925D01*
X73103057Y-71167544D01*
X73198295Y-71167544D01*
X73341152Y-71119925D01*
X73912581Y-70548496D01*
X73912581Y-71167544D01*
X54832258Y-49188639D02*
X54927496Y-49141020D01*
X55022734Y-49045782D01*
X55165591Y-48902925D01*
X55260830Y-48855306D01*
X55356068Y-48855306D01*
X55308449Y-49093401D02*
X55403687Y-49045782D01*
X55498925Y-48950544D01*
X55546544Y-48760068D01*
X55546544Y-48426734D01*
X55498925Y-48236258D01*
X55403687Y-48141020D01*
X55308449Y-48093401D01*
X55117972Y-48093401D01*
X55022734Y-48141020D01*
X54927496Y-48236258D01*
X54879877Y-48426734D01*
X54879877Y-48760068D01*
X54927496Y-48950544D01*
X55022734Y-49045782D01*
X55117972Y-49093401D01*
X55308449Y-49093401D01*
X54546544Y-48093401D02*
X53879877Y-48093401D01*
X54308449Y-49093401D01*
X21304258Y-87415639D02*
X21399496Y-87368020D01*
X21494734Y-87272782D01*
X21637591Y-87129925D01*
X21732830Y-87082306D01*
X21828068Y-87082306D01*
X21780449Y-87320401D02*
X21875687Y-87272782D01*
X21970925Y-87177544D01*
X22018544Y-86987068D01*
X22018544Y-86653734D01*
X21970925Y-86463258D01*
X21875687Y-86368020D01*
X21780449Y-86320401D01*
X21589972Y-86320401D01*
X21494734Y-86368020D01*
X21399496Y-86463258D01*
X21351877Y-86653734D01*
X21351877Y-86987068D01*
X21399496Y-87177544D01*
X21494734Y-87272782D01*
X21589972Y-87320401D01*
X21780449Y-87320401D01*
X20780449Y-86748972D02*
X20875687Y-86701353D01*
X20923306Y-86653734D01*
X20970925Y-86558496D01*
X20970925Y-86510877D01*
X20923306Y-86415639D01*
X20875687Y-86368020D01*
X20780449Y-86320401D01*
X20589972Y-86320401D01*
X20494734Y-86368020D01*
X20447115Y-86415639D01*
X20399496Y-86510877D01*
X20399496Y-86558496D01*
X20447115Y-86653734D01*
X20494734Y-86701353D01*
X20589972Y-86748972D01*
X20780449Y-86748972D01*
X20875687Y-86796591D01*
X20923306Y-86844210D01*
X20970925Y-86939449D01*
X20970925Y-87129925D01*
X20923306Y-87225163D01*
X20875687Y-87272782D01*
X20780449Y-87320401D01*
X20589972Y-87320401D01*
X20494734Y-87272782D01*
X20447115Y-87225163D01*
X20399496Y-87129925D01*
X20399496Y-86939449D01*
X20447115Y-86844210D01*
X20494734Y-86796591D01*
X20589972Y-86748972D01*
X13684258Y-87542639D02*
X13779496Y-87495020D01*
X13874734Y-87399782D01*
X14017591Y-87256925D01*
X14112830Y-87209306D01*
X14208068Y-87209306D01*
X14160449Y-87447401D02*
X14255687Y-87399782D01*
X14350925Y-87304544D01*
X14398544Y-87114068D01*
X14398544Y-86780734D01*
X14350925Y-86590258D01*
X14255687Y-86495020D01*
X14160449Y-86447401D01*
X13969972Y-86447401D01*
X13874734Y-86495020D01*
X13779496Y-86590258D01*
X13731877Y-86780734D01*
X13731877Y-87114068D01*
X13779496Y-87304544D01*
X13874734Y-87399782D01*
X13969972Y-87447401D01*
X14160449Y-87447401D01*
X13255687Y-87447401D02*
X13065211Y-87447401D01*
X12969972Y-87399782D01*
X12922353Y-87352163D01*
X12827115Y-87209306D01*
X12779496Y-87018830D01*
X12779496Y-86637877D01*
X12827115Y-86542639D01*
X12874734Y-86495020D01*
X12969972Y-86447401D01*
X13160449Y-86447401D01*
X13255687Y-86495020D01*
X13303306Y-86542639D01*
X13350925Y-86637877D01*
X13350925Y-86875972D01*
X13303306Y-86971210D01*
X13255687Y-87018830D01*
X13160449Y-87066449D01*
X12969972Y-87066449D01*
X12874734Y-87018830D01*
X12827115Y-86971210D01*
X12779496Y-86875972D01*
X6667448Y-87542639D02*
X6762686Y-87495020D01*
X6857924Y-87399782D01*
X7000781Y-87256925D01*
X7096020Y-87209306D01*
X7191258Y-87209306D01*
X7143639Y-87447401D02*
X7238877Y-87399782D01*
X7334115Y-87304544D01*
X7381734Y-87114068D01*
X7381734Y-86780734D01*
X7334115Y-86590258D01*
X7238877Y-86495020D01*
X7143639Y-86447401D01*
X6953162Y-86447401D01*
X6857924Y-86495020D01*
X6762686Y-86590258D01*
X6715067Y-86780734D01*
X6715067Y-87114068D01*
X6762686Y-87304544D01*
X6857924Y-87399782D01*
X6953162Y-87447401D01*
X7143639Y-87447401D01*
X5762686Y-87447401D02*
X6334115Y-87447401D01*
X6048401Y-87447401D02*
X6048401Y-86447401D01*
X6143639Y-86590258D01*
X6238877Y-86685496D01*
X6334115Y-86733115D01*
X5143639Y-86447401D02*
X5048400Y-86447401D01*
X4953162Y-86495020D01*
X4905543Y-86542639D01*
X4857924Y-86637877D01*
X4810305Y-86828353D01*
X4810305Y-87066449D01*
X4857924Y-87256925D01*
X4905543Y-87352163D01*
X4953162Y-87399782D01*
X5048400Y-87447401D01*
X5143639Y-87447401D01*
X5238877Y-87399782D01*
X5286496Y-87352163D01*
X5334115Y-87256925D01*
X5381734Y-87066449D01*
X5381734Y-86828353D01*
X5334115Y-86637877D01*
X5286496Y-86542639D01*
X5238877Y-86495020D01*
X5143639Y-86447401D01*
X31432448Y-84367639D02*
X31527686Y-84320020D01*
X31622924Y-84224782D01*
X31765781Y-84081925D01*
X31861020Y-84034306D01*
X31956258Y-84034306D01*
X31908639Y-84272401D02*
X32003877Y-84224782D01*
X32099115Y-84129544D01*
X32146734Y-83939068D01*
X32146734Y-83605734D01*
X32099115Y-83415258D01*
X32003877Y-83320020D01*
X31908639Y-83272401D01*
X31718162Y-83272401D01*
X31622924Y-83320020D01*
X31527686Y-83415258D01*
X31480067Y-83605734D01*
X31480067Y-83939068D01*
X31527686Y-84129544D01*
X31622924Y-84224782D01*
X31718162Y-84272401D01*
X31908639Y-84272401D01*
X30527686Y-84272401D02*
X31099115Y-84272401D01*
X30813401Y-84272401D02*
X30813401Y-83272401D01*
X30908639Y-83415258D01*
X31003877Y-83510496D01*
X31099115Y-83558115D01*
X29575305Y-84272401D02*
X30146734Y-84272401D01*
X29861020Y-84272401D02*
X29861020Y-83272401D01*
X29956258Y-83415258D01*
X30051496Y-83510496D01*
X30146734Y-83558115D01*
X41314686Y-86939401D02*
X41648020Y-86463210D01*
X41886115Y-86939401D02*
X41886115Y-85939401D01*
X41505162Y-85939401D01*
X41409924Y-85987020D01*
X41362305Y-86034639D01*
X41314686Y-86129877D01*
X41314686Y-86272734D01*
X41362305Y-86367972D01*
X41409924Y-86415591D01*
X41505162Y-86463210D01*
X41886115Y-86463210D01*
X40457543Y-86272734D02*
X40457543Y-86939401D01*
X40695639Y-85891782D02*
X40933734Y-86606068D01*
X40314686Y-86606068D01*
X49696686Y-82240401D02*
X50030020Y-81764210D01*
X50268115Y-82240401D02*
X50268115Y-81240401D01*
X49887162Y-81240401D01*
X49791924Y-81288020D01*
X49744305Y-81335639D01*
X49696686Y-81430877D01*
X49696686Y-81573734D01*
X49744305Y-81668972D01*
X49791924Y-81716591D01*
X49887162Y-81764210D01*
X50268115Y-81764210D01*
X48791924Y-81240401D02*
X49268115Y-81240401D01*
X49315734Y-81716591D01*
X49268115Y-81668972D01*
X49172877Y-81621353D01*
X48934781Y-81621353D01*
X48839543Y-81668972D01*
X48791924Y-81716591D01*
X48744305Y-81811830D01*
X48744305Y-82049925D01*
X48791924Y-82145163D01*
X48839543Y-82192782D01*
X48934781Y-82240401D01*
X49172877Y-82240401D01*
X49268115Y-82192782D01*
X49315734Y-82145163D01*
X71254877Y-74747401D02*
X71588211Y-74271210D01*
X71826306Y-74747401D02*
X71826306Y-73747401D01*
X71445353Y-73747401D01*
X71350115Y-73795020D01*
X71302496Y-73842639D01*
X71254877Y-73937877D01*
X71254877Y-74080734D01*
X71302496Y-74175972D01*
X71350115Y-74223591D01*
X71445353Y-74271210D01*
X71826306Y-74271210D01*
X70302496Y-74747401D02*
X70873925Y-74747401D01*
X70588211Y-74747401D02*
X70588211Y-73747401D01*
X70683449Y-73890258D01*
X70778687Y-73985496D01*
X70873925Y-74033115D01*
X69683449Y-73747401D02*
X69588210Y-73747401D01*
X69492972Y-73795020D01*
X69445353Y-73842639D01*
X69397734Y-73937877D01*
X69350115Y-74128353D01*
X69350115Y-74366449D01*
X69397734Y-74556925D01*
X69445353Y-74652163D01*
X69492972Y-74699782D01*
X69588210Y-74747401D01*
X69683449Y-74747401D01*
X69778687Y-74699782D01*
X69826306Y-74652163D01*
X69873925Y-74556925D01*
X69921544Y-74366449D01*
X69921544Y-74128353D01*
X69873925Y-73937877D01*
X69826306Y-73842639D01*
X69778687Y-73795020D01*
X69683449Y-73747401D01*
X68143401Y-73398163D02*
X67667210Y-73064829D01*
X68143401Y-72826734D02*
X67143401Y-72826734D01*
X67143401Y-73207687D01*
X67191020Y-73302925D01*
X67238639Y-73350544D01*
X67333877Y-73398163D01*
X67476734Y-73398163D01*
X67571972Y-73350544D01*
X67619591Y-73302925D01*
X67667210Y-73207687D01*
X67667210Y-72826734D01*
X68143401Y-74350544D02*
X68143401Y-73779115D01*
X68143401Y-74064829D02*
X67143401Y-74064829D01*
X67286258Y-73969591D01*
X67381496Y-73874353D01*
X67429115Y-73779115D01*
X67238639Y-74731496D02*
X67191020Y-74779115D01*
X67143401Y-74874353D01*
X67143401Y-75112449D01*
X67191020Y-75207687D01*
X67238639Y-75255306D01*
X67333877Y-75302925D01*
X67429115Y-75302925D01*
X67571972Y-75255306D01*
X68143401Y-74683877D01*
X68143401Y-75302925D01*
X65222401Y-65651163D02*
X64746210Y-65317829D01*
X65222401Y-65079734D02*
X64222401Y-65079734D01*
X64222401Y-65460687D01*
X64270020Y-65555925D01*
X64317639Y-65603544D01*
X64412877Y-65651163D01*
X64555734Y-65651163D01*
X64650972Y-65603544D01*
X64698591Y-65555925D01*
X64746210Y-65460687D01*
X64746210Y-65079734D01*
X65222401Y-66603544D02*
X65222401Y-66032115D01*
X65222401Y-66317829D02*
X64222401Y-66317829D01*
X64365258Y-66222591D01*
X64460496Y-66127353D01*
X64508115Y-66032115D01*
X64222401Y-67508306D02*
X64222401Y-67032115D01*
X64698591Y-66984496D01*
X64650972Y-67032115D01*
X64603353Y-67127353D01*
X64603353Y-67365449D01*
X64650972Y-67460687D01*
X64698591Y-67508306D01*
X64793830Y-67555925D01*
X65031925Y-67555925D01*
X65127163Y-67508306D01*
X65174782Y-67460687D01*
X65222401Y-67365449D01*
X65222401Y-67127353D01*
X65174782Y-67032115D01*
X65127163Y-66984496D01*
X54363877Y-90368401D02*
X54697211Y-89892210D01*
X54935306Y-90368401D02*
X54935306Y-89368401D01*
X54554353Y-89368401D01*
X54459115Y-89416020D01*
X54411496Y-89463639D01*
X54363877Y-89558877D01*
X54363877Y-89701734D01*
X54411496Y-89796972D01*
X54459115Y-89844591D01*
X54554353Y-89892210D01*
X54935306Y-89892210D01*
X53411496Y-90368401D02*
X53982925Y-90368401D01*
X53697211Y-90368401D02*
X53697211Y-89368401D01*
X53792449Y-89511258D01*
X53887687Y-89606496D01*
X53982925Y-89654115D01*
X52554353Y-89368401D02*
X52744830Y-89368401D01*
X52840068Y-89416020D01*
X52887687Y-89463639D01*
X52982925Y-89606496D01*
X53030544Y-89796972D01*
X53030544Y-90177925D01*
X52982925Y-90273163D01*
X52935306Y-90320782D01*
X52840068Y-90368401D01*
X52649591Y-90368401D01*
X52554353Y-90320782D01*
X52506734Y-90273163D01*
X52459115Y-90177925D01*
X52459115Y-89939830D01*
X52506734Y-89844591D01*
X52554353Y-89796972D01*
X52649591Y-89749353D01*
X52840068Y-89749353D01*
X52935306Y-89796972D01*
X52982925Y-89844591D01*
X53030544Y-89939830D01*
X59380401Y-81018163D02*
X58904210Y-80684829D01*
X59380401Y-80446734D02*
X58380401Y-80446734D01*
X58380401Y-80827687D01*
X58428020Y-80922925D01*
X58475639Y-80970544D01*
X58570877Y-81018163D01*
X58713734Y-81018163D01*
X58808972Y-80970544D01*
X58856591Y-80922925D01*
X58904210Y-80827687D01*
X58904210Y-80446734D01*
X59380401Y-81970544D02*
X59380401Y-81399115D01*
X59380401Y-81684829D02*
X58380401Y-81684829D01*
X58523258Y-81589591D01*
X58618496Y-81494353D01*
X58666115Y-81399115D01*
X58380401Y-82303877D02*
X58380401Y-82970544D01*
X59380401Y-82541972D01*
X54363877Y-88971401D02*
X54697211Y-88495210D01*
X54935306Y-88971401D02*
X54935306Y-87971401D01*
X54554353Y-87971401D01*
X54459115Y-88019020D01*
X54411496Y-88066639D01*
X54363877Y-88161877D01*
X54363877Y-88304734D01*
X54411496Y-88399972D01*
X54459115Y-88447591D01*
X54554353Y-88495210D01*
X54935306Y-88495210D01*
X53411496Y-88971401D02*
X53982925Y-88971401D01*
X53697211Y-88971401D02*
X53697211Y-87971401D01*
X53792449Y-88114258D01*
X53887687Y-88209496D01*
X53982925Y-88257115D01*
X52840068Y-88399972D02*
X52935306Y-88352353D01*
X52982925Y-88304734D01*
X53030544Y-88209496D01*
X53030544Y-88161877D01*
X52982925Y-88066639D01*
X52935306Y-88019020D01*
X52840068Y-87971401D01*
X52649591Y-87971401D01*
X52554353Y-88019020D01*
X52506734Y-88066639D01*
X52459115Y-88161877D01*
X52459115Y-88209496D01*
X52506734Y-88304734D01*
X52554353Y-88352353D01*
X52649591Y-88399972D01*
X52840068Y-88399972D01*
X52935306Y-88447591D01*
X52982925Y-88495210D01*
X53030544Y-88590449D01*
X53030544Y-88780925D01*
X52982925Y-88876163D01*
X52935306Y-88923782D01*
X52840068Y-88971401D01*
X52649591Y-88971401D01*
X52554353Y-88923782D01*
X52506734Y-88876163D01*
X52459115Y-88780925D01*
X52459115Y-88590449D01*
X52506734Y-88495210D01*
X52554353Y-88447591D01*
X52649591Y-88399972D01*
X14739877Y-14422401D02*
X15073211Y-13946210D01*
X15311306Y-14422401D02*
X15311306Y-13422401D01*
X14930353Y-13422401D01*
X14835115Y-13470020D01*
X14787496Y-13517639D01*
X14739877Y-13612877D01*
X14739877Y-13755734D01*
X14787496Y-13850972D01*
X14835115Y-13898591D01*
X14930353Y-13946210D01*
X15311306Y-13946210D01*
X14358925Y-13517639D02*
X14311306Y-13470020D01*
X14216068Y-13422401D01*
X13977972Y-13422401D01*
X13882734Y-13470020D01*
X13835115Y-13517639D01*
X13787496Y-13612877D01*
X13787496Y-13708115D01*
X13835115Y-13850972D01*
X14406544Y-14422401D01*
X13787496Y-14422401D01*
X12930353Y-13422401D02*
X13120830Y-13422401D01*
X13216068Y-13470020D01*
X13263687Y-13517639D01*
X13358925Y-13660496D01*
X13406544Y-13850972D01*
X13406544Y-14231925D01*
X13358925Y-14327163D01*
X13311306Y-14374782D01*
X13216068Y-14422401D01*
X13025591Y-14422401D01*
X12930353Y-14374782D01*
X12882734Y-14327163D01*
X12835115Y-14231925D01*
X12835115Y-13993830D01*
X12882734Y-13898591D01*
X12930353Y-13850972D01*
X13025591Y-13803353D01*
X13216068Y-13803353D01*
X13311306Y-13850972D01*
X13358925Y-13898591D01*
X13406544Y-13993830D01*
X18549877Y-14391439D02*
X18883211Y-13915248D01*
X19121306Y-14391439D02*
X19121306Y-13391439D01*
X18740353Y-13391439D01*
X18645115Y-13439058D01*
X18597496Y-13486677D01*
X18549877Y-13581915D01*
X18549877Y-13724772D01*
X18597496Y-13820010D01*
X18645115Y-13867629D01*
X18740353Y-13915248D01*
X19121306Y-13915248D01*
X18168925Y-13486677D02*
X18121306Y-13439058D01*
X18026068Y-13391439D01*
X17787972Y-13391439D01*
X17692734Y-13439058D01*
X17645115Y-13486677D01*
X17597496Y-13581915D01*
X17597496Y-13677153D01*
X17645115Y-13820010D01*
X18216544Y-14391439D01*
X17597496Y-14391439D01*
X17026068Y-13820010D02*
X17121306Y-13772391D01*
X17168925Y-13724772D01*
X17216544Y-13629534D01*
X17216544Y-13581915D01*
X17168925Y-13486677D01*
X17121306Y-13439058D01*
X17026068Y-13391439D01*
X16835591Y-13391439D01*
X16740353Y-13439058D01*
X16692734Y-13486677D01*
X16645115Y-13581915D01*
X16645115Y-13629534D01*
X16692734Y-13724772D01*
X16740353Y-13772391D01*
X16835591Y-13820010D01*
X17026068Y-13820010D01*
X17121306Y-13867629D01*
X17168925Y-13915248D01*
X17216544Y-14010487D01*
X17216544Y-14200963D01*
X17168925Y-14296201D01*
X17121306Y-14343820D01*
X17026068Y-14391439D01*
X16835591Y-14391439D01*
X16740353Y-14343820D01*
X16692734Y-14296201D01*
X16645115Y-14200963D01*
X16645115Y-14010487D01*
X16692734Y-13915248D01*
X16740353Y-13867629D01*
X16835591Y-13820010D01*
X37486687Y-17724401D02*
X37820021Y-17248210D01*
X38058116Y-17724401D02*
X38058116Y-16724401D01*
X37677163Y-16724401D01*
X37581925Y-16772020D01*
X37534306Y-16819639D01*
X37486687Y-16914877D01*
X37486687Y-17057734D01*
X37534306Y-17152972D01*
X37581925Y-17200591D01*
X37677163Y-17248210D01*
X38058116Y-17248210D01*
X37153354Y-16724401D02*
X36534306Y-16724401D01*
X36867640Y-17105353D01*
X36724782Y-17105353D01*
X36629544Y-17152972D01*
X36581925Y-17200591D01*
X36534306Y-17295830D01*
X36534306Y-17533925D01*
X36581925Y-17629163D01*
X36629544Y-17676782D01*
X36724782Y-17724401D01*
X37010497Y-17724401D01*
X37105735Y-17676782D01*
X37153354Y-17629163D01*
X36200973Y-16724401D02*
X35581925Y-16724401D01*
X35915259Y-17105353D01*
X35772401Y-17105353D01*
X35677163Y-17152972D01*
X35629544Y-17200591D01*
X35581925Y-17295830D01*
X35581925Y-17533925D01*
X35629544Y-17629163D01*
X35677163Y-17676782D01*
X35772401Y-17724401D01*
X36058116Y-17724401D01*
X36153354Y-17676782D01*
X36200973Y-17629163D01*
X43949877Y-18232401D02*
X44283211Y-17756210D01*
X44521306Y-18232401D02*
X44521306Y-17232401D01*
X44140353Y-17232401D01*
X44045115Y-17280020D01*
X43997496Y-17327639D01*
X43949877Y-17422877D01*
X43949877Y-17565734D01*
X43997496Y-17660972D01*
X44045115Y-17708591D01*
X44140353Y-17756210D01*
X44521306Y-17756210D01*
X43616544Y-17232401D02*
X42997496Y-17232401D01*
X43330830Y-17613353D01*
X43187972Y-17613353D01*
X43092734Y-17660972D01*
X43045115Y-17708591D01*
X42997496Y-17803830D01*
X42997496Y-18041925D01*
X43045115Y-18137163D01*
X43092734Y-18184782D01*
X43187972Y-18232401D01*
X43473687Y-18232401D01*
X43568925Y-18184782D01*
X43616544Y-18137163D01*
X42140353Y-17565734D02*
X42140353Y-18232401D01*
X42378449Y-17184782D02*
X42616544Y-17899068D01*
X41997496Y-17899068D01*
X40647877Y-18232401D02*
X40981211Y-17756210D01*
X41219306Y-18232401D02*
X41219306Y-17232401D01*
X40838353Y-17232401D01*
X40743115Y-17280020D01*
X40695496Y-17327639D01*
X40647877Y-17422877D01*
X40647877Y-17565734D01*
X40695496Y-17660972D01*
X40743115Y-17708591D01*
X40838353Y-17756210D01*
X41219306Y-17756210D01*
X40314544Y-17232401D02*
X39695496Y-17232401D01*
X40028830Y-17613353D01*
X39885972Y-17613353D01*
X39790734Y-17660972D01*
X39743115Y-17708591D01*
X39695496Y-17803830D01*
X39695496Y-18041925D01*
X39743115Y-18137163D01*
X39790734Y-18184782D01*
X39885972Y-18232401D01*
X40171687Y-18232401D01*
X40266925Y-18184782D01*
X40314544Y-18137163D01*
X38838353Y-17232401D02*
X39028830Y-17232401D01*
X39124068Y-17280020D01*
X39171687Y-17327639D01*
X39266925Y-17470496D01*
X39314544Y-17660972D01*
X39314544Y-18041925D01*
X39266925Y-18137163D01*
X39219306Y-18184782D01*
X39124068Y-18232401D01*
X38933591Y-18232401D01*
X38838353Y-18184782D01*
X38790734Y-18137163D01*
X38743115Y-18041925D01*
X38743115Y-17803830D01*
X38790734Y-17708591D01*
X38838353Y-17660972D01*
X38933591Y-17613353D01*
X39124068Y-17613353D01*
X39219306Y-17660972D01*
X39266925Y-17708591D01*
X39314544Y-17803830D01*
X46870877Y-28773401D02*
X47204211Y-28297210D01*
X47442306Y-28773401D02*
X47442306Y-27773401D01*
X47061353Y-27773401D01*
X46966115Y-27821020D01*
X46918496Y-27868639D01*
X46870877Y-27963877D01*
X46870877Y-28106734D01*
X46918496Y-28201972D01*
X46966115Y-28249591D01*
X47061353Y-28297210D01*
X47442306Y-28297210D01*
X46537544Y-27773401D02*
X45918496Y-27773401D01*
X46251830Y-28154353D01*
X46108972Y-28154353D01*
X46013734Y-28201972D01*
X45966115Y-28249591D01*
X45918496Y-28344830D01*
X45918496Y-28582925D01*
X45966115Y-28678163D01*
X46013734Y-28725782D01*
X46108972Y-28773401D01*
X46394687Y-28773401D01*
X46489925Y-28725782D01*
X46537544Y-28678163D01*
X45442306Y-28773401D02*
X45251830Y-28773401D01*
X45156591Y-28725782D01*
X45108972Y-28678163D01*
X45013734Y-28535306D01*
X44966115Y-28344830D01*
X44966115Y-27963877D01*
X45013734Y-27868639D01*
X45061353Y-27821020D01*
X45156591Y-27773401D01*
X45347068Y-27773401D01*
X45442306Y-27821020D01*
X45489925Y-27868639D01*
X45537544Y-27963877D01*
X45537544Y-28201972D01*
X45489925Y-28297210D01*
X45442306Y-28344830D01*
X45347068Y-28392449D01*
X45156591Y-28392449D01*
X45061353Y-28344830D01*
X45013734Y-28297210D01*
X44966115Y-28201972D01*
X49728401Y-44696163D02*
X49252210Y-44362829D01*
X49728401Y-44124734D02*
X48728401Y-44124734D01*
X48728401Y-44505687D01*
X48776020Y-44600925D01*
X48823639Y-44648544D01*
X48918877Y-44696163D01*
X49061734Y-44696163D01*
X49156972Y-44648544D01*
X49204591Y-44600925D01*
X49252210Y-44505687D01*
X49252210Y-44124734D01*
X49061734Y-45553306D02*
X49728401Y-45553306D01*
X48680782Y-45315210D02*
X49395068Y-45077115D01*
X49395068Y-45696163D01*
X48728401Y-46267591D02*
X48728401Y-46362830D01*
X48776020Y-46458068D01*
X48823639Y-46505687D01*
X48918877Y-46553306D01*
X49109353Y-46600925D01*
X49347449Y-46600925D01*
X49537925Y-46553306D01*
X49633163Y-46505687D01*
X49680782Y-46458068D01*
X49728401Y-46362830D01*
X49728401Y-46267591D01*
X49680782Y-46172353D01*
X49633163Y-46124734D01*
X49537925Y-46077115D01*
X49347449Y-46029496D01*
X49109353Y-46029496D01*
X48918877Y-46077115D01*
X48823639Y-46124734D01*
X48776020Y-46172353D01*
X48728401Y-46267591D01*
X49156877Y-31567401D02*
X49490211Y-31091210D01*
X49728306Y-31567401D02*
X49728306Y-30567401D01*
X49347353Y-30567401D01*
X49252115Y-30615020D01*
X49204496Y-30662639D01*
X49156877Y-30757877D01*
X49156877Y-30900734D01*
X49204496Y-30995972D01*
X49252115Y-31043591D01*
X49347353Y-31091210D01*
X49728306Y-31091210D01*
X48299734Y-30900734D02*
X48299734Y-31567401D01*
X48537830Y-30519782D02*
X48775925Y-31234068D01*
X48156877Y-31234068D01*
X47252115Y-31567401D02*
X47823544Y-31567401D01*
X47537830Y-31567401D02*
X47537830Y-30567401D01*
X47633068Y-30710258D01*
X47728306Y-30805496D01*
X47823544Y-30853115D01*
X56522877Y-38171401D02*
X56856211Y-37695210D01*
X57094306Y-38171401D02*
X57094306Y-37171401D01*
X56713353Y-37171401D01*
X56618115Y-37219020D01*
X56570496Y-37266639D01*
X56522877Y-37361877D01*
X56522877Y-37504734D01*
X56570496Y-37599972D01*
X56618115Y-37647591D01*
X56713353Y-37695210D01*
X57094306Y-37695210D01*
X55665734Y-37504734D02*
X55665734Y-38171401D01*
X55903830Y-37123782D02*
X56141925Y-37838068D01*
X55522877Y-37838068D01*
X55189544Y-37266639D02*
X55141925Y-37219020D01*
X55046687Y-37171401D01*
X54808591Y-37171401D01*
X54713353Y-37219020D01*
X54665734Y-37266639D01*
X54618115Y-37361877D01*
X54618115Y-37457115D01*
X54665734Y-37599972D01*
X55237163Y-38171401D01*
X54618115Y-38171401D01*
X56522877Y-36774401D02*
X56856211Y-36298210D01*
X57094306Y-36774401D02*
X57094306Y-35774401D01*
X56713353Y-35774401D01*
X56618115Y-35822020D01*
X56570496Y-35869639D01*
X56522877Y-35964877D01*
X56522877Y-36107734D01*
X56570496Y-36202972D01*
X56618115Y-36250591D01*
X56713353Y-36298210D01*
X57094306Y-36298210D01*
X55665734Y-36107734D02*
X55665734Y-36774401D01*
X55903830Y-35726782D02*
X56141925Y-36441068D01*
X55522877Y-36441068D01*
X54665734Y-35774401D02*
X55141925Y-35774401D01*
X55189544Y-36250591D01*
X55141925Y-36202972D01*
X55046687Y-36155353D01*
X54808591Y-36155353D01*
X54713353Y-36202972D01*
X54665734Y-36250591D01*
X54618115Y-36345830D01*
X54618115Y-36583925D01*
X54665734Y-36679163D01*
X54713353Y-36726782D01*
X54808591Y-36774401D01*
X55046687Y-36774401D01*
X55141925Y-36726782D01*
X55189544Y-36679163D01*
X33292401Y-27551163D02*
X32816210Y-27217829D01*
X33292401Y-26979734D02*
X32292401Y-26979734D01*
X32292401Y-27360687D01*
X32340020Y-27455925D01*
X32387639Y-27503544D01*
X32482877Y-27551163D01*
X32625734Y-27551163D01*
X32720972Y-27503544D01*
X32768591Y-27455925D01*
X32816210Y-27360687D01*
X32816210Y-26979734D01*
X32625734Y-28408306D02*
X33292401Y-28408306D01*
X32244782Y-28170210D02*
X32959068Y-27932115D01*
X32959068Y-28551163D01*
X32292401Y-29360687D02*
X32292401Y-29170210D01*
X32340020Y-29074972D01*
X32387639Y-29027353D01*
X32530496Y-28932115D01*
X32720972Y-28884496D01*
X33101925Y-28884496D01*
X33197163Y-28932115D01*
X33244782Y-28979734D01*
X33292401Y-29074972D01*
X33292401Y-29265449D01*
X33244782Y-29360687D01*
X33197163Y-29408306D01*
X33101925Y-29455925D01*
X32863830Y-29455925D01*
X32768591Y-29408306D01*
X32720972Y-29360687D01*
X32673353Y-29265449D01*
X32673353Y-29074972D01*
X32720972Y-28979734D01*
X32768591Y-28932115D01*
X32863830Y-28884496D01*
X57792877Y-51125401D02*
X58126211Y-50649210D01*
X58364306Y-51125401D02*
X58364306Y-50125401D01*
X57983353Y-50125401D01*
X57888115Y-50173020D01*
X57840496Y-50220639D01*
X57792877Y-50315877D01*
X57792877Y-50458734D01*
X57840496Y-50553972D01*
X57888115Y-50601591D01*
X57983353Y-50649210D01*
X58364306Y-50649210D01*
X56935734Y-50458734D02*
X56935734Y-51125401D01*
X57173830Y-50077782D02*
X57411925Y-50792068D01*
X56792877Y-50792068D01*
X56507163Y-50125401D02*
X55840496Y-50125401D01*
X56269068Y-51125401D01*
X47442401Y-24503163D02*
X46966210Y-24169829D01*
X47442401Y-23931734D02*
X46442401Y-23931734D01*
X46442401Y-24312687D01*
X46490020Y-24407925D01*
X46537639Y-24455544D01*
X46632877Y-24503163D01*
X46775734Y-24503163D01*
X46870972Y-24455544D01*
X46918591Y-24407925D01*
X46966210Y-24312687D01*
X46966210Y-23931734D01*
X46775734Y-25360306D02*
X47442401Y-25360306D01*
X46394782Y-25122210D02*
X47109068Y-24884115D01*
X47109068Y-25503163D01*
X46870972Y-26026972D02*
X46823353Y-25931734D01*
X46775734Y-25884115D01*
X46680496Y-25836496D01*
X46632877Y-25836496D01*
X46537639Y-25884115D01*
X46490020Y-25931734D01*
X46442401Y-26026972D01*
X46442401Y-26217449D01*
X46490020Y-26312687D01*
X46537639Y-26360306D01*
X46632877Y-26407925D01*
X46680496Y-26407925D01*
X46775734Y-26360306D01*
X46823353Y-26312687D01*
X46870972Y-26217449D01*
X46870972Y-26026972D01*
X46918591Y-25931734D01*
X46966210Y-25884115D01*
X47061449Y-25836496D01*
X47251925Y-25836496D01*
X47347163Y-25884115D01*
X47394782Y-25931734D01*
X47442401Y-26026972D01*
X47442401Y-26217449D01*
X47394782Y-26312687D01*
X47347163Y-26360306D01*
X47251925Y-26407925D01*
X47061449Y-26407925D01*
X46966210Y-26360306D01*
X46918591Y-26312687D01*
X46870972Y-26217449D01*
X39187401Y-29329163D02*
X38711210Y-28995829D01*
X39187401Y-28757734D02*
X38187401Y-28757734D01*
X38187401Y-29138687D01*
X38235020Y-29233925D01*
X38282639Y-29281544D01*
X38377877Y-29329163D01*
X38520734Y-29329163D01*
X38615972Y-29281544D01*
X38663591Y-29233925D01*
X38711210Y-29138687D01*
X38711210Y-28757734D01*
X38520734Y-30186306D02*
X39187401Y-30186306D01*
X38139782Y-29948210D02*
X38854068Y-29710115D01*
X38854068Y-30329163D01*
X39187401Y-30757734D02*
X39187401Y-30948210D01*
X39139782Y-31043449D01*
X39092163Y-31091068D01*
X38949306Y-31186306D01*
X38758830Y-31233925D01*
X38377877Y-31233925D01*
X38282639Y-31186306D01*
X38235020Y-31138687D01*
X38187401Y-31043449D01*
X38187401Y-30852972D01*
X38235020Y-30757734D01*
X38282639Y-30710115D01*
X38377877Y-30662496D01*
X38615972Y-30662496D01*
X38711210Y-30710115D01*
X38758830Y-30757734D01*
X38806449Y-30852972D01*
X38806449Y-31043449D01*
X38758830Y-31138687D01*
X38711210Y-31186306D01*
X38615972Y-31233925D01*
X23502877Y-72916401D02*
X23836211Y-72440210D01*
X24074306Y-72916401D02*
X24074306Y-71916401D01*
X23693353Y-71916401D01*
X23598115Y-71964020D01*
X23550496Y-72011639D01*
X23502877Y-72106877D01*
X23502877Y-72249734D01*
X23550496Y-72344972D01*
X23598115Y-72392591D01*
X23693353Y-72440210D01*
X24074306Y-72440210D01*
X22598115Y-71916401D02*
X23074306Y-71916401D01*
X23121925Y-72392591D01*
X23074306Y-72344972D01*
X22979068Y-72297353D01*
X22740972Y-72297353D01*
X22645734Y-72344972D01*
X22598115Y-72392591D01*
X22550496Y-72487830D01*
X22550496Y-72725925D01*
X22598115Y-72821163D01*
X22645734Y-72868782D01*
X22740972Y-72916401D01*
X22979068Y-72916401D01*
X23074306Y-72868782D01*
X23121925Y-72821163D01*
X21931449Y-71916401D02*
X21836210Y-71916401D01*
X21740972Y-71964020D01*
X21693353Y-72011639D01*
X21645734Y-72106877D01*
X21598115Y-72297353D01*
X21598115Y-72535449D01*
X21645734Y-72725925D01*
X21693353Y-72821163D01*
X21740972Y-72868782D01*
X21836210Y-72916401D01*
X21931449Y-72916401D01*
X22026687Y-72868782D01*
X22074306Y-72821163D01*
X22121925Y-72725925D01*
X22169544Y-72535449D01*
X22169544Y-72297353D01*
X22121925Y-72106877D01*
X22074306Y-72011639D01*
X22026687Y-71964020D01*
X21931449Y-71916401D01*
X14104877Y-72969401D02*
X14438211Y-72493210D01*
X14676306Y-72969401D02*
X14676306Y-71969401D01*
X14295353Y-71969401D01*
X14200115Y-72017020D01*
X14152496Y-72064639D01*
X14104877Y-72159877D01*
X14104877Y-72302734D01*
X14152496Y-72397972D01*
X14200115Y-72445591D01*
X14295353Y-72493210D01*
X14676306Y-72493210D01*
X13200115Y-71969401D02*
X13676306Y-71969401D01*
X13723925Y-72445591D01*
X13676306Y-72397972D01*
X13581068Y-72350353D01*
X13342972Y-72350353D01*
X13247734Y-72397972D01*
X13200115Y-72445591D01*
X13152496Y-72540830D01*
X13152496Y-72778925D01*
X13200115Y-72874163D01*
X13247734Y-72921782D01*
X13342972Y-72969401D01*
X13581068Y-72969401D01*
X13676306Y-72921782D01*
X13723925Y-72874163D01*
X12200115Y-72969401D02*
X12771544Y-72969401D01*
X12485830Y-72969401D02*
X12485830Y-71969401D01*
X12581068Y-72112258D01*
X12676306Y-72207496D01*
X12771544Y-72255115D01*
X5468877Y-73043401D02*
X5802211Y-72567210D01*
X6040306Y-73043401D02*
X6040306Y-72043401D01*
X5659353Y-72043401D01*
X5564115Y-72091020D01*
X5516496Y-72138639D01*
X5468877Y-72233877D01*
X5468877Y-72376734D01*
X5516496Y-72471972D01*
X5564115Y-72519591D01*
X5659353Y-72567210D01*
X6040306Y-72567210D01*
X4564115Y-72043401D02*
X5040306Y-72043401D01*
X5087925Y-72519591D01*
X5040306Y-72471972D01*
X4945068Y-72424353D01*
X4706972Y-72424353D01*
X4611734Y-72471972D01*
X4564115Y-72519591D01*
X4516496Y-72614830D01*
X4516496Y-72852925D01*
X4564115Y-72948163D01*
X4611734Y-72995782D01*
X4706972Y-73043401D01*
X4945068Y-73043401D01*
X5040306Y-72995782D01*
X5087925Y-72948163D01*
X4135544Y-72138639D02*
X4087925Y-72091020D01*
X3992687Y-72043401D01*
X3754591Y-72043401D01*
X3659353Y-72091020D01*
X3611734Y-72138639D01*
X3564115Y-72233877D01*
X3564115Y-72329115D01*
X3611734Y-72471972D01*
X4183163Y-73043401D01*
X3564115Y-73043401D01*
X28646401Y-83812163D02*
X28170210Y-83478829D01*
X28646401Y-83240734D02*
X27646401Y-83240734D01*
X27646401Y-83621687D01*
X27694020Y-83716925D01*
X27741639Y-83764544D01*
X27836877Y-83812163D01*
X27979734Y-83812163D01*
X28074972Y-83764544D01*
X28122591Y-83716925D01*
X28170210Y-83621687D01*
X28170210Y-83240734D01*
X27646401Y-84716925D02*
X27646401Y-84240734D01*
X28122591Y-84193115D01*
X28074972Y-84240734D01*
X28027353Y-84335972D01*
X28027353Y-84574068D01*
X28074972Y-84669306D01*
X28122591Y-84716925D01*
X28217830Y-84764544D01*
X28455925Y-84764544D01*
X28551163Y-84716925D01*
X28598782Y-84669306D01*
X28646401Y-84574068D01*
X28646401Y-84335972D01*
X28598782Y-84240734D01*
X28551163Y-84193115D01*
X27646401Y-85097877D02*
X27646401Y-85716925D01*
X28027353Y-85383591D01*
X28027353Y-85526449D01*
X28074972Y-85621687D01*
X28122591Y-85669306D01*
X28217830Y-85716925D01*
X28455925Y-85716925D01*
X28551163Y-85669306D01*
X28598782Y-85621687D01*
X28646401Y-85526449D01*
X28646401Y-85240734D01*
X28598782Y-85145496D01*
X28551163Y-85097877D01*
X32773877Y-77287401D02*
X33107211Y-76811210D01*
X33345306Y-77287401D02*
X33345306Y-76287401D01*
X32964353Y-76287401D01*
X32869115Y-76335020D01*
X32821496Y-76382639D01*
X32773877Y-76477877D01*
X32773877Y-76620734D01*
X32821496Y-76715972D01*
X32869115Y-76763591D01*
X32964353Y-76811210D01*
X33345306Y-76811210D01*
X31869115Y-76287401D02*
X32345306Y-76287401D01*
X32392925Y-76763591D01*
X32345306Y-76715972D01*
X32250068Y-76668353D01*
X32011972Y-76668353D01*
X31916734Y-76715972D01*
X31869115Y-76763591D01*
X31821496Y-76858830D01*
X31821496Y-77096925D01*
X31869115Y-77192163D01*
X31916734Y-77239782D01*
X32011972Y-77287401D01*
X32250068Y-77287401D01*
X32345306Y-77239782D01*
X32392925Y-77192163D01*
X30964353Y-76620734D02*
X30964353Y-77287401D01*
X31202449Y-76239782D02*
X31440544Y-76954068D01*
X30821496Y-76954068D01*
X26360401Y-83939163D02*
X25884210Y-83605829D01*
X26360401Y-83367734D02*
X25360401Y-83367734D01*
X25360401Y-83748687D01*
X25408020Y-83843925D01*
X25455639Y-83891544D01*
X25550877Y-83939163D01*
X25693734Y-83939163D01*
X25788972Y-83891544D01*
X25836591Y-83843925D01*
X25884210Y-83748687D01*
X25884210Y-83367734D01*
X25360401Y-84843925D02*
X25360401Y-84367734D01*
X25836591Y-84320115D01*
X25788972Y-84367734D01*
X25741353Y-84462972D01*
X25741353Y-84701068D01*
X25788972Y-84796306D01*
X25836591Y-84843925D01*
X25931830Y-84891544D01*
X26169925Y-84891544D01*
X26265163Y-84843925D01*
X26312782Y-84796306D01*
X26360401Y-84701068D01*
X26360401Y-84462972D01*
X26312782Y-84367734D01*
X26265163Y-84320115D01*
X25360401Y-85796306D02*
X25360401Y-85320115D01*
X25836591Y-85272496D01*
X25788972Y-85320115D01*
X25741353Y-85415353D01*
X25741353Y-85653449D01*
X25788972Y-85748687D01*
X25836591Y-85796306D01*
X25931830Y-85843925D01*
X26169925Y-85843925D01*
X26265163Y-85796306D01*
X26312782Y-85748687D01*
X26360401Y-85653449D01*
X26360401Y-85415353D01*
X26312782Y-85320115D01*
X26265163Y-85272496D01*
X15946401Y-54729163D02*
X15470210Y-54395829D01*
X15946401Y-54157734D02*
X14946401Y-54157734D01*
X14946401Y-54538687D01*
X14994020Y-54633925D01*
X15041639Y-54681544D01*
X15136877Y-54729163D01*
X15279734Y-54729163D01*
X15374972Y-54681544D01*
X15422591Y-54633925D01*
X15470210Y-54538687D01*
X15470210Y-54157734D01*
X14946401Y-55633925D02*
X14946401Y-55157734D01*
X15422591Y-55110115D01*
X15374972Y-55157734D01*
X15327353Y-55252972D01*
X15327353Y-55491068D01*
X15374972Y-55586306D01*
X15422591Y-55633925D01*
X15517830Y-55681544D01*
X15755925Y-55681544D01*
X15851163Y-55633925D01*
X15898782Y-55586306D01*
X15946401Y-55491068D01*
X15946401Y-55252972D01*
X15898782Y-55157734D01*
X15851163Y-55110115D01*
X14946401Y-56538687D02*
X14946401Y-56348210D01*
X14994020Y-56252972D01*
X15041639Y-56205353D01*
X15184496Y-56110115D01*
X15374972Y-56062496D01*
X15755925Y-56062496D01*
X15851163Y-56110115D01*
X15898782Y-56157734D01*
X15946401Y-56252972D01*
X15946401Y-56443449D01*
X15898782Y-56538687D01*
X15851163Y-56586306D01*
X15755925Y-56633925D01*
X15517830Y-56633925D01*
X15422591Y-56586306D01*
X15374972Y-56538687D01*
X15327353Y-56443449D01*
X15327353Y-56252972D01*
X15374972Y-56157734D01*
X15422591Y-56110115D01*
X15517830Y-56062496D01*
X24836401Y-53205163D02*
X24360210Y-52871829D01*
X24836401Y-52633734D02*
X23836401Y-52633734D01*
X23836401Y-53014687D01*
X23884020Y-53109925D01*
X23931639Y-53157544D01*
X24026877Y-53205163D01*
X24169734Y-53205163D01*
X24264972Y-53157544D01*
X24312591Y-53109925D01*
X24360210Y-53014687D01*
X24360210Y-52633734D01*
X23836401Y-54109925D02*
X23836401Y-53633734D01*
X24312591Y-53586115D01*
X24264972Y-53633734D01*
X24217353Y-53728972D01*
X24217353Y-53967068D01*
X24264972Y-54062306D01*
X24312591Y-54109925D01*
X24407830Y-54157544D01*
X24645925Y-54157544D01*
X24741163Y-54109925D01*
X24788782Y-54062306D01*
X24836401Y-53967068D01*
X24836401Y-53728972D01*
X24788782Y-53633734D01*
X24741163Y-53586115D01*
X23836401Y-54490877D02*
X23836401Y-55157544D01*
X24836401Y-54728972D01*
X17343401Y-54729163D02*
X16867210Y-54395829D01*
X17343401Y-54157734D02*
X16343401Y-54157734D01*
X16343401Y-54538687D01*
X16391020Y-54633925D01*
X16438639Y-54681544D01*
X16533877Y-54729163D01*
X16676734Y-54729163D01*
X16771972Y-54681544D01*
X16819591Y-54633925D01*
X16867210Y-54538687D01*
X16867210Y-54157734D01*
X16343401Y-55633925D02*
X16343401Y-55157734D01*
X16819591Y-55110115D01*
X16771972Y-55157734D01*
X16724353Y-55252972D01*
X16724353Y-55491068D01*
X16771972Y-55586306D01*
X16819591Y-55633925D01*
X16914830Y-55681544D01*
X17152925Y-55681544D01*
X17248163Y-55633925D01*
X17295782Y-55586306D01*
X17343401Y-55491068D01*
X17343401Y-55252972D01*
X17295782Y-55157734D01*
X17248163Y-55110115D01*
X16771972Y-56252972D02*
X16724353Y-56157734D01*
X16676734Y-56110115D01*
X16581496Y-56062496D01*
X16533877Y-56062496D01*
X16438639Y-56110115D01*
X16391020Y-56157734D01*
X16343401Y-56252972D01*
X16343401Y-56443449D01*
X16391020Y-56538687D01*
X16438639Y-56586306D01*
X16533877Y-56633925D01*
X16581496Y-56633925D01*
X16676734Y-56586306D01*
X16724353Y-56538687D01*
X16771972Y-56443449D01*
X16771972Y-56252972D01*
X16819591Y-56157734D01*
X16867210Y-56110115D01*
X16962449Y-56062496D01*
X17152925Y-56062496D01*
X17248163Y-56110115D01*
X17295782Y-56157734D01*
X17343401Y-56252972D01*
X17343401Y-56443449D01*
X17295782Y-56538687D01*
X17248163Y-56586306D01*
X17152925Y-56633925D01*
X16962449Y-56633925D01*
X16867210Y-56586306D01*
X16819591Y-56538687D01*
X16771972Y-56443449D01*
X15628877Y-52522401D02*
X15962211Y-52046210D01*
X16200306Y-52522401D02*
X16200306Y-51522401D01*
X15819353Y-51522401D01*
X15724115Y-51570020D01*
X15676496Y-51617639D01*
X15628877Y-51712877D01*
X15628877Y-51855734D01*
X15676496Y-51950972D01*
X15724115Y-51998591D01*
X15819353Y-52046210D01*
X16200306Y-52046210D01*
X14724115Y-51522401D02*
X15200306Y-51522401D01*
X15247925Y-51998591D01*
X15200306Y-51950972D01*
X15105068Y-51903353D01*
X14866972Y-51903353D01*
X14771734Y-51950972D01*
X14724115Y-51998591D01*
X14676496Y-52093830D01*
X14676496Y-52331925D01*
X14724115Y-52427163D01*
X14771734Y-52474782D01*
X14866972Y-52522401D01*
X15105068Y-52522401D01*
X15200306Y-52474782D01*
X15247925Y-52427163D01*
X14200306Y-52522401D02*
X14009830Y-52522401D01*
X13914591Y-52474782D01*
X13866972Y-52427163D01*
X13771734Y-52284306D01*
X13724115Y-52093830D01*
X13724115Y-51712877D01*
X13771734Y-51617639D01*
X13819353Y-51570020D01*
X13914591Y-51522401D01*
X14105068Y-51522401D01*
X14200306Y-51570020D01*
X14247925Y-51617639D01*
X14295544Y-51712877D01*
X14295544Y-51950972D01*
X14247925Y-52046210D01*
X14200306Y-52093830D01*
X14105068Y-52141449D01*
X13914591Y-52141449D01*
X13819353Y-52093830D01*
X13771734Y-52046210D01*
X13724115Y-51950972D01*
X24010877Y-52014401D02*
X24344211Y-51538210D01*
X24582306Y-52014401D02*
X24582306Y-51014401D01*
X24201353Y-51014401D01*
X24106115Y-51062020D01*
X24058496Y-51109639D01*
X24010877Y-51204877D01*
X24010877Y-51347734D01*
X24058496Y-51442972D01*
X24106115Y-51490591D01*
X24201353Y-51538210D01*
X24582306Y-51538210D01*
X23153734Y-51014401D02*
X23344211Y-51014401D01*
X23439449Y-51062020D01*
X23487068Y-51109639D01*
X23582306Y-51252496D01*
X23629925Y-51442972D01*
X23629925Y-51823925D01*
X23582306Y-51919163D01*
X23534687Y-51966782D01*
X23439449Y-52014401D01*
X23248972Y-52014401D01*
X23153734Y-51966782D01*
X23106115Y-51919163D01*
X23058496Y-51823925D01*
X23058496Y-51585830D01*
X23106115Y-51490591D01*
X23153734Y-51442972D01*
X23248972Y-51395353D01*
X23439449Y-51395353D01*
X23534687Y-51442972D01*
X23582306Y-51490591D01*
X23629925Y-51585830D01*
X22439449Y-51014401D02*
X22344210Y-51014401D01*
X22248972Y-51062020D01*
X22201353Y-51109639D01*
X22153734Y-51204877D01*
X22106115Y-51395353D01*
X22106115Y-51633449D01*
X22153734Y-51823925D01*
X22201353Y-51919163D01*
X22248972Y-51966782D01*
X22344210Y-52014401D01*
X22439449Y-52014401D01*
X22534687Y-51966782D01*
X22582306Y-51919163D01*
X22629925Y-51823925D01*
X22677544Y-51633449D01*
X22677544Y-51395353D01*
X22629925Y-51204877D01*
X22582306Y-51109639D01*
X22534687Y-51062020D01*
X22439449Y-51014401D01*
X18168877Y-58364401D02*
X18502211Y-57888210D01*
X18740306Y-58364401D02*
X18740306Y-57364401D01*
X18359353Y-57364401D01*
X18264115Y-57412020D01*
X18216496Y-57459639D01*
X18168877Y-57554877D01*
X18168877Y-57697734D01*
X18216496Y-57792972D01*
X18264115Y-57840591D01*
X18359353Y-57888210D01*
X18740306Y-57888210D01*
X17311734Y-57364401D02*
X17502211Y-57364401D01*
X17597449Y-57412020D01*
X17645068Y-57459639D01*
X17740306Y-57602496D01*
X17787925Y-57792972D01*
X17787925Y-58173925D01*
X17740306Y-58269163D01*
X17692687Y-58316782D01*
X17597449Y-58364401D01*
X17406972Y-58364401D01*
X17311734Y-58316782D01*
X17264115Y-58269163D01*
X17216496Y-58173925D01*
X17216496Y-57935830D01*
X17264115Y-57840591D01*
X17311734Y-57792972D01*
X17406972Y-57745353D01*
X17597449Y-57745353D01*
X17692687Y-57792972D01*
X17740306Y-57840591D01*
X17787925Y-57935830D01*
X16883163Y-57364401D02*
X16264115Y-57364401D01*
X16597449Y-57745353D01*
X16454591Y-57745353D01*
X16359353Y-57792972D01*
X16311734Y-57840591D01*
X16264115Y-57935830D01*
X16264115Y-58173925D01*
X16311734Y-58269163D01*
X16359353Y-58316782D01*
X16454591Y-58364401D01*
X16740306Y-58364401D01*
X16835544Y-58316782D01*
X16883163Y-58269163D01*
X14422401Y-46093163D02*
X13946210Y-45759829D01*
X14422401Y-45521734D02*
X13422401Y-45521734D01*
X13422401Y-45902687D01*
X13470020Y-45997925D01*
X13517639Y-46045544D01*
X13612877Y-46093163D01*
X13755734Y-46093163D01*
X13850972Y-46045544D01*
X13898591Y-45997925D01*
X13946210Y-45902687D01*
X13946210Y-45521734D01*
X13422401Y-46950306D02*
X13422401Y-46759829D01*
X13470020Y-46664591D01*
X13517639Y-46616972D01*
X13660496Y-46521734D01*
X13850972Y-46474115D01*
X14231925Y-46474115D01*
X14327163Y-46521734D01*
X14374782Y-46569353D01*
X14422401Y-46664591D01*
X14422401Y-46855068D01*
X14374782Y-46950306D01*
X14327163Y-46997925D01*
X14231925Y-47045544D01*
X13993830Y-47045544D01*
X13898591Y-46997925D01*
X13850972Y-46950306D01*
X13803353Y-46855068D01*
X13803353Y-46664591D01*
X13850972Y-46569353D01*
X13898591Y-46521734D01*
X13993830Y-46474115D01*
X13755734Y-47902687D02*
X14422401Y-47902687D01*
X13374782Y-47664591D02*
X14089068Y-47426496D01*
X14089068Y-48045544D01*
X20327877Y-38298401D02*
X20661211Y-37822210D01*
X20899306Y-38298401D02*
X20899306Y-37298401D01*
X20518353Y-37298401D01*
X20423115Y-37346020D01*
X20375496Y-37393639D01*
X20327877Y-37488877D01*
X20327877Y-37631734D01*
X20375496Y-37726972D01*
X20423115Y-37774591D01*
X20518353Y-37822210D01*
X20899306Y-37822210D01*
X19470734Y-37298401D02*
X19661211Y-37298401D01*
X19756449Y-37346020D01*
X19804068Y-37393639D01*
X19899306Y-37536496D01*
X19946925Y-37726972D01*
X19946925Y-38107925D01*
X19899306Y-38203163D01*
X19851687Y-38250782D01*
X19756449Y-38298401D01*
X19565972Y-38298401D01*
X19470734Y-38250782D01*
X19423115Y-38203163D01*
X19375496Y-38107925D01*
X19375496Y-37869830D01*
X19423115Y-37774591D01*
X19470734Y-37726972D01*
X19565972Y-37679353D01*
X19756449Y-37679353D01*
X19851687Y-37726972D01*
X19899306Y-37774591D01*
X19946925Y-37869830D01*
X18470734Y-37298401D02*
X18946925Y-37298401D01*
X18994544Y-37774591D01*
X18946925Y-37726972D01*
X18851687Y-37679353D01*
X18613591Y-37679353D01*
X18518353Y-37726972D01*
X18470734Y-37774591D01*
X18423115Y-37869830D01*
X18423115Y-38107925D01*
X18470734Y-38203163D01*
X18518353Y-38250782D01*
X18613591Y-38298401D01*
X18851687Y-38298401D01*
X18946925Y-38250782D01*
X18994544Y-38203163D01*
X16517877Y-39695401D02*
X16851211Y-39219210D01*
X17089306Y-39695401D02*
X17089306Y-38695401D01*
X16708353Y-38695401D01*
X16613115Y-38743020D01*
X16565496Y-38790639D01*
X16517877Y-38885877D01*
X16517877Y-39028734D01*
X16565496Y-39123972D01*
X16613115Y-39171591D01*
X16708353Y-39219210D01*
X17089306Y-39219210D01*
X15660734Y-38695401D02*
X15851211Y-38695401D01*
X15946449Y-38743020D01*
X15994068Y-38790639D01*
X16089306Y-38933496D01*
X16136925Y-39123972D01*
X16136925Y-39504925D01*
X16089306Y-39600163D01*
X16041687Y-39647782D01*
X15946449Y-39695401D01*
X15755972Y-39695401D01*
X15660734Y-39647782D01*
X15613115Y-39600163D01*
X15565496Y-39504925D01*
X15565496Y-39266830D01*
X15613115Y-39171591D01*
X15660734Y-39123972D01*
X15755972Y-39076353D01*
X15946449Y-39076353D01*
X16041687Y-39123972D01*
X16089306Y-39171591D01*
X16136925Y-39266830D01*
X14708353Y-38695401D02*
X14898830Y-38695401D01*
X14994068Y-38743020D01*
X15041687Y-38790639D01*
X15136925Y-38933496D01*
X15184544Y-39123972D01*
X15184544Y-39504925D01*
X15136925Y-39600163D01*
X15089306Y-39647782D01*
X14994068Y-39695401D01*
X14803591Y-39695401D01*
X14708353Y-39647782D01*
X14660734Y-39600163D01*
X14613115Y-39504925D01*
X14613115Y-39266830D01*
X14660734Y-39171591D01*
X14708353Y-39123972D01*
X14803591Y-39076353D01*
X14994068Y-39076353D01*
X15089306Y-39123972D01*
X15136925Y-39171591D01*
X15184544Y-39266830D01*
X12644401Y-43172163D02*
X12168210Y-42838829D01*
X12644401Y-42600734D02*
X11644401Y-42600734D01*
X11644401Y-42981687D01*
X11692020Y-43076925D01*
X11739639Y-43124544D01*
X11834877Y-43172163D01*
X11977734Y-43172163D01*
X12072972Y-43124544D01*
X12120591Y-43076925D01*
X12168210Y-42981687D01*
X12168210Y-42600734D01*
X11644401Y-44029306D02*
X11644401Y-43838829D01*
X11692020Y-43743591D01*
X11739639Y-43695972D01*
X11882496Y-43600734D01*
X12072972Y-43553115D01*
X12453925Y-43553115D01*
X12549163Y-43600734D01*
X12596782Y-43648353D01*
X12644401Y-43743591D01*
X12644401Y-43934068D01*
X12596782Y-44029306D01*
X12549163Y-44076925D01*
X12453925Y-44124544D01*
X12215830Y-44124544D01*
X12120591Y-44076925D01*
X12072972Y-44029306D01*
X12025353Y-43934068D01*
X12025353Y-43743591D01*
X12072972Y-43648353D01*
X12120591Y-43600734D01*
X12215830Y-43553115D01*
X11644401Y-44457877D02*
X11644401Y-45124544D01*
X12644401Y-44695972D01*
X20327877Y-39695401D02*
X20661211Y-39219210D01*
X20899306Y-39695401D02*
X20899306Y-38695401D01*
X20518353Y-38695401D01*
X20423115Y-38743020D01*
X20375496Y-38790639D01*
X20327877Y-38885877D01*
X20327877Y-39028734D01*
X20375496Y-39123972D01*
X20423115Y-39171591D01*
X20518353Y-39219210D01*
X20899306Y-39219210D01*
X19470734Y-38695401D02*
X19661211Y-38695401D01*
X19756449Y-38743020D01*
X19804068Y-38790639D01*
X19899306Y-38933496D01*
X19946925Y-39123972D01*
X19946925Y-39504925D01*
X19899306Y-39600163D01*
X19851687Y-39647782D01*
X19756449Y-39695401D01*
X19565972Y-39695401D01*
X19470734Y-39647782D01*
X19423115Y-39600163D01*
X19375496Y-39504925D01*
X19375496Y-39266830D01*
X19423115Y-39171591D01*
X19470734Y-39123972D01*
X19565972Y-39076353D01*
X19756449Y-39076353D01*
X19851687Y-39123972D01*
X19899306Y-39171591D01*
X19946925Y-39266830D01*
X18804068Y-39123972D02*
X18899306Y-39076353D01*
X18946925Y-39028734D01*
X18994544Y-38933496D01*
X18994544Y-38885877D01*
X18946925Y-38790639D01*
X18899306Y-38743020D01*
X18804068Y-38695401D01*
X18613591Y-38695401D01*
X18518353Y-38743020D01*
X18470734Y-38790639D01*
X18423115Y-38885877D01*
X18423115Y-38933496D01*
X18470734Y-39028734D01*
X18518353Y-39076353D01*
X18613591Y-39123972D01*
X18804068Y-39123972D01*
X18899306Y-39171591D01*
X18946925Y-39219210D01*
X18994544Y-39314449D01*
X18994544Y-39504925D01*
X18946925Y-39600163D01*
X18899306Y-39647782D01*
X18804068Y-39695401D01*
X18613591Y-39695401D01*
X18518353Y-39647782D01*
X18470734Y-39600163D01*
X18423115Y-39504925D01*
X18423115Y-39314449D01*
X18470734Y-39219210D01*
X18518353Y-39171591D01*
X18613591Y-39123972D01*
X72143877Y-25344401D02*
X72477211Y-24868210D01*
X72715306Y-25344401D02*
X72715306Y-24344401D01*
X72334353Y-24344401D01*
X72239115Y-24392020D01*
X72191496Y-24439639D01*
X72143877Y-24534877D01*
X72143877Y-24677734D01*
X72191496Y-24772972D01*
X72239115Y-24820591D01*
X72334353Y-24868210D01*
X72715306Y-24868210D01*
X71286734Y-24344401D02*
X71477211Y-24344401D01*
X71572449Y-24392020D01*
X71620068Y-24439639D01*
X71715306Y-24582496D01*
X71762925Y-24772972D01*
X71762925Y-25153925D01*
X71715306Y-25249163D01*
X71667687Y-25296782D01*
X71572449Y-25344401D01*
X71381972Y-25344401D01*
X71286734Y-25296782D01*
X71239115Y-25249163D01*
X71191496Y-25153925D01*
X71191496Y-24915830D01*
X71239115Y-24820591D01*
X71286734Y-24772972D01*
X71381972Y-24725353D01*
X71572449Y-24725353D01*
X71667687Y-24772972D01*
X71715306Y-24820591D01*
X71762925Y-24915830D01*
X70715306Y-25344401D02*
X70524830Y-25344401D01*
X70429591Y-25296782D01*
X70381972Y-25249163D01*
X70286734Y-25106306D01*
X70239115Y-24915830D01*
X70239115Y-24534877D01*
X70286734Y-24439639D01*
X70334353Y-24392020D01*
X70429591Y-24344401D01*
X70620068Y-24344401D01*
X70715306Y-24392020D01*
X70762925Y-24439639D01*
X70810544Y-24534877D01*
X70810544Y-24772972D01*
X70762925Y-24868210D01*
X70715306Y-24915830D01*
X70620068Y-24963449D01*
X70429591Y-24963449D01*
X70334353Y-24915830D01*
X70286734Y-24868210D01*
X70239115Y-24772972D01*
X59708381Y-20693163D02*
X59232190Y-20359829D01*
X59708381Y-20121734D02*
X58708381Y-20121734D01*
X58708381Y-20502687D01*
X58756000Y-20597925D01*
X58803619Y-20645544D01*
X58898857Y-20693163D01*
X59041714Y-20693163D01*
X59136952Y-20645544D01*
X59184571Y-20597925D01*
X59232190Y-20502687D01*
X59232190Y-20121734D01*
X58708381Y-21026496D02*
X58708381Y-21693163D01*
X59708381Y-21264591D01*
X58708381Y-22264591D02*
X58708381Y-22359830D01*
X58756000Y-22455068D01*
X58803619Y-22502687D01*
X58898857Y-22550306D01*
X59089333Y-22597925D01*
X59327429Y-22597925D01*
X59517905Y-22550306D01*
X59613143Y-22502687D01*
X59660762Y-22455068D01*
X59708381Y-22359830D01*
X59708381Y-22264591D01*
X59660762Y-22169353D01*
X59613143Y-22121734D01*
X59517905Y-22074115D01*
X59327429Y-22026496D01*
X59089333Y-22026496D01*
X58898857Y-22074115D01*
X58803619Y-22121734D01*
X58756000Y-22169353D01*
X58708381Y-22264591D01*
X15120877Y-1976401D02*
X15454211Y-1500210D01*
X15692306Y-1976401D02*
X15692306Y-976401D01*
X15311353Y-976401D01*
X15216115Y-1024020D01*
X15168496Y-1071639D01*
X15120877Y-1166877D01*
X15120877Y-1309734D01*
X15168496Y-1404972D01*
X15216115Y-1452591D01*
X15311353Y-1500210D01*
X15692306Y-1500210D01*
X14787544Y-976401D02*
X14120877Y-976401D01*
X14549449Y-1976401D01*
X13216115Y-1976401D02*
X13787544Y-1976401D01*
X13501830Y-1976401D02*
X13501830Y-976401D01*
X13597068Y-1119258D01*
X13692306Y-1214496D01*
X13787544Y-1262115D01*
X100972877Y-21026401D02*
X101306211Y-20550210D01*
X101544306Y-21026401D02*
X101544306Y-20026401D01*
X101163353Y-20026401D01*
X101068115Y-20074020D01*
X101020496Y-20121639D01*
X100972877Y-20216877D01*
X100972877Y-20359734D01*
X101020496Y-20454972D01*
X101068115Y-20502591D01*
X101163353Y-20550210D01*
X101544306Y-20550210D01*
X100639544Y-20026401D02*
X99972877Y-20026401D01*
X100401449Y-21026401D01*
X99163353Y-20359734D02*
X99163353Y-21026401D01*
X99401449Y-19978782D02*
X99639544Y-20693068D01*
X99020496Y-20693068D01*
X100972877Y-19629401D02*
X101306211Y-19153210D01*
X101544306Y-19629401D02*
X101544306Y-18629401D01*
X101163353Y-18629401D01*
X101068115Y-18677020D01*
X101020496Y-18724639D01*
X100972877Y-18819877D01*
X100972877Y-18962734D01*
X101020496Y-19057972D01*
X101068115Y-19105591D01*
X101163353Y-19153210D01*
X101544306Y-19153210D01*
X100639544Y-18629401D02*
X99972877Y-18629401D01*
X100401449Y-19629401D01*
X99115734Y-18629401D02*
X99591925Y-18629401D01*
X99639544Y-19105591D01*
X99591925Y-19057972D01*
X99496687Y-19010353D01*
X99258591Y-19010353D01*
X99163353Y-19057972D01*
X99115734Y-19105591D01*
X99068115Y-19200830D01*
X99068115Y-19438925D01*
X99115734Y-19534163D01*
X99163353Y-19581782D01*
X99258591Y-19629401D01*
X99496687Y-19629401D01*
X99591925Y-19581782D01*
X99639544Y-19534163D01*
X104655877Y-21026401D02*
X104989211Y-20550210D01*
X105227306Y-21026401D02*
X105227306Y-20026401D01*
X104846353Y-20026401D01*
X104751115Y-20074020D01*
X104703496Y-20121639D01*
X104655877Y-20216877D01*
X104655877Y-20359734D01*
X104703496Y-20454972D01*
X104751115Y-20502591D01*
X104846353Y-20550210D01*
X105227306Y-20550210D01*
X104322544Y-20026401D02*
X103655877Y-20026401D01*
X104084449Y-21026401D01*
X103370163Y-20026401D02*
X102703496Y-20026401D01*
X103132068Y-21026401D01*
X104655877Y-19629401D02*
X104989211Y-19153210D01*
X105227306Y-19629401D02*
X105227306Y-18629401D01*
X104846353Y-18629401D01*
X104751115Y-18677020D01*
X104703496Y-18724639D01*
X104655877Y-18819877D01*
X104655877Y-18962734D01*
X104703496Y-19057972D01*
X104751115Y-19105591D01*
X104846353Y-19153210D01*
X105227306Y-19153210D01*
X104322544Y-18629401D02*
X103655877Y-18629401D01*
X104084449Y-19629401D01*
X103132068Y-19057972D02*
X103227306Y-19010353D01*
X103274925Y-18962734D01*
X103322544Y-18867496D01*
X103322544Y-18819877D01*
X103274925Y-18724639D01*
X103227306Y-18677020D01*
X103132068Y-18629401D01*
X102941591Y-18629401D01*
X102846353Y-18677020D01*
X102798734Y-18724639D01*
X102751115Y-18819877D01*
X102751115Y-18867496D01*
X102798734Y-18962734D01*
X102846353Y-19010353D01*
X102941591Y-19057972D01*
X103132068Y-19057972D01*
X103227306Y-19105591D01*
X103274925Y-19153210D01*
X103322544Y-19248449D01*
X103322544Y-19438925D01*
X103274925Y-19534163D01*
X103227306Y-19581782D01*
X103132068Y-19629401D01*
X102941591Y-19629401D01*
X102846353Y-19581782D01*
X102798734Y-19534163D01*
X102751115Y-19438925D01*
X102751115Y-19248449D01*
X102798734Y-19153210D01*
X102846353Y-19105591D01*
X102941591Y-19057972D01*
X97863999Y-19119225D02*
X97387808Y-18785891D01*
X97863999Y-18547796D02*
X96863999Y-18547796D01*
X96863999Y-18928749D01*
X96911618Y-19023987D01*
X96959237Y-19071606D01*
X97054475Y-19119225D01*
X97197332Y-19119225D01*
X97292570Y-19071606D01*
X97340189Y-19023987D01*
X97387808Y-18928749D01*
X97387808Y-18547796D01*
X97292570Y-19690653D02*
X97244951Y-19595415D01*
X97197332Y-19547796D01*
X97102094Y-19500177D01*
X97054475Y-19500177D01*
X96959237Y-19547796D01*
X96911618Y-19595415D01*
X96863999Y-19690653D01*
X96863999Y-19881130D01*
X96911618Y-19976368D01*
X96959237Y-20023987D01*
X97054475Y-20071606D01*
X97102094Y-20071606D01*
X97197332Y-20023987D01*
X97244951Y-19976368D01*
X97292570Y-19881130D01*
X97292570Y-19690653D01*
X97340189Y-19595415D01*
X97387808Y-19547796D01*
X97483047Y-19500177D01*
X97673523Y-19500177D01*
X97768761Y-19547796D01*
X97816380Y-19595415D01*
X97863999Y-19690653D01*
X97863999Y-19881130D01*
X97816380Y-19976368D01*
X97768761Y-20023987D01*
X97673523Y-20071606D01*
X97483047Y-20071606D01*
X97387808Y-20023987D01*
X97340189Y-19976368D01*
X97292570Y-19881130D01*
X97863999Y-21023987D02*
X97863999Y-20452558D01*
X97863999Y-20738272D02*
X96863999Y-20738272D01*
X97006856Y-20643034D01*
X97102094Y-20547796D01*
X97149713Y-20452558D01*
X86050401Y-19550163D02*
X85574210Y-19216829D01*
X86050401Y-18978734D02*
X85050401Y-18978734D01*
X85050401Y-19359687D01*
X85098020Y-19454925D01*
X85145639Y-19502544D01*
X85240877Y-19550163D01*
X85383734Y-19550163D01*
X85478972Y-19502544D01*
X85526591Y-19454925D01*
X85574210Y-19359687D01*
X85574210Y-18978734D01*
X85478972Y-20121591D02*
X85431353Y-20026353D01*
X85383734Y-19978734D01*
X85288496Y-19931115D01*
X85240877Y-19931115D01*
X85145639Y-19978734D01*
X85098020Y-20026353D01*
X85050401Y-20121591D01*
X85050401Y-20312068D01*
X85098020Y-20407306D01*
X85145639Y-20454925D01*
X85240877Y-20502544D01*
X85288496Y-20502544D01*
X85383734Y-20454925D01*
X85431353Y-20407306D01*
X85478972Y-20312068D01*
X85478972Y-20121591D01*
X85526591Y-20026353D01*
X85574210Y-19978734D01*
X85669449Y-19931115D01*
X85859925Y-19931115D01*
X85955163Y-19978734D01*
X86002782Y-20026353D01*
X86050401Y-20121591D01*
X86050401Y-20312068D01*
X86002782Y-20407306D01*
X85955163Y-20454925D01*
X85859925Y-20502544D01*
X85669449Y-20502544D01*
X85574210Y-20454925D01*
X85526591Y-20407306D01*
X85478972Y-20312068D01*
X85050401Y-20835877D02*
X85050401Y-21454925D01*
X85431353Y-21121591D01*
X85431353Y-21264449D01*
X85478972Y-21359687D01*
X85526591Y-21407306D01*
X85621830Y-21454925D01*
X85859925Y-21454925D01*
X85955163Y-21407306D01*
X86002782Y-21359687D01*
X86050401Y-21264449D01*
X86050401Y-20978734D01*
X86002782Y-20883496D01*
X85955163Y-20835877D01*
X112529877Y-33726401D02*
X112863211Y-33250210D01*
X113101306Y-33726401D02*
X113101306Y-32726401D01*
X112720353Y-32726401D01*
X112625115Y-32774020D01*
X112577496Y-32821639D01*
X112529877Y-32916877D01*
X112529877Y-33059734D01*
X112577496Y-33154972D01*
X112625115Y-33202591D01*
X112720353Y-33250210D01*
X113101306Y-33250210D01*
X111958449Y-33154972D02*
X112053687Y-33107353D01*
X112101306Y-33059734D01*
X112148925Y-32964496D01*
X112148925Y-32916877D01*
X112101306Y-32821639D01*
X112053687Y-32774020D01*
X111958449Y-32726401D01*
X111767972Y-32726401D01*
X111672734Y-32774020D01*
X111625115Y-32821639D01*
X111577496Y-32916877D01*
X111577496Y-32964496D01*
X111625115Y-33059734D01*
X111672734Y-33107353D01*
X111767972Y-33154972D01*
X111958449Y-33154972D01*
X112053687Y-33202591D01*
X112101306Y-33250210D01*
X112148925Y-33345449D01*
X112148925Y-33535925D01*
X112101306Y-33631163D01*
X112053687Y-33678782D01*
X111958449Y-33726401D01*
X111767972Y-33726401D01*
X111672734Y-33678782D01*
X111625115Y-33631163D01*
X111577496Y-33535925D01*
X111577496Y-33345449D01*
X111625115Y-33250210D01*
X111672734Y-33202591D01*
X111767972Y-33154972D01*
X110672734Y-32726401D02*
X111148925Y-32726401D01*
X111196544Y-33202591D01*
X111148925Y-33154972D01*
X111053687Y-33107353D01*
X110815591Y-33107353D01*
X110720353Y-33154972D01*
X110672734Y-33202591D01*
X110625115Y-33297830D01*
X110625115Y-33535925D01*
X110672734Y-33631163D01*
X110720353Y-33678782D01*
X110815591Y-33726401D01*
X111053687Y-33726401D01*
X111148925Y-33678782D01*
X111196544Y-33631163D01*
X88145877Y-68524401D02*
X88479211Y-68048210D01*
X88717306Y-68524401D02*
X88717306Y-67524401D01*
X88336353Y-67524401D01*
X88241115Y-67572020D01*
X88193496Y-67619639D01*
X88145877Y-67714877D01*
X88145877Y-67857734D01*
X88193496Y-67952972D01*
X88241115Y-68000591D01*
X88336353Y-68048210D01*
X88717306Y-68048210D01*
X87574449Y-67952972D02*
X87669687Y-67905353D01*
X87717306Y-67857734D01*
X87764925Y-67762496D01*
X87764925Y-67714877D01*
X87717306Y-67619639D01*
X87669687Y-67572020D01*
X87574449Y-67524401D01*
X87383972Y-67524401D01*
X87288734Y-67572020D01*
X87241115Y-67619639D01*
X87193496Y-67714877D01*
X87193496Y-67762496D01*
X87241115Y-67857734D01*
X87288734Y-67905353D01*
X87383972Y-67952972D01*
X87574449Y-67952972D01*
X87669687Y-68000591D01*
X87717306Y-68048210D01*
X87764925Y-68143449D01*
X87764925Y-68333925D01*
X87717306Y-68429163D01*
X87669687Y-68476782D01*
X87574449Y-68524401D01*
X87383972Y-68524401D01*
X87288734Y-68476782D01*
X87241115Y-68429163D01*
X87193496Y-68333925D01*
X87193496Y-68143449D01*
X87241115Y-68048210D01*
X87288734Y-68000591D01*
X87383972Y-67952972D01*
X86622068Y-67952972D02*
X86717306Y-67905353D01*
X86764925Y-67857734D01*
X86812544Y-67762496D01*
X86812544Y-67714877D01*
X86764925Y-67619639D01*
X86717306Y-67572020D01*
X86622068Y-67524401D01*
X86431591Y-67524401D01*
X86336353Y-67572020D01*
X86288734Y-67619639D01*
X86241115Y-67714877D01*
X86241115Y-67762496D01*
X86288734Y-67857734D01*
X86336353Y-67905353D01*
X86431591Y-67952972D01*
X86622068Y-67952972D01*
X86717306Y-68000591D01*
X86764925Y-68048210D01*
X86812544Y-68143449D01*
X86812544Y-68333925D01*
X86764925Y-68429163D01*
X86717306Y-68476782D01*
X86622068Y-68524401D01*
X86431591Y-68524401D01*
X86336353Y-68476782D01*
X86288734Y-68429163D01*
X86241115Y-68333925D01*
X86241115Y-68143449D01*
X86288734Y-68048210D01*
X86336353Y-68000591D01*
X86431591Y-67952972D01*
X88780877Y-70302401D02*
X89114211Y-69826210D01*
X89352306Y-70302401D02*
X89352306Y-69302401D01*
X88971353Y-69302401D01*
X88876115Y-69350020D01*
X88828496Y-69397639D01*
X88780877Y-69492877D01*
X88780877Y-69635734D01*
X88828496Y-69730972D01*
X88876115Y-69778591D01*
X88971353Y-69826210D01*
X89352306Y-69826210D01*
X88209449Y-69730972D02*
X88304687Y-69683353D01*
X88352306Y-69635734D01*
X88399925Y-69540496D01*
X88399925Y-69492877D01*
X88352306Y-69397639D01*
X88304687Y-69350020D01*
X88209449Y-69302401D01*
X88018972Y-69302401D01*
X87923734Y-69350020D01*
X87876115Y-69397639D01*
X87828496Y-69492877D01*
X87828496Y-69540496D01*
X87876115Y-69635734D01*
X87923734Y-69683353D01*
X88018972Y-69730972D01*
X88209449Y-69730972D01*
X88304687Y-69778591D01*
X88352306Y-69826210D01*
X88399925Y-69921449D01*
X88399925Y-70111925D01*
X88352306Y-70207163D01*
X88304687Y-70254782D01*
X88209449Y-70302401D01*
X88018972Y-70302401D01*
X87923734Y-70254782D01*
X87876115Y-70207163D01*
X87828496Y-70111925D01*
X87828496Y-69921449D01*
X87876115Y-69826210D01*
X87923734Y-69778591D01*
X88018972Y-69730972D01*
X87352306Y-70302401D02*
X87161830Y-70302401D01*
X87066591Y-70254782D01*
X87018972Y-70207163D01*
X86923734Y-70064306D01*
X86876115Y-69873830D01*
X86876115Y-69492877D01*
X86923734Y-69397639D01*
X86971353Y-69350020D01*
X87066591Y-69302401D01*
X87257068Y-69302401D01*
X87352306Y-69350020D01*
X87399925Y-69397639D01*
X87447544Y-69492877D01*
X87447544Y-69730972D01*
X87399925Y-69826210D01*
X87352306Y-69873830D01*
X87257068Y-69921449D01*
X87066591Y-69921449D01*
X86971353Y-69873830D01*
X86923734Y-69826210D01*
X86876115Y-69730972D01*
X91671370Y-65330230D02*
X92004704Y-64854039D01*
X92242799Y-65330230D02*
X92242799Y-64330230D01*
X91861846Y-64330230D01*
X91766608Y-64377849D01*
X91718989Y-64425468D01*
X91671370Y-64520706D01*
X91671370Y-64663563D01*
X91718989Y-64758801D01*
X91766608Y-64806420D01*
X91861846Y-64854039D01*
X92242799Y-64854039D01*
X91195180Y-65330230D02*
X91004704Y-65330230D01*
X90909465Y-65282611D01*
X90861846Y-65234992D01*
X90766608Y-65092135D01*
X90718989Y-64901659D01*
X90718989Y-64520706D01*
X90766608Y-64425468D01*
X90814227Y-64377849D01*
X90909465Y-64330230D01*
X91099942Y-64330230D01*
X91195180Y-64377849D01*
X91242799Y-64425468D01*
X91290418Y-64520706D01*
X91290418Y-64758801D01*
X91242799Y-64854039D01*
X91195180Y-64901659D01*
X91099942Y-64949278D01*
X90909465Y-64949278D01*
X90814227Y-64901659D01*
X90766608Y-64854039D01*
X90718989Y-64758801D01*
X90099942Y-64330230D02*
X90004703Y-64330230D01*
X89909465Y-64377849D01*
X89861846Y-64425468D01*
X89814227Y-64520706D01*
X89766608Y-64711182D01*
X89766608Y-64949278D01*
X89814227Y-65139754D01*
X89861846Y-65234992D01*
X89909465Y-65282611D01*
X90004703Y-65330230D01*
X90099942Y-65330230D01*
X90195180Y-65282611D01*
X90242799Y-65234992D01*
X90290418Y-65139754D01*
X90338037Y-64949278D01*
X90338037Y-64711182D01*
X90290418Y-64520706D01*
X90242799Y-64425468D01*
X90195180Y-64377849D01*
X90099942Y-64330230D01*
X91066877Y-73604401D02*
X91400211Y-73128210D01*
X91638306Y-73604401D02*
X91638306Y-72604401D01*
X91257353Y-72604401D01*
X91162115Y-72652020D01*
X91114496Y-72699639D01*
X91066877Y-72794877D01*
X91066877Y-72937734D01*
X91114496Y-73032972D01*
X91162115Y-73080591D01*
X91257353Y-73128210D01*
X91638306Y-73128210D01*
X90590687Y-73604401D02*
X90400211Y-73604401D01*
X90304972Y-73556782D01*
X90257353Y-73509163D01*
X90162115Y-73366306D01*
X90114496Y-73175830D01*
X90114496Y-72794877D01*
X90162115Y-72699639D01*
X90209734Y-72652020D01*
X90304972Y-72604401D01*
X90495449Y-72604401D01*
X90590687Y-72652020D01*
X90638306Y-72699639D01*
X90685925Y-72794877D01*
X90685925Y-73032972D01*
X90638306Y-73128210D01*
X90590687Y-73175830D01*
X90495449Y-73223449D01*
X90304972Y-73223449D01*
X90209734Y-73175830D01*
X90162115Y-73128210D01*
X90114496Y-73032972D01*
X89162115Y-73604401D02*
X89733544Y-73604401D01*
X89447830Y-73604401D02*
X89447830Y-72604401D01*
X89543068Y-72747258D01*
X89638306Y-72842496D01*
X89733544Y-72890115D01*
X52782918Y-55714702D02*
X53116252Y-55238511D01*
X53354347Y-55714702D02*
X53354347Y-54714702D01*
X52973394Y-54714702D01*
X52878156Y-54762321D01*
X52830537Y-54809940D01*
X52782918Y-54905178D01*
X52782918Y-55048035D01*
X52830537Y-55143273D01*
X52878156Y-55190892D01*
X52973394Y-55238511D01*
X53354347Y-55238511D01*
X51830537Y-55714702D02*
X52401966Y-55714702D01*
X52116252Y-55714702D02*
X52116252Y-54714702D01*
X52211490Y-54857559D01*
X52306728Y-54952797D01*
X52401966Y-55000416D01*
X51211490Y-54714702D02*
X51116251Y-54714702D01*
X51021013Y-54762321D01*
X50973394Y-54809940D01*
X50925775Y-54905178D01*
X50878156Y-55095654D01*
X50878156Y-55333750D01*
X50925775Y-55524226D01*
X50973394Y-55619464D01*
X51021013Y-55667083D01*
X51116251Y-55714702D01*
X51211490Y-55714702D01*
X51306728Y-55667083D01*
X51354347Y-55619464D01*
X51401966Y-55524226D01*
X51449585Y-55333750D01*
X51449585Y-55095654D01*
X51401966Y-54905178D01*
X51354347Y-54809940D01*
X51306728Y-54762321D01*
X51211490Y-54714702D01*
X49925775Y-55714702D02*
X50497204Y-55714702D01*
X50211490Y-55714702D02*
X50211490Y-54714702D01*
X50306728Y-54857559D01*
X50401966Y-54952797D01*
X50497204Y-55000416D01*
X49760067Y-52903401D02*
X50093401Y-52427210D01*
X50331496Y-52903401D02*
X50331496Y-51903401D01*
X49950543Y-51903401D01*
X49855305Y-51951020D01*
X49807686Y-51998639D01*
X49760067Y-52093877D01*
X49760067Y-52236734D01*
X49807686Y-52331972D01*
X49855305Y-52379591D01*
X49950543Y-52427210D01*
X50331496Y-52427210D01*
X48807686Y-52903401D02*
X49379115Y-52903401D01*
X49093401Y-52903401D02*
X49093401Y-51903401D01*
X49188639Y-52046258D01*
X49283877Y-52141496D01*
X49379115Y-52189115D01*
X48188639Y-51903401D02*
X48093400Y-51903401D01*
X47998162Y-51951020D01*
X47950543Y-51998639D01*
X47902924Y-52093877D01*
X47855305Y-52284353D01*
X47855305Y-52522449D01*
X47902924Y-52712925D01*
X47950543Y-52808163D01*
X47998162Y-52855782D01*
X48093400Y-52903401D01*
X48188639Y-52903401D01*
X48283877Y-52855782D01*
X48331496Y-52808163D01*
X48379115Y-52712925D01*
X48426734Y-52522449D01*
X48426734Y-52284353D01*
X48379115Y-52093877D01*
X48331496Y-51998639D01*
X48283877Y-51951020D01*
X48188639Y-51903401D01*
X47474353Y-51998639D02*
X47426734Y-51951020D01*
X47331496Y-51903401D01*
X47093400Y-51903401D01*
X46998162Y-51951020D01*
X46950543Y-51998639D01*
X46902924Y-52093877D01*
X46902924Y-52189115D01*
X46950543Y-52331972D01*
X47521972Y-52903401D01*
X46902924Y-52903401D01*
X44807067Y-77160401D02*
X45140401Y-76684210D01*
X45378496Y-77160401D02*
X45378496Y-76160401D01*
X44997543Y-76160401D01*
X44902305Y-76208020D01*
X44854686Y-76255639D01*
X44807067Y-76350877D01*
X44807067Y-76493734D01*
X44854686Y-76588972D01*
X44902305Y-76636591D01*
X44997543Y-76684210D01*
X45378496Y-76684210D01*
X43854686Y-77160401D02*
X44426115Y-77160401D01*
X44140401Y-77160401D02*
X44140401Y-76160401D01*
X44235639Y-76303258D01*
X44330877Y-76398496D01*
X44426115Y-76446115D01*
X43235639Y-76160401D02*
X43140400Y-76160401D01*
X43045162Y-76208020D01*
X42997543Y-76255639D01*
X42949924Y-76350877D01*
X42902305Y-76541353D01*
X42902305Y-76779449D01*
X42949924Y-76969925D01*
X42997543Y-77065163D01*
X43045162Y-77112782D01*
X43140400Y-77160401D01*
X43235639Y-77160401D01*
X43330877Y-77112782D01*
X43378496Y-77065163D01*
X43426115Y-76969925D01*
X43473734Y-76779449D01*
X43473734Y-76541353D01*
X43426115Y-76350877D01*
X43378496Y-76255639D01*
X43330877Y-76208020D01*
X43235639Y-76160401D01*
X41997543Y-76160401D02*
X42473734Y-76160401D01*
X42521353Y-76636591D01*
X42473734Y-76588972D01*
X42378496Y-76541353D01*
X42140400Y-76541353D01*
X42045162Y-76588972D01*
X41997543Y-76636591D01*
X41949924Y-76731830D01*
X41949924Y-76969925D01*
X41997543Y-77065163D01*
X42045162Y-77112782D01*
X42140400Y-77160401D01*
X42378496Y-77160401D01*
X42473734Y-77112782D01*
X42521353Y-77065163D01*
X45061067Y-79573401D02*
X45394401Y-79097210D01*
X45632496Y-79573401D02*
X45632496Y-78573401D01*
X45251543Y-78573401D01*
X45156305Y-78621020D01*
X45108686Y-78668639D01*
X45061067Y-78763877D01*
X45061067Y-78906734D01*
X45108686Y-79001972D01*
X45156305Y-79049591D01*
X45251543Y-79097210D01*
X45632496Y-79097210D01*
X44108686Y-79573401D02*
X44680115Y-79573401D01*
X44394401Y-79573401D02*
X44394401Y-78573401D01*
X44489639Y-78716258D01*
X44584877Y-78811496D01*
X44680115Y-78859115D01*
X43489639Y-78573401D02*
X43394400Y-78573401D01*
X43299162Y-78621020D01*
X43251543Y-78668639D01*
X43203924Y-78763877D01*
X43156305Y-78954353D01*
X43156305Y-79192449D01*
X43203924Y-79382925D01*
X43251543Y-79478163D01*
X43299162Y-79525782D01*
X43394400Y-79573401D01*
X43489639Y-79573401D01*
X43584877Y-79525782D01*
X43632496Y-79478163D01*
X43680115Y-79382925D01*
X43727734Y-79192449D01*
X43727734Y-78954353D01*
X43680115Y-78763877D01*
X43632496Y-78668639D01*
X43584877Y-78621020D01*
X43489639Y-78573401D01*
X42822972Y-78573401D02*
X42156305Y-78573401D01*
X42584877Y-79573401D01*
X55221067Y-75001401D02*
X55554401Y-74525210D01*
X55792496Y-75001401D02*
X55792496Y-74001401D01*
X55411543Y-74001401D01*
X55316305Y-74049020D01*
X55268686Y-74096639D01*
X55221067Y-74191877D01*
X55221067Y-74334734D01*
X55268686Y-74429972D01*
X55316305Y-74477591D01*
X55411543Y-74525210D01*
X55792496Y-74525210D01*
X54268686Y-75001401D02*
X54840115Y-75001401D01*
X54554401Y-75001401D02*
X54554401Y-74001401D01*
X54649639Y-74144258D01*
X54744877Y-74239496D01*
X54840115Y-74287115D01*
X53649639Y-74001401D02*
X53554400Y-74001401D01*
X53459162Y-74049020D01*
X53411543Y-74096639D01*
X53363924Y-74191877D01*
X53316305Y-74382353D01*
X53316305Y-74620449D01*
X53363924Y-74810925D01*
X53411543Y-74906163D01*
X53459162Y-74953782D01*
X53554400Y-75001401D01*
X53649639Y-75001401D01*
X53744877Y-74953782D01*
X53792496Y-74906163D01*
X53840115Y-74810925D01*
X53887734Y-74620449D01*
X53887734Y-74382353D01*
X53840115Y-74191877D01*
X53792496Y-74096639D01*
X53744877Y-74049020D01*
X53649639Y-74001401D01*
X52744877Y-74429972D02*
X52840115Y-74382353D01*
X52887734Y-74334734D01*
X52935353Y-74239496D01*
X52935353Y-74191877D01*
X52887734Y-74096639D01*
X52840115Y-74049020D01*
X52744877Y-74001401D01*
X52554400Y-74001401D01*
X52459162Y-74049020D01*
X52411543Y-74096639D01*
X52363924Y-74191877D01*
X52363924Y-74239496D01*
X52411543Y-74334734D01*
X52459162Y-74382353D01*
X52554400Y-74429972D01*
X52744877Y-74429972D01*
X52840115Y-74477591D01*
X52887734Y-74525210D01*
X52935353Y-74620449D01*
X52935353Y-74810925D01*
X52887734Y-74906163D01*
X52840115Y-74953782D01*
X52744877Y-75001401D01*
X52554400Y-75001401D01*
X52459162Y-74953782D01*
X52411543Y-74906163D01*
X52363924Y-74810925D01*
X52363924Y-74620449D01*
X52411543Y-74525210D01*
X52459162Y-74477591D01*
X52554400Y-74429972D01*
X40616067Y-73731401D02*
X40949401Y-73255210D01*
X41187496Y-73731401D02*
X41187496Y-72731401D01*
X40806543Y-72731401D01*
X40711305Y-72779020D01*
X40663686Y-72826639D01*
X40616067Y-72921877D01*
X40616067Y-73064734D01*
X40663686Y-73159972D01*
X40711305Y-73207591D01*
X40806543Y-73255210D01*
X41187496Y-73255210D01*
X39663686Y-73731401D02*
X40235115Y-73731401D01*
X39949401Y-73731401D02*
X39949401Y-72731401D01*
X40044639Y-72874258D01*
X40139877Y-72969496D01*
X40235115Y-73017115D01*
X39044639Y-72731401D02*
X38949400Y-72731401D01*
X38854162Y-72779020D01*
X38806543Y-72826639D01*
X38758924Y-72921877D01*
X38711305Y-73112353D01*
X38711305Y-73350449D01*
X38758924Y-73540925D01*
X38806543Y-73636163D01*
X38854162Y-73683782D01*
X38949400Y-73731401D01*
X39044639Y-73731401D01*
X39139877Y-73683782D01*
X39187496Y-73636163D01*
X39235115Y-73540925D01*
X39282734Y-73350449D01*
X39282734Y-73112353D01*
X39235115Y-72921877D01*
X39187496Y-72826639D01*
X39139877Y-72779020D01*
X39044639Y-72731401D01*
X38235115Y-73731401D02*
X38044639Y-73731401D01*
X37949400Y-73683782D01*
X37901781Y-73636163D01*
X37806543Y-73493306D01*
X37758924Y-73302830D01*
X37758924Y-72921877D01*
X37806543Y-72826639D01*
X37854162Y-72779020D01*
X37949400Y-72731401D01*
X38139877Y-72731401D01*
X38235115Y-72779020D01*
X38282734Y-72826639D01*
X38330353Y-72921877D01*
X38330353Y-73159972D01*
X38282734Y-73255210D01*
X38235115Y-73302830D01*
X38139877Y-73350449D01*
X37949400Y-73350449D01*
X37854162Y-73302830D01*
X37806543Y-73255210D01*
X37758924Y-73159972D01*
X51538067Y-68905401D02*
X51871401Y-68429210D01*
X52109496Y-68905401D02*
X52109496Y-67905401D01*
X51728543Y-67905401D01*
X51633305Y-67953020D01*
X51585686Y-68000639D01*
X51538067Y-68095877D01*
X51538067Y-68238734D01*
X51585686Y-68333972D01*
X51633305Y-68381591D01*
X51728543Y-68429210D01*
X52109496Y-68429210D01*
X50585686Y-68905401D02*
X51157115Y-68905401D01*
X50871401Y-68905401D02*
X50871401Y-67905401D01*
X50966639Y-68048258D01*
X51061877Y-68143496D01*
X51157115Y-68191115D01*
X49633305Y-68905401D02*
X50204734Y-68905401D01*
X49919020Y-68905401D02*
X49919020Y-67905401D01*
X50014258Y-68048258D01*
X50109496Y-68143496D01*
X50204734Y-68191115D01*
X49014258Y-67905401D02*
X48919019Y-67905401D01*
X48823781Y-67953020D01*
X48776162Y-68000639D01*
X48728543Y-68095877D01*
X48680924Y-68286353D01*
X48680924Y-68524449D01*
X48728543Y-68714925D01*
X48776162Y-68810163D01*
X48823781Y-68857782D01*
X48919019Y-68905401D01*
X49014258Y-68905401D01*
X49109496Y-68857782D01*
X49157115Y-68810163D01*
X49204734Y-68714925D01*
X49252353Y-68524449D01*
X49252353Y-68286353D01*
X49204734Y-68095877D01*
X49157115Y-68000639D01*
X49109496Y-67953020D01*
X49014258Y-67905401D01*
X51919067Y-72334401D02*
X52252401Y-71858210D01*
X52490496Y-72334401D02*
X52490496Y-71334401D01*
X52109543Y-71334401D01*
X52014305Y-71382020D01*
X51966686Y-71429639D01*
X51919067Y-71524877D01*
X51919067Y-71667734D01*
X51966686Y-71762972D01*
X52014305Y-71810591D01*
X52109543Y-71858210D01*
X52490496Y-71858210D01*
X50966686Y-72334401D02*
X51538115Y-72334401D01*
X51252401Y-72334401D02*
X51252401Y-71334401D01*
X51347639Y-71477258D01*
X51442877Y-71572496D01*
X51538115Y-71620115D01*
X50014305Y-72334401D02*
X50585734Y-72334401D01*
X50300020Y-72334401D02*
X50300020Y-71334401D01*
X50395258Y-71477258D01*
X50490496Y-71572496D01*
X50585734Y-71620115D01*
X49061924Y-72334401D02*
X49633353Y-72334401D01*
X49347639Y-72334401D02*
X49347639Y-71334401D01*
X49442877Y-71477258D01*
X49538115Y-71572496D01*
X49633353Y-71620115D01*
X42036925Y-82383401D02*
X42036925Y-83192925D01*
X41989306Y-83288163D01*
X41941687Y-83335782D01*
X41846449Y-83383401D01*
X41655972Y-83383401D01*
X41560734Y-83335782D01*
X41513115Y-83288163D01*
X41465496Y-83192925D01*
X41465496Y-82383401D01*
X40465496Y-83383401D02*
X41036925Y-83383401D01*
X40751211Y-83383401D02*
X40751211Y-82383401D01*
X40846449Y-82526258D01*
X40941687Y-82621496D01*
X41036925Y-82669115D01*
X42195515Y-28846523D02*
X42195515Y-29656047D01*
X42147896Y-29751285D01*
X42100277Y-29798904D01*
X42005039Y-29846523D01*
X41814562Y-29846523D01*
X41719324Y-29798904D01*
X41671705Y-29751285D01*
X41624086Y-29656047D01*
X41624086Y-28846523D01*
X40719324Y-29179856D02*
X40719324Y-29846523D01*
X40957420Y-28798904D02*
X41195515Y-29513190D01*
X40576467Y-29513190D01*
X22312401Y-48006115D02*
X23121925Y-48006115D01*
X23217163Y-48053734D01*
X23264782Y-48101353D01*
X23312401Y-48196591D01*
X23312401Y-48387068D01*
X23264782Y-48482306D01*
X23217163Y-48529925D01*
X23121925Y-48577544D01*
X22312401Y-48577544D01*
X22312401Y-49529925D02*
X22312401Y-49053734D01*
X22788591Y-49006115D01*
X22740972Y-49053734D01*
X22693353Y-49148972D01*
X22693353Y-49387068D01*
X22740972Y-49482306D01*
X22788591Y-49529925D01*
X22883830Y-49577544D01*
X23121925Y-49577544D01*
X23217163Y-49529925D01*
X23264782Y-49482306D01*
X23312401Y-49387068D01*
X23312401Y-49148972D01*
X23264782Y-49053734D01*
X23217163Y-49006115D01*
X48355115Y-70064401D02*
X48355115Y-70873925D01*
X48307496Y-70969163D01*
X48259877Y-71016782D01*
X48164639Y-71064401D01*
X47974162Y-71064401D01*
X47878924Y-71016782D01*
X47831305Y-70969163D01*
X47783686Y-70873925D01*
X47783686Y-70064401D01*
X46783686Y-71064401D02*
X47355115Y-71064401D01*
X47069401Y-71064401D02*
X47069401Y-70064401D01*
X47164639Y-70207258D01*
X47259877Y-70302496D01*
X47355115Y-70350115D01*
X46402734Y-70159639D02*
X46355115Y-70112020D01*
X46259877Y-70064401D01*
X46021781Y-70064401D01*
X45926543Y-70112020D01*
X45878924Y-70159639D01*
X45831305Y-70254877D01*
X45831305Y-70350115D01*
X45878924Y-70492972D01*
X46450353Y-71064401D01*
X45831305Y-71064401D01*
X62408841Y-69069125D02*
X63218365Y-69069125D01*
X63313603Y-69116744D01*
X63361222Y-69164363D01*
X63408841Y-69259601D01*
X63408841Y-69450078D01*
X63361222Y-69545316D01*
X63313603Y-69592935D01*
X63218365Y-69640554D01*
X62408841Y-69640554D01*
X63408841Y-70640554D02*
X63408841Y-70069125D01*
X63408841Y-70354839D02*
X62408841Y-70354839D01*
X62551698Y-70259601D01*
X62646936Y-70164363D01*
X62694555Y-70069125D01*
X62408841Y-70973887D02*
X62408841Y-71592935D01*
X62789793Y-71259601D01*
X62789793Y-71402459D01*
X62837412Y-71497697D01*
X62885031Y-71545316D01*
X62980270Y-71592935D01*
X63218365Y-71592935D01*
X63313603Y-71545316D01*
X63361222Y-71497697D01*
X63408841Y-71402459D01*
X63408841Y-71116744D01*
X63361222Y-71021506D01*
X63313603Y-70973887D01*
X66674925Y-26122401D02*
X66674925Y-26931925D01*
X66627306Y-27027163D01*
X66579687Y-27074782D01*
X66484449Y-27122401D01*
X66293972Y-27122401D01*
X66198734Y-27074782D01*
X66151115Y-27027163D01*
X66103496Y-26931925D01*
X66103496Y-26122401D01*
X65722544Y-26122401D02*
X65055877Y-26122401D01*
X65484449Y-27122401D01*
X97408925Y-67651401D02*
X97408925Y-68460925D01*
X97361306Y-68556163D01*
X97313687Y-68603782D01*
X97218449Y-68651401D01*
X97027972Y-68651401D01*
X96932734Y-68603782D01*
X96885115Y-68556163D01*
X96837496Y-68460925D01*
X96837496Y-67651401D01*
X96313687Y-68651401D02*
X96123211Y-68651401D01*
X96027972Y-68603782D01*
X95980353Y-68556163D01*
X95885115Y-68413306D01*
X95837496Y-68222830D01*
X95837496Y-67841877D01*
X95885115Y-67746639D01*
X95932734Y-67699020D01*
X96027972Y-67651401D01*
X96218449Y-67651401D01*
X96313687Y-67699020D01*
X96361306Y-67746639D01*
X96408925Y-67841877D01*
X96408925Y-68079972D01*
X96361306Y-68175210D01*
X96313687Y-68222830D01*
X96218449Y-68270449D01*
X96027972Y-68270449D01*
X95932734Y-68222830D01*
X95885115Y-68175210D01*
X95837496Y-68079972D01*
X101695115Y-61301401D02*
X101695115Y-62110925D01*
X101647496Y-62206163D01*
X101599877Y-62253782D01*
X101504639Y-62301401D01*
X101314162Y-62301401D01*
X101218924Y-62253782D01*
X101171305Y-62206163D01*
X101123686Y-62110925D01*
X101123686Y-61301401D01*
X100123686Y-62301401D02*
X100695115Y-62301401D01*
X100409401Y-62301401D02*
X100409401Y-61301401D01*
X100504639Y-61444258D01*
X100599877Y-61539496D01*
X100695115Y-61587115D01*
X99504639Y-61301401D02*
X99409400Y-61301401D01*
X99314162Y-61349020D01*
X99266543Y-61396639D01*
X99218924Y-61491877D01*
X99171305Y-61682353D01*
X99171305Y-61920449D01*
X99218924Y-62110925D01*
X99266543Y-62206163D01*
X99314162Y-62253782D01*
X99409400Y-62301401D01*
X99504639Y-62301401D01*
X99599877Y-62253782D01*
X99647496Y-62206163D01*
X99695115Y-62110925D01*
X99742734Y-61920449D01*
X99742734Y-61682353D01*
X99695115Y-61491877D01*
X99647496Y-61396639D01*
X99599877Y-61349020D01*
X99504639Y-61301401D01*
X75382401Y-69238973D02*
X74906210Y-68905639D01*
X75382401Y-68667544D02*
X74382401Y-68667544D01*
X74382401Y-69048497D01*
X74430020Y-69143735D01*
X74477639Y-69191354D01*
X74572877Y-69238973D01*
X74715734Y-69238973D01*
X74810972Y-69191354D01*
X74858591Y-69143735D01*
X74906210Y-69048497D01*
X74906210Y-68667544D01*
X75382401Y-70191354D02*
X75382401Y-69619925D01*
X75382401Y-69905639D02*
X74382401Y-69905639D01*
X74525258Y-69810401D01*
X74620496Y-69715163D01*
X74668115Y-69619925D01*
X75382401Y-71143735D02*
X75382401Y-70572306D01*
X75382401Y-70858020D02*
X74382401Y-70858020D01*
X74525258Y-70762782D01*
X74620496Y-70667544D01*
X74668115Y-70572306D01*
X74477639Y-71524687D02*
X74430020Y-71572306D01*
X74382401Y-71667544D01*
X74382401Y-71905640D01*
X74430020Y-72000878D01*
X74477639Y-72048497D01*
X74572877Y-72096116D01*
X74668115Y-72096116D01*
X74810972Y-72048497D01*
X75382401Y-71477068D01*
X75382401Y-72096116D01*
X33885067Y-80081401D02*
X34218401Y-79605210D01*
X34456496Y-80081401D02*
X34456496Y-79081401D01*
X34075543Y-79081401D01*
X33980305Y-79129020D01*
X33932686Y-79176639D01*
X33885067Y-79271877D01*
X33885067Y-79414734D01*
X33932686Y-79509972D01*
X33980305Y-79557591D01*
X34075543Y-79605210D01*
X34456496Y-79605210D01*
X32932686Y-80081401D02*
X33504115Y-80081401D01*
X33218401Y-80081401D02*
X33218401Y-79081401D01*
X33313639Y-79224258D01*
X33408877Y-79319496D01*
X33504115Y-79367115D01*
X31980305Y-80081401D02*
X32551734Y-80081401D01*
X32266020Y-80081401D02*
X32266020Y-79081401D01*
X32361258Y-79224258D01*
X32456496Y-79319496D01*
X32551734Y-79367115D01*
X31646972Y-79081401D02*
X31027924Y-79081401D01*
X31361258Y-79462353D01*
X31218400Y-79462353D01*
X31123162Y-79509972D01*
X31075543Y-79557591D01*
X31027924Y-79652830D01*
X31027924Y-79890925D01*
X31075543Y-79986163D01*
X31123162Y-80033782D01*
X31218400Y-80081401D01*
X31504115Y-80081401D01*
X31599353Y-80033782D01*
X31646972Y-79986163D01*
X11025163Y-63873163D02*
X11072782Y-63825544D01*
X11120401Y-63682687D01*
X11120401Y-63587449D01*
X11072782Y-63444591D01*
X10977544Y-63349353D01*
X10882306Y-63301734D01*
X10691830Y-63254115D01*
X10548972Y-63254115D01*
X10358496Y-63301734D01*
X10263258Y-63349353D01*
X10168020Y-63444591D01*
X10120401Y-63587449D01*
X10120401Y-63682687D01*
X10168020Y-63825544D01*
X10215639Y-63873163D01*
X11120401Y-64349353D02*
X11120401Y-64539829D01*
X11072782Y-64635068D01*
X11025163Y-64682687D01*
X10882306Y-64777925D01*
X10691830Y-64825544D01*
X10310877Y-64825544D01*
X10215639Y-64777925D01*
X10168020Y-64730306D01*
X10120401Y-64635068D01*
X10120401Y-64444591D01*
X10168020Y-64349353D01*
X10215639Y-64301734D01*
X10310877Y-64254115D01*
X10548972Y-64254115D01*
X10644210Y-64301734D01*
X10691830Y-64349353D01*
X10739449Y-64444591D01*
X10739449Y-64635068D01*
X10691830Y-64730306D01*
X10644210Y-64777925D01*
X10548972Y-64825544D01*
X10120401Y-65682687D02*
X10120401Y-65492210D01*
X10168020Y-65396972D01*
X10215639Y-65349353D01*
X10358496Y-65254115D01*
X10548972Y-65206496D01*
X10929925Y-65206496D01*
X11025163Y-65254115D01*
X11072782Y-65301734D01*
X11120401Y-65396972D01*
X11120401Y-65587449D01*
X11072782Y-65682687D01*
X11025163Y-65730306D01*
X10929925Y-65777925D01*
X10691830Y-65777925D01*
X10596591Y-65730306D01*
X10548972Y-65682687D01*
X10501353Y-65587449D01*
X10501353Y-65396972D01*
X10548972Y-65301734D01*
X10596591Y-65254115D01*
X10691830Y-65206496D01*
X20931067Y-5786401D02*
X21264401Y-5310210D01*
X21502496Y-5786401D02*
X21502496Y-4786401D01*
X21121543Y-4786401D01*
X21026305Y-4834020D01*
X20978686Y-4881639D01*
X20931067Y-4976877D01*
X20931067Y-5119734D01*
X20978686Y-5214972D01*
X21026305Y-5262591D01*
X21121543Y-5310210D01*
X21502496Y-5310210D01*
X19978686Y-5786401D02*
X20550115Y-5786401D01*
X20264401Y-5786401D02*
X20264401Y-4786401D01*
X20359639Y-4929258D01*
X20454877Y-5024496D01*
X20550115Y-5072115D01*
X19597734Y-4881639D02*
X19550115Y-4834020D01*
X19454877Y-4786401D01*
X19216781Y-4786401D01*
X19121543Y-4834020D01*
X19073924Y-4881639D01*
X19026305Y-4976877D01*
X19026305Y-5072115D01*
X19073924Y-5214972D01*
X19645353Y-5786401D01*
X19026305Y-5786401D01*
X18550115Y-5786401D02*
X18359639Y-5786401D01*
X18264400Y-5738782D01*
X18216781Y-5691163D01*
X18121543Y-5548306D01*
X18073924Y-5357830D01*
X18073924Y-4976877D01*
X18121543Y-4881639D01*
X18169162Y-4834020D01*
X18264400Y-4786401D01*
X18454877Y-4786401D01*
X18550115Y-4834020D01*
X18597734Y-4881639D01*
X18645353Y-4976877D01*
X18645353Y-5214972D01*
X18597734Y-5310210D01*
X18550115Y-5357830D01*
X18454877Y-5405449D01*
X18264400Y-5405449D01*
X18169162Y-5357830D01*
X18121543Y-5310210D01*
X18073924Y-5214972D01*
X20931067Y-7818401D02*
X21264401Y-7342210D01*
X21502496Y-7818401D02*
X21502496Y-6818401D01*
X21121543Y-6818401D01*
X21026305Y-6866020D01*
X20978686Y-6913639D01*
X20931067Y-7008877D01*
X20931067Y-7151734D01*
X20978686Y-7246972D01*
X21026305Y-7294591D01*
X21121543Y-7342210D01*
X21502496Y-7342210D01*
X19978686Y-7818401D02*
X20550115Y-7818401D01*
X20264401Y-7818401D02*
X20264401Y-6818401D01*
X20359639Y-6961258D01*
X20454877Y-7056496D01*
X20550115Y-7104115D01*
X19645353Y-6818401D02*
X19026305Y-6818401D01*
X19359639Y-7199353D01*
X19216781Y-7199353D01*
X19121543Y-7246972D01*
X19073924Y-7294591D01*
X19026305Y-7389830D01*
X19026305Y-7627925D01*
X19073924Y-7723163D01*
X19121543Y-7770782D01*
X19216781Y-7818401D01*
X19502496Y-7818401D01*
X19597734Y-7770782D01*
X19645353Y-7723163D01*
X18407258Y-6818401D02*
X18312019Y-6818401D01*
X18216781Y-6866020D01*
X18169162Y-6913639D01*
X18121543Y-7008877D01*
X18073924Y-7199353D01*
X18073924Y-7437449D01*
X18121543Y-7627925D01*
X18169162Y-7723163D01*
X18216781Y-7770782D01*
X18312019Y-7818401D01*
X18407258Y-7818401D01*
X18502496Y-7770782D01*
X18550115Y-7723163D01*
X18597734Y-7627925D01*
X18645353Y-7437449D01*
X18645353Y-7199353D01*
X18597734Y-7008877D01*
X18550115Y-6913639D01*
X18502496Y-6866020D01*
X18407258Y-6818401D01*
X14581163Y-6850163D02*
X14628782Y-6802544D01*
X14676401Y-6659687D01*
X14676401Y-6564449D01*
X14628782Y-6421591D01*
X14533544Y-6326353D01*
X14438306Y-6278734D01*
X14247830Y-6231115D01*
X14104972Y-6231115D01*
X13914496Y-6278734D01*
X13819258Y-6326353D01*
X13724020Y-6421591D01*
X13676401Y-6564449D01*
X13676401Y-6659687D01*
X13724020Y-6802544D01*
X13771639Y-6850163D01*
X13771639Y-7231115D02*
X13724020Y-7278734D01*
X13676401Y-7373972D01*
X13676401Y-7612068D01*
X13724020Y-7707306D01*
X13771639Y-7754925D01*
X13866877Y-7802544D01*
X13962115Y-7802544D01*
X14104972Y-7754925D01*
X14676401Y-7183496D01*
X14676401Y-7802544D01*
X13771639Y-8183496D02*
X13724020Y-8231115D01*
X13676401Y-8326353D01*
X13676401Y-8564449D01*
X13724020Y-8659687D01*
X13771639Y-8707306D01*
X13866877Y-8754925D01*
X13962115Y-8754925D01*
X14104972Y-8707306D01*
X14676401Y-8135877D01*
X14676401Y-8754925D01*
X92035401Y-27717925D02*
X92844925Y-27717925D01*
X92940163Y-27765544D01*
X92987782Y-27813163D01*
X93035401Y-27908401D01*
X93035401Y-28098878D01*
X92987782Y-28194116D01*
X92940163Y-28241735D01*
X92844925Y-28289354D01*
X92035401Y-28289354D01*
X93035401Y-29289354D02*
X93035401Y-28717925D01*
X93035401Y-29003639D02*
X92035401Y-29003639D01*
X92178258Y-28908401D01*
X92273496Y-28813163D01*
X92321115Y-28717925D01*
X93035401Y-30241735D02*
X93035401Y-29670306D01*
X93035401Y-29956020D02*
X92035401Y-29956020D01*
X92178258Y-29860782D01*
X92273496Y-29765544D01*
X92321115Y-29670306D01*
X78811401Y-23518973D02*
X78335210Y-23185639D01*
X78811401Y-22947544D02*
X77811401Y-22947544D01*
X77811401Y-23328497D01*
X77859020Y-23423735D01*
X77906639Y-23471354D01*
X78001877Y-23518973D01*
X78144734Y-23518973D01*
X78239972Y-23471354D01*
X78287591Y-23423735D01*
X78335210Y-23328497D01*
X78335210Y-22947544D01*
X78811401Y-24471354D02*
X78811401Y-23899925D01*
X78811401Y-24185639D02*
X77811401Y-24185639D01*
X77954258Y-24090401D01*
X78049496Y-23995163D01*
X78097115Y-23899925D01*
X77811401Y-24804687D02*
X77811401Y-25423735D01*
X78192353Y-25090401D01*
X78192353Y-25233259D01*
X78239972Y-25328497D01*
X78287591Y-25376116D01*
X78382830Y-25423735D01*
X78620925Y-25423735D01*
X78716163Y-25376116D01*
X78763782Y-25328497D01*
X78811401Y-25233259D01*
X78811401Y-24947544D01*
X78763782Y-24852306D01*
X78716163Y-24804687D01*
X78811401Y-26376116D02*
X78811401Y-25804687D01*
X78811401Y-26090401D02*
X77811401Y-26090401D01*
X77954258Y-25995163D01*
X78049496Y-25899925D01*
X78097115Y-25804687D01*
X77160401Y-23506697D02*
X76684210Y-23173363D01*
X77160401Y-22935268D02*
X76160401Y-22935268D01*
X76160401Y-23316221D01*
X76208020Y-23411459D01*
X76255639Y-23459078D01*
X76350877Y-23506697D01*
X76493734Y-23506697D01*
X76588972Y-23459078D01*
X76636591Y-23411459D01*
X76684210Y-23316221D01*
X76684210Y-22935268D01*
X77160401Y-24459078D02*
X77160401Y-23887649D01*
X77160401Y-24173363D02*
X76160401Y-24173363D01*
X76303258Y-24078125D01*
X76398496Y-23982887D01*
X76446115Y-23887649D01*
X76160401Y-24792411D02*
X76160401Y-25411459D01*
X76541353Y-25078125D01*
X76541353Y-25220983D01*
X76588972Y-25316221D01*
X76636591Y-25363840D01*
X76731830Y-25411459D01*
X76969925Y-25411459D01*
X77065163Y-25363840D01*
X77112782Y-25316221D01*
X77160401Y-25220983D01*
X77160401Y-24935268D01*
X77112782Y-24840030D01*
X77065163Y-24792411D01*
X76255639Y-25792411D02*
X76208020Y-25840030D01*
X76160401Y-25935268D01*
X76160401Y-26173364D01*
X76208020Y-26268602D01*
X76255639Y-26316221D01*
X76350877Y-26363840D01*
X76446115Y-26363840D01*
X76588972Y-26316221D01*
X77160401Y-25744792D01*
X77160401Y-26363840D01*
X116339877Y-10009163D02*
X116387496Y-10056782D01*
X116530353Y-10104401D01*
X116625591Y-10104401D01*
X116768449Y-10056782D01*
X116863687Y-9961544D01*
X116911306Y-9866306D01*
X116958925Y-9675830D01*
X116958925Y-9532972D01*
X116911306Y-9342496D01*
X116863687Y-9247258D01*
X116768449Y-9152020D01*
X116625591Y-9104401D01*
X116530353Y-9104401D01*
X116387496Y-9152020D01*
X116339877Y-9199639D01*
X115863687Y-10104401D02*
X115673211Y-10104401D01*
X115577972Y-10056782D01*
X115530353Y-10009163D01*
X115435115Y-9866306D01*
X115387496Y-9675830D01*
X115387496Y-9294877D01*
X115435115Y-9199639D01*
X115482734Y-9152020D01*
X115577972Y-9104401D01*
X115768449Y-9104401D01*
X115863687Y-9152020D01*
X115911306Y-9199639D01*
X115958925Y-9294877D01*
X115958925Y-9532972D01*
X115911306Y-9628210D01*
X115863687Y-9675830D01*
X115768449Y-9723449D01*
X115577972Y-9723449D01*
X115482734Y-9675830D01*
X115435115Y-9628210D01*
X115387496Y-9532972D01*
X115054163Y-9104401D02*
X114387496Y-9104401D01*
X114816068Y-10104401D01*
X53376642Y-57871257D02*
X53376642Y-57449494D01*
X54039413Y-57449494D02*
X52774123Y-57449494D01*
X52774123Y-58052013D01*
X52774123Y-58413524D02*
X52774123Y-59196798D01*
X53256138Y-58775035D01*
X53256138Y-58955791D01*
X53316390Y-59076295D01*
X53376642Y-59136547D01*
X53497146Y-59196798D01*
X53798405Y-59196798D01*
X53918909Y-59136547D01*
X53979161Y-59076295D01*
X54039413Y-58955791D01*
X54039413Y-58594279D01*
X53979161Y-58473776D01*
X53918909Y-58413524D01*
X18137067Y-59888401D02*
X18470401Y-59412210D01*
X18708496Y-59888401D02*
X18708496Y-58888401D01*
X18327543Y-58888401D01*
X18232305Y-58936020D01*
X18184686Y-58983639D01*
X18137067Y-59078877D01*
X18137067Y-59221734D01*
X18184686Y-59316972D01*
X18232305Y-59364591D01*
X18327543Y-59412210D01*
X18708496Y-59412210D01*
X17184686Y-59888401D02*
X17756115Y-59888401D01*
X17470401Y-59888401D02*
X17470401Y-58888401D01*
X17565639Y-59031258D01*
X17660877Y-59126496D01*
X17756115Y-59174115D01*
X16232305Y-59888401D02*
X16803734Y-59888401D01*
X16518020Y-59888401D02*
X16518020Y-58888401D01*
X16613258Y-59031258D01*
X16708496Y-59126496D01*
X16803734Y-59174115D01*
X15375162Y-59221734D02*
X15375162Y-59888401D01*
X15613258Y-58840782D02*
X15851353Y-59555068D01*
X15232305Y-59555068D01*
X116943067Y-8707401D02*
X117276401Y-8231210D01*
X117514496Y-8707401D02*
X117514496Y-7707401D01*
X117133543Y-7707401D01*
X117038305Y-7755020D01*
X116990686Y-7802639D01*
X116943067Y-7897877D01*
X116943067Y-8040734D01*
X116990686Y-8135972D01*
X117038305Y-8183591D01*
X117133543Y-8231210D01*
X117514496Y-8231210D01*
X115990686Y-8707401D02*
X116562115Y-8707401D01*
X116276401Y-8707401D02*
X116276401Y-7707401D01*
X116371639Y-7850258D01*
X116466877Y-7945496D01*
X116562115Y-7993115D01*
X115657353Y-7707401D02*
X115038305Y-7707401D01*
X115371639Y-8088353D01*
X115228781Y-8088353D01*
X115133543Y-8135972D01*
X115085924Y-8183591D01*
X115038305Y-8278830D01*
X115038305Y-8516925D01*
X115085924Y-8612163D01*
X115133543Y-8659782D01*
X115228781Y-8707401D01*
X115514496Y-8707401D01*
X115609734Y-8659782D01*
X115657353Y-8612163D01*
X114704972Y-7707401D02*
X114085924Y-7707401D01*
X114419258Y-8088353D01*
X114276400Y-8088353D01*
X114181162Y-8135972D01*
X114133543Y-8183591D01*
X114085924Y-8278830D01*
X114085924Y-8516925D01*
X114133543Y-8612163D01*
X114181162Y-8659782D01*
X114276400Y-8707401D01*
X114562115Y-8707401D01*
X114657353Y-8659782D01*
X114704972Y-8612163D01*
X100052067Y-14549401D02*
X100385401Y-14073210D01*
X100623496Y-14549401D02*
X100623496Y-13549401D01*
X100242543Y-13549401D01*
X100147305Y-13597020D01*
X100099686Y-13644639D01*
X100052067Y-13739877D01*
X100052067Y-13882734D01*
X100099686Y-13977972D01*
X100147305Y-14025591D01*
X100242543Y-14073210D01*
X100623496Y-14073210D01*
X99099686Y-14549401D02*
X99671115Y-14549401D01*
X99385401Y-14549401D02*
X99385401Y-13549401D01*
X99480639Y-13692258D01*
X99575877Y-13787496D01*
X99671115Y-13835115D01*
X98766353Y-13549401D02*
X98147305Y-13549401D01*
X98480639Y-13930353D01*
X98337781Y-13930353D01*
X98242543Y-13977972D01*
X98194924Y-14025591D01*
X98147305Y-14120830D01*
X98147305Y-14358925D01*
X98194924Y-14454163D01*
X98242543Y-14501782D01*
X98337781Y-14549401D01*
X98623496Y-14549401D01*
X98718734Y-14501782D01*
X98766353Y-14454163D01*
X97290162Y-13882734D02*
X97290162Y-14549401D01*
X97528258Y-13501782D02*
X97766353Y-14216068D01*
X97147305Y-14216068D01*
X83700877Y-21947163D02*
X83748496Y-21994782D01*
X83891353Y-22042401D01*
X83986591Y-22042401D01*
X84129449Y-21994782D01*
X84224687Y-21899544D01*
X84272306Y-21804306D01*
X84319925Y-21613830D01*
X84319925Y-21470972D01*
X84272306Y-21280496D01*
X84224687Y-21185258D01*
X84129449Y-21090020D01*
X83986591Y-21042401D01*
X83891353Y-21042401D01*
X83748496Y-21090020D01*
X83700877Y-21137639D01*
X83224687Y-22042401D02*
X83034211Y-22042401D01*
X82938972Y-21994782D01*
X82891353Y-21947163D01*
X82796115Y-21804306D01*
X82748496Y-21613830D01*
X82748496Y-21232877D01*
X82796115Y-21137639D01*
X82843734Y-21090020D01*
X82938972Y-21042401D01*
X83129449Y-21042401D01*
X83224687Y-21090020D01*
X83272306Y-21137639D01*
X83319925Y-21232877D01*
X83319925Y-21470972D01*
X83272306Y-21566210D01*
X83224687Y-21613830D01*
X83129449Y-21661449D01*
X82938972Y-21661449D01*
X82843734Y-21613830D01*
X82796115Y-21566210D01*
X82748496Y-21470972D01*
X82177068Y-21470972D02*
X82272306Y-21423353D01*
X82319925Y-21375734D01*
X82367544Y-21280496D01*
X82367544Y-21232877D01*
X82319925Y-21137639D01*
X82272306Y-21090020D01*
X82177068Y-21042401D01*
X81986591Y-21042401D01*
X81891353Y-21090020D01*
X81843734Y-21137639D01*
X81796115Y-21232877D01*
X81796115Y-21280496D01*
X81843734Y-21375734D01*
X81891353Y-21423353D01*
X81986591Y-21470972D01*
X82177068Y-21470972D01*
X82272306Y-21518591D01*
X82319925Y-21566210D01*
X82367544Y-21661449D01*
X82367544Y-21851925D01*
X82319925Y-21947163D01*
X82272306Y-21994782D01*
X82177068Y-22042401D01*
X81986591Y-22042401D01*
X81891353Y-21994782D01*
X81843734Y-21947163D01*
X81796115Y-21851925D01*
X81796115Y-21661449D01*
X81843734Y-21566210D01*
X81891353Y-21518591D01*
X81986591Y-21470972D01*
X48617067Y-36020163D02*
X48664686Y-36067782D01*
X48807543Y-36115401D01*
X48902781Y-36115401D01*
X49045639Y-36067782D01*
X49140877Y-35972544D01*
X49188496Y-35877306D01*
X49236115Y-35686830D01*
X49236115Y-35543972D01*
X49188496Y-35353496D01*
X49140877Y-35258258D01*
X49045639Y-35163020D01*
X48902781Y-35115401D01*
X48807543Y-35115401D01*
X48664686Y-35163020D01*
X48617067Y-35210639D01*
X47664686Y-36115401D02*
X48236115Y-36115401D01*
X47950401Y-36115401D02*
X47950401Y-35115401D01*
X48045639Y-35258258D01*
X48140877Y-35353496D01*
X48236115Y-35401115D01*
X47045639Y-35115401D02*
X46950400Y-35115401D01*
X46855162Y-35163020D01*
X46807543Y-35210639D01*
X46759924Y-35305877D01*
X46712305Y-35496353D01*
X46712305Y-35734449D01*
X46759924Y-35924925D01*
X46807543Y-36020163D01*
X46855162Y-36067782D01*
X46950400Y-36115401D01*
X47045639Y-36115401D01*
X47140877Y-36067782D01*
X47188496Y-36020163D01*
X47236115Y-35924925D01*
X47283734Y-35734449D01*
X47283734Y-35496353D01*
X47236115Y-35305877D01*
X47188496Y-35210639D01*
X47140877Y-35163020D01*
X47045639Y-35115401D01*
X46093258Y-35115401D02*
X45998019Y-35115401D01*
X45902781Y-35163020D01*
X45855162Y-35210639D01*
X45807543Y-35305877D01*
X45759924Y-35496353D01*
X45759924Y-35734449D01*
X45807543Y-35924925D01*
X45855162Y-36020163D01*
X45902781Y-36067782D01*
X45998019Y-36115401D01*
X46093258Y-36115401D01*
X46188496Y-36067782D01*
X46236115Y-36020163D01*
X46283734Y-35924925D01*
X46331353Y-35734449D01*
X46331353Y-35496353D01*
X46283734Y-35305877D01*
X46236115Y-35210639D01*
X46188496Y-35163020D01*
X46093258Y-35115401D01*
X56491067Y-35409163D02*
X56538686Y-35456782D01*
X56681543Y-35504401D01*
X56776781Y-35504401D01*
X56919639Y-35456782D01*
X57014877Y-35361544D01*
X57062496Y-35266306D01*
X57110115Y-35075830D01*
X57110115Y-34932972D01*
X57062496Y-34742496D01*
X57014877Y-34647258D01*
X56919639Y-34552020D01*
X56776781Y-34504401D01*
X56681543Y-34504401D01*
X56538686Y-34552020D01*
X56491067Y-34599639D01*
X55538686Y-35504401D02*
X56110115Y-35504401D01*
X55824401Y-35504401D02*
X55824401Y-34504401D01*
X55919639Y-34647258D01*
X56014877Y-34742496D01*
X56110115Y-34790115D01*
X54919639Y-34504401D02*
X54824400Y-34504401D01*
X54729162Y-34552020D01*
X54681543Y-34599639D01*
X54633924Y-34694877D01*
X54586305Y-34885353D01*
X54586305Y-35123449D01*
X54633924Y-35313925D01*
X54681543Y-35409163D01*
X54729162Y-35456782D01*
X54824400Y-35504401D01*
X54919639Y-35504401D01*
X55014877Y-35456782D01*
X55062496Y-35409163D01*
X55110115Y-35313925D01*
X55157734Y-35123449D01*
X55157734Y-34885353D01*
X55110115Y-34694877D01*
X55062496Y-34599639D01*
X55014877Y-34552020D01*
X54919639Y-34504401D01*
X53633924Y-35504401D02*
X54205353Y-35504401D01*
X53919639Y-35504401D02*
X53919639Y-34504401D01*
X54014877Y-34647258D01*
X54110115Y-34742496D01*
X54205353Y-34790115D01*
X83542067Y-64873163D02*
X83589686Y-64920782D01*
X83732543Y-64968401D01*
X83827781Y-64968401D01*
X83970639Y-64920782D01*
X84065877Y-64825544D01*
X84113496Y-64730306D01*
X84161115Y-64539830D01*
X84161115Y-64396972D01*
X84113496Y-64206496D01*
X84065877Y-64111258D01*
X83970639Y-64016020D01*
X83827781Y-63968401D01*
X83732543Y-63968401D01*
X83589686Y-64016020D01*
X83542067Y-64063639D01*
X82589686Y-64968401D02*
X83161115Y-64968401D01*
X82875401Y-64968401D02*
X82875401Y-63968401D01*
X82970639Y-64111258D01*
X83065877Y-64206496D01*
X83161115Y-64254115D01*
X81970639Y-63968401D02*
X81875400Y-63968401D01*
X81780162Y-64016020D01*
X81732543Y-64063639D01*
X81684924Y-64158877D01*
X81637305Y-64349353D01*
X81637305Y-64587449D01*
X81684924Y-64777925D01*
X81732543Y-64873163D01*
X81780162Y-64920782D01*
X81875400Y-64968401D01*
X81970639Y-64968401D01*
X82065877Y-64920782D01*
X82113496Y-64873163D01*
X82161115Y-64777925D01*
X82208734Y-64587449D01*
X82208734Y-64349353D01*
X82161115Y-64158877D01*
X82113496Y-64063639D01*
X82065877Y-64016020D01*
X81970639Y-63968401D01*
X80780162Y-63968401D02*
X80970639Y-63968401D01*
X81065877Y-64016020D01*
X81113496Y-64063639D01*
X81208734Y-64206496D01*
X81256353Y-64396972D01*
X81256353Y-64777925D01*
X81208734Y-64873163D01*
X81161115Y-64920782D01*
X81065877Y-64968401D01*
X80875400Y-64968401D01*
X80780162Y-64920782D01*
X80732543Y-64873163D01*
X80684924Y-64777925D01*
X80684924Y-64539830D01*
X80732543Y-64444591D01*
X80780162Y-64396972D01*
X80875400Y-64349353D01*
X81065877Y-64349353D01*
X81161115Y-64396972D01*
X81208734Y-64444591D01*
X81256353Y-64539830D01*
X83161067Y-97639163D02*
X83208686Y-97686782D01*
X83351543Y-97734401D01*
X83446781Y-97734401D01*
X83589639Y-97686782D01*
X83684877Y-97591544D01*
X83732496Y-97496306D01*
X83780115Y-97305830D01*
X83780115Y-97162972D01*
X83732496Y-96972496D01*
X83684877Y-96877258D01*
X83589639Y-96782020D01*
X83446781Y-96734401D01*
X83351543Y-96734401D01*
X83208686Y-96782020D01*
X83161067Y-96829639D01*
X82208686Y-97734401D02*
X82780115Y-97734401D01*
X82494401Y-97734401D02*
X82494401Y-96734401D01*
X82589639Y-96877258D01*
X82684877Y-96972496D01*
X82780115Y-97020115D01*
X81589639Y-96734401D02*
X81494400Y-96734401D01*
X81399162Y-96782020D01*
X81351543Y-96829639D01*
X81303924Y-96924877D01*
X81256305Y-97115353D01*
X81256305Y-97353449D01*
X81303924Y-97543925D01*
X81351543Y-97639163D01*
X81399162Y-97686782D01*
X81494400Y-97734401D01*
X81589639Y-97734401D01*
X81684877Y-97686782D01*
X81732496Y-97639163D01*
X81780115Y-97543925D01*
X81827734Y-97353449D01*
X81827734Y-97115353D01*
X81780115Y-96924877D01*
X81732496Y-96829639D01*
X81684877Y-96782020D01*
X81589639Y-96734401D01*
X80922972Y-96734401D02*
X80256305Y-96734401D01*
X80684877Y-97734401D01*
X83161067Y-90273163D02*
X83208686Y-90320782D01*
X83351543Y-90368401D01*
X83446781Y-90368401D01*
X83589639Y-90320782D01*
X83684877Y-90225544D01*
X83732496Y-90130306D01*
X83780115Y-89939830D01*
X83780115Y-89796972D01*
X83732496Y-89606496D01*
X83684877Y-89511258D01*
X83589639Y-89416020D01*
X83446781Y-89368401D01*
X83351543Y-89368401D01*
X83208686Y-89416020D01*
X83161067Y-89463639D01*
X82208686Y-90368401D02*
X82780115Y-90368401D01*
X82494401Y-90368401D02*
X82494401Y-89368401D01*
X82589639Y-89511258D01*
X82684877Y-89606496D01*
X82780115Y-89654115D01*
X81589639Y-89368401D02*
X81494400Y-89368401D01*
X81399162Y-89416020D01*
X81351543Y-89463639D01*
X81303924Y-89558877D01*
X81256305Y-89749353D01*
X81256305Y-89987449D01*
X81303924Y-90177925D01*
X81351543Y-90273163D01*
X81399162Y-90320782D01*
X81494400Y-90368401D01*
X81589639Y-90368401D01*
X81684877Y-90320782D01*
X81732496Y-90273163D01*
X81780115Y-90177925D01*
X81827734Y-89987449D01*
X81827734Y-89749353D01*
X81780115Y-89558877D01*
X81732496Y-89463639D01*
X81684877Y-89416020D01*
X81589639Y-89368401D01*
X80780115Y-90368401D02*
X80589639Y-90368401D01*
X80494400Y-90320782D01*
X80446781Y-90273163D01*
X80351543Y-90130306D01*
X80303924Y-89939830D01*
X80303924Y-89558877D01*
X80351543Y-89463639D01*
X80399162Y-89416020D01*
X80494400Y-89368401D01*
X80684877Y-89368401D01*
X80780115Y-89416020D01*
X80827734Y-89463639D01*
X80875353Y-89558877D01*
X80875353Y-89796972D01*
X80827734Y-89892210D01*
X80780115Y-89939830D01*
X80684877Y-89987449D01*
X80494400Y-89987449D01*
X80399162Y-89939830D01*
X80351543Y-89892210D01*
X80303924Y-89796972D01*
X79668567Y-83772163D02*
X79716186Y-83819782D01*
X79859043Y-83867401D01*
X79954281Y-83867401D01*
X80097139Y-83819782D01*
X80192377Y-83724544D01*
X80239996Y-83629306D01*
X80287615Y-83438830D01*
X80287615Y-83295972D01*
X80239996Y-83105496D01*
X80192377Y-83010258D01*
X80097139Y-82915020D01*
X79954281Y-82867401D01*
X79859043Y-82867401D01*
X79716186Y-82915020D01*
X79668567Y-82962639D01*
X78716186Y-83867401D02*
X79287615Y-83867401D01*
X79001901Y-83867401D02*
X79001901Y-82867401D01*
X79097139Y-83010258D01*
X79192377Y-83105496D01*
X79287615Y-83153115D01*
X77763805Y-83867401D02*
X78335234Y-83867401D01*
X78049520Y-83867401D02*
X78049520Y-82867401D01*
X78144758Y-83010258D01*
X78239996Y-83105496D01*
X78335234Y-83153115D01*
X77144758Y-82867401D02*
X77049519Y-82867401D01*
X76954281Y-82915020D01*
X76906662Y-82962639D01*
X76859043Y-83057877D01*
X76811424Y-83248353D01*
X76811424Y-83486449D01*
X76859043Y-83676925D01*
X76906662Y-83772163D01*
X76954281Y-83819782D01*
X77049519Y-83867401D01*
X77144758Y-83867401D01*
X77239996Y-83819782D01*
X77287615Y-83772163D01*
X77335234Y-83676925D01*
X77382853Y-83486449D01*
X77382853Y-83248353D01*
X77335234Y-83057877D01*
X77287615Y-82962639D01*
X77239996Y-82915020D01*
X77144758Y-82867401D01*
X79732067Y-75668163D02*
X79779686Y-75715782D01*
X79922543Y-75763401D01*
X80017781Y-75763401D01*
X80160639Y-75715782D01*
X80255877Y-75620544D01*
X80303496Y-75525306D01*
X80351115Y-75334830D01*
X80351115Y-75191972D01*
X80303496Y-75001496D01*
X80255877Y-74906258D01*
X80160639Y-74811020D01*
X80017781Y-74763401D01*
X79922543Y-74763401D01*
X79779686Y-74811020D01*
X79732067Y-74858639D01*
X78779686Y-75763401D02*
X79351115Y-75763401D01*
X79065401Y-75763401D02*
X79065401Y-74763401D01*
X79160639Y-74906258D01*
X79255877Y-75001496D01*
X79351115Y-75049115D01*
X77827305Y-75763401D02*
X78398734Y-75763401D01*
X78113020Y-75763401D02*
X78113020Y-74763401D01*
X78208258Y-74906258D01*
X78303496Y-75001496D01*
X78398734Y-75049115D01*
X76874924Y-75763401D02*
X77446353Y-75763401D01*
X77160639Y-75763401D02*
X77160639Y-74763401D01*
X77255877Y-74906258D01*
X77351115Y-75001496D01*
X77446353Y-75049115D01*
X83161067Y-69699163D02*
X83208686Y-69746782D01*
X83351543Y-69794401D01*
X83446781Y-69794401D01*
X83589639Y-69746782D01*
X83684877Y-69651544D01*
X83732496Y-69556306D01*
X83780115Y-69365830D01*
X83780115Y-69222972D01*
X83732496Y-69032496D01*
X83684877Y-68937258D01*
X83589639Y-68842020D01*
X83446781Y-68794401D01*
X83351543Y-68794401D01*
X83208686Y-68842020D01*
X83161067Y-68889639D01*
X82208686Y-69794401D02*
X82780115Y-69794401D01*
X82494401Y-69794401D02*
X82494401Y-68794401D01*
X82589639Y-68937258D01*
X82684877Y-69032496D01*
X82780115Y-69080115D01*
X81256305Y-69794401D02*
X81827734Y-69794401D01*
X81542020Y-69794401D02*
X81542020Y-68794401D01*
X81637258Y-68937258D01*
X81732496Y-69032496D01*
X81827734Y-69080115D01*
X80875353Y-68889639D02*
X80827734Y-68842020D01*
X80732496Y-68794401D01*
X80494400Y-68794401D01*
X80399162Y-68842020D01*
X80351543Y-68889639D01*
X80303924Y-68984877D01*
X80303924Y-69080115D01*
X80351543Y-69222972D01*
X80922972Y-69794401D01*
X80303924Y-69794401D01*
M02*
