G04 #@! TF.FileFunction,Paste,Top*
%FSLAX46Y46*%
G04 Gerber Fmt 4.6, Leading zero omitted, Abs format (unit mm)*
G04 Created by KiCad (PCBNEW 4.0.7) date 11/28/18 07:40:14*
%MOMM*%
%LPD*%
G01*
G04 APERTURE LIST*
%ADD10C,0.100000*%
%ADD11C,0.000100*%
%ADD12C,0.001000*%
%ADD13R,0.900000X0.500000*%
%ADD14R,0.750000X0.800000*%
%ADD15R,1.650000X0.400000*%
%ADD16R,2.500000X1.430000*%
%ADD17R,1.600000X1.000000*%
%ADD18R,0.800000X0.750000*%
%ADD19R,1.250000X1.000000*%
%ADD20R,1.000000X1.600000*%
%ADD21R,1.000000X1.250000*%
%ADD22R,1.800000X2.500000*%
%ADD23R,1.200000X0.900000*%
%ADD24R,0.900000X1.200000*%
%ADD25R,4.860000X3.360000*%
%ADD26R,1.400000X1.390000*%
%ADD27R,2.100000X0.750000*%
%ADD28R,1.700000X2.400000*%
%ADD29R,10.000000X3.500000*%
%ADD30R,2.400000X1.700000*%
%ADD31R,6.000000X2.150000*%
%ADD32R,2.200000X1.200000*%
%ADD33R,3.050000X2.750000*%
%ADD34R,0.900000X1.700000*%
%ADD35R,0.500000X0.900000*%
%ADD36R,0.700000X1.300000*%
%ADD37R,1.300000X0.700000*%
%ADD38R,1.200000X2.200000*%
%ADD39R,2.750000X3.050000*%
%ADD40R,3.360000X4.860000*%
%ADD41R,1.390000X1.400000*%
%ADD42R,0.400000X0.650000*%
%ADD43R,0.650000X0.400000*%
%ADD44R,1.000000X2.510000*%
%ADD45R,2.510000X1.000000*%
%ADD46R,3.200000X2.700000*%
%ADD47R,1.500000X0.450000*%
%ADD48R,0.100000X0.100000*%
%ADD49R,1.300000X0.250000*%
%ADD50R,0.250000X1.300000*%
%ADD51R,1.473200X0.279400*%
%ADD52R,0.279400X1.473200*%
%ADD53R,4.500000X2.000000*%
%ADD54R,1.560000X0.650000*%
%ADD55R,1.550000X0.600000*%
%ADD56R,0.705000X2.040000*%
%ADD57R,0.900000X0.800000*%
%ADD58R,0.800000X0.900000*%
%ADD59R,0.600000X2.000000*%
%ADD60R,0.300000X0.800000*%
%ADD61R,0.600000X1.300000*%
G04 APERTURE END LIST*
D10*
D11*
G36*
X11970020Y-46482020D02*
X11970020Y-45912020D01*
X11970020Y-45882894D01*
X11963860Y-45824911D01*
X11951610Y-45767903D01*
X11933400Y-45712510D01*
X11909440Y-45659351D01*
X11879990Y-45609023D01*
X11845390Y-45562088D01*
X11806030Y-45519073D01*
X11762330Y-45480460D01*
X11714810Y-45446680D01*
X11663970Y-45418110D01*
X11610410Y-45395080D01*
X11554710Y-45377830D01*
X11497490Y-45366570D01*
X11439410Y-45361420D01*
X11381110Y-45362430D01*
X11323250Y-45369600D01*
X11266460Y-45382850D01*
X11211390Y-45402020D01*
X11158660Y-45426910D01*
X11108860Y-45457230D01*
X11062530Y-45492640D01*
X11020210Y-45532751D01*
X10982360Y-45577110D01*
X10949420Y-45625220D01*
X10921740Y-45676543D01*
X10899650Y-45730503D01*
X10883380Y-45786496D01*
X10873110Y-45843896D01*
X10868980Y-45902058D01*
X10870020Y-45932020D01*
X10870020Y-46492020D01*
X11170020Y-46492020D01*
X11170020Y-45932020D01*
X11170020Y-45918930D01*
X11172760Y-45892870D01*
X11178200Y-45867238D01*
X11186300Y-45842316D01*
X11196960Y-45818378D01*
X11210060Y-45795684D01*
X11225460Y-45774484D01*
X11242990Y-45755010D01*
X11262470Y-45737475D01*
X11283660Y-45722072D01*
X11306360Y-45708969D01*
X11330290Y-45698309D01*
X11355220Y-45690211D01*
X11380850Y-45684762D01*
X11406910Y-45682021D01*
X11433110Y-45682020D01*
X11459170Y-45684758D01*
X11484800Y-45690205D01*
X11509720Y-45698301D01*
X11533660Y-45708958D01*
X11556360Y-45722059D01*
X11577560Y-45737460D01*
X11597030Y-45754993D01*
X11614570Y-45774465D01*
X11629970Y-45795664D01*
X11643070Y-45818356D01*
X11653730Y-45842294D01*
X11661830Y-45867215D01*
X11667280Y-45892846D01*
X11670020Y-45918906D01*
X11670020Y-45932020D01*
X11670020Y-46482020D01*
X11970020Y-46482020D01*
G37*
X11970020Y-46482020D02*
X11970020Y-45912020D01*
X11970020Y-45882894D01*
X11963860Y-45824911D01*
X11951610Y-45767903D01*
X11933400Y-45712510D01*
X11909440Y-45659351D01*
X11879990Y-45609023D01*
X11845390Y-45562088D01*
X11806030Y-45519073D01*
X11762330Y-45480460D01*
X11714810Y-45446680D01*
X11663970Y-45418110D01*
X11610410Y-45395080D01*
X11554710Y-45377830D01*
X11497490Y-45366570D01*
X11439410Y-45361420D01*
X11381110Y-45362430D01*
X11323250Y-45369600D01*
X11266460Y-45382850D01*
X11211390Y-45402020D01*
X11158660Y-45426910D01*
X11108860Y-45457230D01*
X11062530Y-45492640D01*
X11020210Y-45532751D01*
X10982360Y-45577110D01*
X10949420Y-45625220D01*
X10921740Y-45676543D01*
X10899650Y-45730503D01*
X10883380Y-45786496D01*
X10873110Y-45843896D01*
X10868980Y-45902058D01*
X10870020Y-45932020D01*
X10870020Y-46492020D01*
X11170020Y-46492020D01*
X11170020Y-45932020D01*
X11170020Y-45918930D01*
X11172760Y-45892870D01*
X11178200Y-45867238D01*
X11186300Y-45842316D01*
X11196960Y-45818378D01*
X11210060Y-45795684D01*
X11225460Y-45774484D01*
X11242990Y-45755010D01*
X11262470Y-45737475D01*
X11283660Y-45722072D01*
X11306360Y-45708969D01*
X11330290Y-45698309D01*
X11355220Y-45690211D01*
X11380850Y-45684762D01*
X11406910Y-45682021D01*
X11433110Y-45682020D01*
X11459170Y-45684758D01*
X11484800Y-45690205D01*
X11509720Y-45698301D01*
X11533660Y-45708958D01*
X11556360Y-45722059D01*
X11577560Y-45737460D01*
X11597030Y-45754993D01*
X11614570Y-45774465D01*
X11629970Y-45795664D01*
X11643070Y-45818356D01*
X11653730Y-45842294D01*
X11661830Y-45867215D01*
X11667280Y-45892846D01*
X11670020Y-45918906D01*
X11670020Y-45932020D01*
X11670020Y-46482020D01*
X11970020Y-46482020D01*
G36*
X10870020Y-46482020D02*
X10870020Y-47052020D01*
X10870020Y-47023531D01*
X10875910Y-46966811D01*
X10887640Y-46911004D01*
X10905070Y-46856707D01*
X10928020Y-46804503D01*
X10956240Y-46754951D01*
X10989430Y-46708582D01*
X11027240Y-46665893D01*
X11069260Y-46627341D01*
X11115040Y-46593338D01*
X11164090Y-46564251D01*
X11215880Y-46540389D01*
X11269860Y-46522009D01*
X11325460Y-46509308D01*
X11382070Y-46502422D01*
X11439080Y-46501424D01*
X11495900Y-46506325D01*
X11551900Y-46517073D01*
X11606490Y-46533553D01*
X11659090Y-46555588D01*
X11709130Y-46582941D01*
X11756070Y-46615321D01*
X11799410Y-46652379D01*
X11838690Y-46693719D01*
X11873490Y-46738898D01*
X11903430Y-46787432D01*
X11928190Y-46838801D01*
X11947510Y-46892455D01*
X11961180Y-46947818D01*
X11969050Y-47004297D01*
X11970020Y-47032020D01*
X11970020Y-46472020D01*
X11670020Y-46472020D01*
X11670020Y-47032020D01*
X11670020Y-47045110D01*
X11667280Y-47071170D01*
X11661840Y-47096802D01*
X11653740Y-47121724D01*
X11643080Y-47145662D01*
X11629980Y-47168356D01*
X11614580Y-47189556D01*
X11597050Y-47209030D01*
X11577570Y-47226565D01*
X11556380Y-47241968D01*
X11533680Y-47255071D01*
X11509750Y-47265731D01*
X11484820Y-47273829D01*
X11459190Y-47279278D01*
X11433130Y-47282019D01*
X11406930Y-47282020D01*
X11380870Y-47279282D01*
X11355240Y-47273835D01*
X11330320Y-47265739D01*
X11306380Y-47255082D01*
X11283680Y-47241981D01*
X11262480Y-47226580D01*
X11243010Y-47209047D01*
X11225470Y-47189575D01*
X11210070Y-47168376D01*
X11196970Y-47145684D01*
X11186310Y-47121746D01*
X11178210Y-47096825D01*
X11172760Y-47071194D01*
X11170020Y-47045134D01*
X11170020Y-47032020D01*
X11170020Y-46482020D01*
X10870020Y-46482020D01*
G37*
X10870020Y-46482020D02*
X10870020Y-47052020D01*
X10870020Y-47023531D01*
X10875910Y-46966811D01*
X10887640Y-46911004D01*
X10905070Y-46856707D01*
X10928020Y-46804503D01*
X10956240Y-46754951D01*
X10989430Y-46708582D01*
X11027240Y-46665893D01*
X11069260Y-46627341D01*
X11115040Y-46593338D01*
X11164090Y-46564251D01*
X11215880Y-46540389D01*
X11269860Y-46522009D01*
X11325460Y-46509308D01*
X11382070Y-46502422D01*
X11439080Y-46501424D01*
X11495900Y-46506325D01*
X11551900Y-46517073D01*
X11606490Y-46533553D01*
X11659090Y-46555588D01*
X11709130Y-46582941D01*
X11756070Y-46615321D01*
X11799410Y-46652379D01*
X11838690Y-46693719D01*
X11873490Y-46738898D01*
X11903430Y-46787432D01*
X11928190Y-46838801D01*
X11947510Y-46892455D01*
X11961180Y-46947818D01*
X11969050Y-47004297D01*
X11970020Y-47032020D01*
X11970020Y-46472020D01*
X11670020Y-46472020D01*
X11670020Y-47032020D01*
X11670020Y-47045110D01*
X11667280Y-47071170D01*
X11661840Y-47096802D01*
X11653740Y-47121724D01*
X11643080Y-47145662D01*
X11629980Y-47168356D01*
X11614580Y-47189556D01*
X11597050Y-47209030D01*
X11577570Y-47226565D01*
X11556380Y-47241968D01*
X11533680Y-47255071D01*
X11509750Y-47265731D01*
X11484820Y-47273829D01*
X11459190Y-47279278D01*
X11433130Y-47282019D01*
X11406930Y-47282020D01*
X11380870Y-47279282D01*
X11355240Y-47273835D01*
X11330320Y-47265739D01*
X11306380Y-47255082D01*
X11283680Y-47241981D01*
X11262480Y-47226580D01*
X11243010Y-47209047D01*
X11225470Y-47189575D01*
X11210070Y-47168376D01*
X11196970Y-47145684D01*
X11186310Y-47121746D01*
X11178210Y-47096825D01*
X11172760Y-47071194D01*
X11170020Y-47045134D01*
X11170020Y-47032020D01*
X11170020Y-46482020D01*
X10870020Y-46482020D01*
D12*
G36*
X13820020Y-49282020D02*
X13820020Y-48932020D01*
X13820020Y-48918780D01*
X13817220Y-48892420D01*
X13811650Y-48866510D01*
X13803372Y-48841330D01*
X13792480Y-48817160D01*
X13779095Y-48794280D01*
X13763367Y-48772950D01*
X13745472Y-48753390D01*
X13725610Y-48735840D01*
X13704005Y-48720490D01*
X13680898Y-48707500D01*
X13656548Y-48697030D01*
X13631228Y-48689190D01*
X13605221Y-48684070D01*
X13578819Y-48681730D01*
X13552316Y-48682190D01*
X13526011Y-48685450D01*
X13500198Y-48691470D01*
X13475166Y-48700180D01*
X13451195Y-48711500D01*
X13428554Y-48725280D01*
X13407497Y-48741380D01*
X13388258Y-48759610D01*
X13371055Y-48779780D01*
X13356079Y-48801650D01*
X13343498Y-48824980D01*
X13333453Y-48849500D01*
X13326056Y-48874960D01*
X13321392Y-48901050D01*
X13319511Y-48927490D01*
X13320020Y-48942020D01*
X13320020Y-49282020D01*
X13020020Y-49282020D01*
X13020020Y-48932020D01*
X13020020Y-48903380D01*
X13025977Y-48846360D01*
X13037829Y-48790270D01*
X13055448Y-48735710D01*
X13078643Y-48683280D01*
X13107162Y-48633540D01*
X13140697Y-48587040D01*
X13178884Y-48544280D01*
X13221309Y-48505710D01*
X13267513Y-48471770D01*
X13316996Y-48442810D01*
X13369220Y-48419160D01*
X13423620Y-48401060D01*
X13479607Y-48388710D01*
X13536575Y-48382250D01*
X13593905Y-48381750D01*
X13650977Y-48387210D01*
X13707172Y-48398570D01*
X13761881Y-48415710D01*
X13814513Y-48438450D01*
X13864495Y-48466530D01*
X13911288Y-48499660D01*
X13954383Y-48537470D01*
X13993315Y-48579560D01*
X14027660Y-48625460D01*
X14057048Y-48674690D01*
X14081159Y-48726710D01*
X14099733Y-48780950D01*
X14112567Y-48836830D01*
X14119524Y-48893730D01*
X14120020Y-48922020D01*
X14120020Y-49282020D01*
X13820020Y-49282020D01*
G37*
X13820020Y-49282020D02*
X13820020Y-48932020D01*
X13820020Y-48918780D01*
X13817220Y-48892420D01*
X13811650Y-48866510D01*
X13803372Y-48841330D01*
X13792480Y-48817160D01*
X13779095Y-48794280D01*
X13763367Y-48772950D01*
X13745472Y-48753390D01*
X13725610Y-48735840D01*
X13704005Y-48720490D01*
X13680898Y-48707500D01*
X13656548Y-48697030D01*
X13631228Y-48689190D01*
X13605221Y-48684070D01*
X13578819Y-48681730D01*
X13552316Y-48682190D01*
X13526011Y-48685450D01*
X13500198Y-48691470D01*
X13475166Y-48700180D01*
X13451195Y-48711500D01*
X13428554Y-48725280D01*
X13407497Y-48741380D01*
X13388258Y-48759610D01*
X13371055Y-48779780D01*
X13356079Y-48801650D01*
X13343498Y-48824980D01*
X13333453Y-48849500D01*
X13326056Y-48874960D01*
X13321392Y-48901050D01*
X13319511Y-48927490D01*
X13320020Y-48942020D01*
X13320020Y-49282020D01*
X13020020Y-49282020D01*
X13020020Y-48932020D01*
X13020020Y-48903380D01*
X13025977Y-48846360D01*
X13037829Y-48790270D01*
X13055448Y-48735710D01*
X13078643Y-48683280D01*
X13107162Y-48633540D01*
X13140697Y-48587040D01*
X13178884Y-48544280D01*
X13221309Y-48505710D01*
X13267513Y-48471770D01*
X13316996Y-48442810D01*
X13369220Y-48419160D01*
X13423620Y-48401060D01*
X13479607Y-48388710D01*
X13536575Y-48382250D01*
X13593905Y-48381750D01*
X13650977Y-48387210D01*
X13707172Y-48398570D01*
X13761881Y-48415710D01*
X13814513Y-48438450D01*
X13864495Y-48466530D01*
X13911288Y-48499660D01*
X13954383Y-48537470D01*
X13993315Y-48579560D01*
X14027660Y-48625460D01*
X14057048Y-48674690D01*
X14081159Y-48726710D01*
X14099733Y-48780950D01*
X14112567Y-48836830D01*
X14119524Y-48893730D01*
X14120020Y-48922020D01*
X14120020Y-49282020D01*
X13820020Y-49282020D01*
G36*
X13320020Y-49282020D02*
X13320020Y-49632020D01*
X13320020Y-49619070D01*
X13322698Y-49593290D01*
X13328028Y-49567920D01*
X13335951Y-49543240D01*
X13346383Y-49519510D01*
X13359213Y-49496980D01*
X13374302Y-49475900D01*
X13391489Y-49456500D01*
X13410590Y-49438970D01*
X13431400Y-49423520D01*
X13453697Y-49410290D01*
X13477241Y-49399450D01*
X13501780Y-49391090D01*
X13527052Y-49385320D01*
X13552784Y-49382190D01*
X13578703Y-49381730D01*
X13604530Y-49383960D01*
X13629987Y-49388850D01*
X13654804Y-49396340D01*
X13678713Y-49406350D01*
X13701459Y-49418790D01*
X13722797Y-49433510D01*
X13742500Y-49450350D01*
X13760355Y-49469150D01*
X13776173Y-49489680D01*
X13789783Y-49511750D01*
X13801039Y-49535100D01*
X13809821Y-49559490D01*
X13816035Y-49584650D01*
X13819614Y-49610330D01*
X13820020Y-49622020D01*
X13820020Y-49282020D01*
X14120020Y-49282020D01*
X14120020Y-49632020D01*
X14120020Y-49603060D01*
X14113929Y-49545410D01*
X14101813Y-49488710D01*
X14083804Y-49433610D01*
X14060103Y-49380700D01*
X14030973Y-49330570D01*
X13996735Y-49283790D01*
X13957770Y-49240860D01*
X13914509Y-49202270D01*
X13867431Y-49168440D01*
X13817057Y-49139740D01*
X13763947Y-49116500D01*
X13708687Y-49098960D01*
X13651891Y-49087340D01*
X13594187Y-49081740D01*
X13536215Y-49082250D01*
X13478617Y-49088840D01*
X13422032Y-49101450D01*
X13367085Y-49119940D01*
X13314386Y-49144100D01*
X13264518Y-49173670D01*
X13218034Y-49208310D01*
X13175449Y-49247650D01*
X13137234Y-49291250D01*
X13103814Y-49338620D01*
X13075558Y-49389240D01*
X13052779Y-49442550D01*
X13035729Y-49497960D01*
X13024598Y-49554860D01*
X13019509Y-49612610D01*
X13020020Y-49642020D01*
X13020020Y-49282020D01*
X13320020Y-49282020D01*
G37*
X13320020Y-49282020D02*
X13320020Y-49632020D01*
X13320020Y-49619070D01*
X13322698Y-49593290D01*
X13328028Y-49567920D01*
X13335951Y-49543240D01*
X13346383Y-49519510D01*
X13359213Y-49496980D01*
X13374302Y-49475900D01*
X13391489Y-49456500D01*
X13410590Y-49438970D01*
X13431400Y-49423520D01*
X13453697Y-49410290D01*
X13477241Y-49399450D01*
X13501780Y-49391090D01*
X13527052Y-49385320D01*
X13552784Y-49382190D01*
X13578703Y-49381730D01*
X13604530Y-49383960D01*
X13629987Y-49388850D01*
X13654804Y-49396340D01*
X13678713Y-49406350D01*
X13701459Y-49418790D01*
X13722797Y-49433510D01*
X13742500Y-49450350D01*
X13760355Y-49469150D01*
X13776173Y-49489680D01*
X13789783Y-49511750D01*
X13801039Y-49535100D01*
X13809821Y-49559490D01*
X13816035Y-49584650D01*
X13819614Y-49610330D01*
X13820020Y-49622020D01*
X13820020Y-49282020D01*
X14120020Y-49282020D01*
X14120020Y-49632020D01*
X14120020Y-49603060D01*
X14113929Y-49545410D01*
X14101813Y-49488710D01*
X14083804Y-49433610D01*
X14060103Y-49380700D01*
X14030973Y-49330570D01*
X13996735Y-49283790D01*
X13957770Y-49240860D01*
X13914509Y-49202270D01*
X13867431Y-49168440D01*
X13817057Y-49139740D01*
X13763947Y-49116500D01*
X13708687Y-49098960D01*
X13651891Y-49087340D01*
X13594187Y-49081740D01*
X13536215Y-49082250D01*
X13478617Y-49088840D01*
X13422032Y-49101450D01*
X13367085Y-49119940D01*
X13314386Y-49144100D01*
X13264518Y-49173670D01*
X13218034Y-49208310D01*
X13175449Y-49247650D01*
X13137234Y-49291250D01*
X13103814Y-49338620D01*
X13075558Y-49389240D01*
X13052779Y-49442550D01*
X13035729Y-49497960D01*
X13024598Y-49554860D01*
X13019509Y-49612610D01*
X13020020Y-49642020D01*
X13020020Y-49282020D01*
X13320020Y-49282020D01*
G36*
X13820020Y-43682020D02*
X13820020Y-43332020D01*
X13820020Y-43318780D01*
X13817220Y-43292420D01*
X13811650Y-43266510D01*
X13803372Y-43241330D01*
X13792480Y-43217160D01*
X13779095Y-43194280D01*
X13763367Y-43172950D01*
X13745472Y-43153390D01*
X13725610Y-43135840D01*
X13704005Y-43120490D01*
X13680898Y-43107500D01*
X13656548Y-43097030D01*
X13631228Y-43089190D01*
X13605221Y-43084070D01*
X13578819Y-43081730D01*
X13552316Y-43082190D01*
X13526011Y-43085450D01*
X13500198Y-43091470D01*
X13475166Y-43100180D01*
X13451195Y-43111500D01*
X13428554Y-43125280D01*
X13407497Y-43141380D01*
X13388258Y-43159610D01*
X13371055Y-43179780D01*
X13356079Y-43201650D01*
X13343498Y-43224980D01*
X13333453Y-43249500D01*
X13326056Y-43274960D01*
X13321392Y-43301050D01*
X13319511Y-43327490D01*
X13320020Y-43342020D01*
X13320020Y-43682020D01*
X13020020Y-43682020D01*
X13020020Y-43332020D01*
X13020020Y-43303380D01*
X13025977Y-43246360D01*
X13037829Y-43190270D01*
X13055448Y-43135710D01*
X13078643Y-43083280D01*
X13107162Y-43033540D01*
X13140697Y-42987040D01*
X13178884Y-42944280D01*
X13221309Y-42905710D01*
X13267513Y-42871770D01*
X13316996Y-42842810D01*
X13369220Y-42819160D01*
X13423620Y-42801060D01*
X13479607Y-42788710D01*
X13536575Y-42782250D01*
X13593905Y-42781750D01*
X13650977Y-42787210D01*
X13707172Y-42798570D01*
X13761881Y-42815710D01*
X13814513Y-42838450D01*
X13864495Y-42866530D01*
X13911288Y-42899660D01*
X13954383Y-42937470D01*
X13993315Y-42979560D01*
X14027660Y-43025460D01*
X14057048Y-43074690D01*
X14081159Y-43126710D01*
X14099733Y-43180950D01*
X14112567Y-43236830D01*
X14119524Y-43293730D01*
X14120020Y-43322020D01*
X14120020Y-43682020D01*
X13820020Y-43682020D01*
G37*
X13820020Y-43682020D02*
X13820020Y-43332020D01*
X13820020Y-43318780D01*
X13817220Y-43292420D01*
X13811650Y-43266510D01*
X13803372Y-43241330D01*
X13792480Y-43217160D01*
X13779095Y-43194280D01*
X13763367Y-43172950D01*
X13745472Y-43153390D01*
X13725610Y-43135840D01*
X13704005Y-43120490D01*
X13680898Y-43107500D01*
X13656548Y-43097030D01*
X13631228Y-43089190D01*
X13605221Y-43084070D01*
X13578819Y-43081730D01*
X13552316Y-43082190D01*
X13526011Y-43085450D01*
X13500198Y-43091470D01*
X13475166Y-43100180D01*
X13451195Y-43111500D01*
X13428554Y-43125280D01*
X13407497Y-43141380D01*
X13388258Y-43159610D01*
X13371055Y-43179780D01*
X13356079Y-43201650D01*
X13343498Y-43224980D01*
X13333453Y-43249500D01*
X13326056Y-43274960D01*
X13321392Y-43301050D01*
X13319511Y-43327490D01*
X13320020Y-43342020D01*
X13320020Y-43682020D01*
X13020020Y-43682020D01*
X13020020Y-43332020D01*
X13020020Y-43303380D01*
X13025977Y-43246360D01*
X13037829Y-43190270D01*
X13055448Y-43135710D01*
X13078643Y-43083280D01*
X13107162Y-43033540D01*
X13140697Y-42987040D01*
X13178884Y-42944280D01*
X13221309Y-42905710D01*
X13267513Y-42871770D01*
X13316996Y-42842810D01*
X13369220Y-42819160D01*
X13423620Y-42801060D01*
X13479607Y-42788710D01*
X13536575Y-42782250D01*
X13593905Y-42781750D01*
X13650977Y-42787210D01*
X13707172Y-42798570D01*
X13761881Y-42815710D01*
X13814513Y-42838450D01*
X13864495Y-42866530D01*
X13911288Y-42899660D01*
X13954383Y-42937470D01*
X13993315Y-42979560D01*
X14027660Y-43025460D01*
X14057048Y-43074690D01*
X14081159Y-43126710D01*
X14099733Y-43180950D01*
X14112567Y-43236830D01*
X14119524Y-43293730D01*
X14120020Y-43322020D01*
X14120020Y-43682020D01*
X13820020Y-43682020D01*
G36*
X13320020Y-43682020D02*
X13320020Y-44032020D01*
X13320020Y-44019070D01*
X13322698Y-43993290D01*
X13328028Y-43967920D01*
X13335951Y-43943240D01*
X13346383Y-43919510D01*
X13359213Y-43896980D01*
X13374302Y-43875900D01*
X13391489Y-43856500D01*
X13410590Y-43838970D01*
X13431400Y-43823520D01*
X13453697Y-43810290D01*
X13477241Y-43799450D01*
X13501780Y-43791090D01*
X13527052Y-43785320D01*
X13552784Y-43782190D01*
X13578703Y-43781730D01*
X13604530Y-43783960D01*
X13629987Y-43788850D01*
X13654804Y-43796340D01*
X13678713Y-43806350D01*
X13701459Y-43818790D01*
X13722797Y-43833510D01*
X13742500Y-43850350D01*
X13760355Y-43869150D01*
X13776173Y-43889680D01*
X13789783Y-43911750D01*
X13801039Y-43935100D01*
X13809821Y-43959490D01*
X13816035Y-43984650D01*
X13819614Y-44010330D01*
X13820020Y-44022020D01*
X13820020Y-43682020D01*
X14120020Y-43682020D01*
X14120020Y-44032020D01*
X14120020Y-44003060D01*
X14113929Y-43945410D01*
X14101813Y-43888710D01*
X14083804Y-43833610D01*
X14060103Y-43780700D01*
X14030973Y-43730570D01*
X13996735Y-43683790D01*
X13957770Y-43640860D01*
X13914509Y-43602270D01*
X13867431Y-43568440D01*
X13817057Y-43539740D01*
X13763947Y-43516500D01*
X13708687Y-43498960D01*
X13651891Y-43487340D01*
X13594187Y-43481740D01*
X13536215Y-43482250D01*
X13478617Y-43488840D01*
X13422032Y-43501450D01*
X13367085Y-43519940D01*
X13314386Y-43544100D01*
X13264518Y-43573670D01*
X13218034Y-43608310D01*
X13175449Y-43647650D01*
X13137234Y-43691250D01*
X13103814Y-43738620D01*
X13075558Y-43789240D01*
X13052779Y-43842550D01*
X13035729Y-43897960D01*
X13024598Y-43954860D01*
X13019509Y-44012610D01*
X13020020Y-44042020D01*
X13020020Y-43682020D01*
X13320020Y-43682020D01*
G37*
X13320020Y-43682020D02*
X13320020Y-44032020D01*
X13320020Y-44019070D01*
X13322698Y-43993290D01*
X13328028Y-43967920D01*
X13335951Y-43943240D01*
X13346383Y-43919510D01*
X13359213Y-43896980D01*
X13374302Y-43875900D01*
X13391489Y-43856500D01*
X13410590Y-43838970D01*
X13431400Y-43823520D01*
X13453697Y-43810290D01*
X13477241Y-43799450D01*
X13501780Y-43791090D01*
X13527052Y-43785320D01*
X13552784Y-43782190D01*
X13578703Y-43781730D01*
X13604530Y-43783960D01*
X13629987Y-43788850D01*
X13654804Y-43796340D01*
X13678713Y-43806350D01*
X13701459Y-43818790D01*
X13722797Y-43833510D01*
X13742500Y-43850350D01*
X13760355Y-43869150D01*
X13776173Y-43889680D01*
X13789783Y-43911750D01*
X13801039Y-43935100D01*
X13809821Y-43959490D01*
X13816035Y-43984650D01*
X13819614Y-44010330D01*
X13820020Y-44022020D01*
X13820020Y-43682020D01*
X14120020Y-43682020D01*
X14120020Y-44032020D01*
X14120020Y-44003060D01*
X14113929Y-43945410D01*
X14101813Y-43888710D01*
X14083804Y-43833610D01*
X14060103Y-43780700D01*
X14030973Y-43730570D01*
X13996735Y-43683790D01*
X13957770Y-43640860D01*
X13914509Y-43602270D01*
X13867431Y-43568440D01*
X13817057Y-43539740D01*
X13763947Y-43516500D01*
X13708687Y-43498960D01*
X13651891Y-43487340D01*
X13594187Y-43481740D01*
X13536215Y-43482250D01*
X13478617Y-43488840D01*
X13422032Y-43501450D01*
X13367085Y-43519940D01*
X13314386Y-43544100D01*
X13264518Y-43573670D01*
X13218034Y-43608310D01*
X13175449Y-43647650D01*
X13137234Y-43691250D01*
X13103814Y-43738620D01*
X13075558Y-43789240D01*
X13052779Y-43842550D01*
X13035729Y-43897960D01*
X13024598Y-43954860D01*
X13019509Y-44012610D01*
X13020020Y-44042020D01*
X13020020Y-43682020D01*
X13320020Y-43682020D01*
D13*
X18034020Y-34429020D03*
X18034020Y-35929020D03*
D14*
X13335020Y-29325020D03*
X13335020Y-27825020D03*
D13*
X26035020Y-24650020D03*
X26035020Y-26150020D03*
X26035020Y-27190020D03*
X26035020Y-28690020D03*
D15*
X113500000Y-28050000D03*
X113500000Y-27400000D03*
X113500000Y-26750000D03*
X113500000Y-26100000D03*
X113500000Y-25450000D03*
D16*
X116620000Y-27710000D03*
X116620000Y-25790000D03*
D14*
X17018020Y-93968020D03*
X17018020Y-92468020D03*
D17*
X19304020Y-92226020D03*
X19304020Y-95226020D03*
X37338020Y-91186020D03*
X37338020Y-94186020D03*
X42766000Y-83684000D03*
X42766000Y-86684000D03*
X45814000Y-83684000D03*
X45814000Y-86684000D03*
D18*
X42397000Y-20811816D03*
X43897000Y-20811816D03*
X26785132Y-85588642D03*
X28285132Y-85588642D03*
D17*
X59276000Y-81906000D03*
X59276000Y-84906000D03*
X61816000Y-81906000D03*
X61816000Y-84906000D03*
D19*
X67945020Y-89900020D03*
X67945020Y-87900020D03*
X66040020Y-89900020D03*
X66040020Y-87900020D03*
D18*
X71026421Y-27893237D03*
X69526421Y-27893237D03*
X66155020Y-86360020D03*
X64655020Y-86360020D03*
X46216020Y-19304020D03*
X44716020Y-19304020D03*
D14*
X67056020Y-38874020D03*
X67056020Y-40374020D03*
D20*
X20550020Y-17145020D03*
X17550020Y-17145020D03*
X20438006Y-19685020D03*
X17438006Y-19685020D03*
X20438006Y-21971020D03*
X17438006Y-21971020D03*
D19*
X13335020Y-20590020D03*
X13335020Y-22590020D03*
X15240020Y-20590020D03*
X15240020Y-22590020D03*
D20*
X41124020Y-36322020D03*
X38124020Y-36322020D03*
X41091000Y-40894020D03*
X38091000Y-40894020D03*
X41124020Y-38608020D03*
X38124020Y-38608020D03*
D19*
X36195020Y-39640020D03*
X36195020Y-41640020D03*
X34290020Y-39640020D03*
X34290020Y-41640020D03*
D14*
X68072020Y-35548020D03*
X68072020Y-34048020D03*
D18*
X61804000Y-12032000D03*
X60304000Y-12032000D03*
D14*
X53688000Y-21164000D03*
X53688000Y-19664000D03*
X71214000Y-21672000D03*
X71214000Y-20172000D03*
D18*
X63606000Y-30828000D03*
X65106000Y-30828000D03*
D14*
X55372020Y-28690020D03*
X55372020Y-27190020D03*
D18*
X61066000Y-13556000D03*
X62566000Y-13556000D03*
D19*
X63848000Y-11762000D03*
X63848000Y-9762000D03*
D21*
X65864000Y-32512020D03*
X63864000Y-32512020D03*
D14*
X105359618Y-12408082D03*
X105359618Y-13908082D03*
D18*
X97231618Y-10110082D03*
X98731618Y-10110082D03*
D14*
X103835618Y-12408082D03*
X103835618Y-13908082D03*
D18*
X97243618Y-11634082D03*
X98743618Y-11634082D03*
D14*
X104089618Y-21552082D03*
X104089618Y-23052082D03*
X103835618Y-15214082D03*
X103835618Y-16714082D03*
D18*
X105093618Y-10618082D03*
X103593618Y-10618082D03*
X100799618Y-10618082D03*
X102299618Y-10618082D03*
D14*
X91389618Y-18504082D03*
X91389618Y-20004082D03*
D18*
X96965618Y-24588082D03*
X95465618Y-24588082D03*
X87376020Y-35814020D03*
X85876020Y-35814020D03*
D19*
X17526020Y-45482020D03*
X17526020Y-47482020D03*
X15494020Y-45482020D03*
X15494020Y-47482020D03*
D14*
X16723518Y-51529972D03*
X16723518Y-50029972D03*
D17*
X31844000Y-74492000D03*
X31844000Y-71492000D03*
X29050000Y-71492000D03*
X29050000Y-74492000D03*
X45687000Y-62221000D03*
X45687000Y-65221000D03*
X43147000Y-62221000D03*
X43147000Y-65221000D03*
X53561000Y-62221000D03*
X53561000Y-65221000D03*
X51021000Y-62221000D03*
X51021000Y-65221000D03*
X48481000Y-62221000D03*
X48481000Y-65221000D03*
D22*
X33782020Y-81026020D03*
X33782020Y-85026020D03*
D23*
X30480020Y-80392020D03*
X30480020Y-83692020D03*
D24*
X69470020Y-78740020D03*
X72770020Y-78740020D03*
D23*
X69173944Y-40455174D03*
X69173944Y-37155174D03*
D25*
X45687000Y-58133000D03*
D26*
X41705000Y-57148000D03*
X41705000Y-59118000D03*
D27*
X75009600Y-15976600D03*
X78609600Y-15976600D03*
X75009600Y-14706600D03*
X78609600Y-14706600D03*
X75009600Y-13436600D03*
X78609600Y-13436600D03*
X75009600Y-12166600D03*
X78609600Y-12166600D03*
X75009600Y-10896600D03*
X78609600Y-10896600D03*
X75009600Y-9626600D03*
X78609600Y-9626600D03*
X75009600Y-8356600D03*
X78609600Y-8356600D03*
X75009600Y-7086600D03*
X78609600Y-7086600D03*
X75009600Y-5816600D03*
X78609600Y-5816600D03*
X75009600Y-4546600D03*
X78609600Y-4546600D03*
D28*
X59296000Y-79342000D03*
X61796000Y-79342000D03*
D29*
X74295020Y-83745020D03*
X74295020Y-90245020D03*
D30*
X23002006Y-17292020D03*
X23002006Y-19792020D03*
X43655000Y-38374020D03*
X43655000Y-40874020D03*
D31*
X38335000Y-62100000D03*
X38335000Y-65530000D03*
X28335000Y-65530000D03*
X28335000Y-62100000D03*
D32*
X36585020Y-54985020D03*
X36585020Y-50425020D03*
D33*
X28610020Y-51180020D03*
X31960020Y-54230020D03*
X28610020Y-54230020D03*
X31960020Y-51180020D03*
D32*
X43537000Y-76669000D03*
X43537000Y-72109000D03*
D33*
X35562000Y-72864000D03*
X38912000Y-75914000D03*
X35562000Y-75914000D03*
X38912000Y-72864000D03*
D34*
X42840000Y-81374000D03*
X45740000Y-81374000D03*
D35*
X42430020Y-24384020D03*
X43930020Y-24384020D03*
X43897000Y-22589816D03*
X42397000Y-22589816D03*
X31242020Y-85598020D03*
X29742020Y-85598020D03*
X28285132Y-83810642D03*
X26785132Y-83810642D03*
D36*
X68260020Y-92075020D03*
X66360020Y-92075020D03*
D35*
X71027447Y-31750020D03*
X69527447Y-31750020D03*
D13*
X67945020Y-80252020D03*
X67945020Y-78752020D03*
D35*
X69526421Y-29337020D03*
X71026421Y-29337020D03*
X64885020Y-91440020D03*
X63385020Y-91440020D03*
X60534000Y-92583020D03*
X59034000Y-92583020D03*
X60534000Y-90518000D03*
X59034000Y-90518000D03*
D13*
X43180020Y-19292020D03*
X43180020Y-17792020D03*
D35*
X44704020Y-17780020D03*
X46204020Y-17780020D03*
D13*
X110975642Y-35889988D03*
X110975642Y-34389988D03*
X69232344Y-43560774D03*
X69232344Y-42060774D03*
D36*
X11750020Y-18368976D03*
X13650020Y-18368976D03*
X11750020Y-16082976D03*
X13650020Y-16082976D03*
D13*
X10160020Y-17895020D03*
X10160020Y-16395020D03*
D35*
X13450020Y-13970020D03*
X11950020Y-13970020D03*
D36*
X32070020Y-35560020D03*
X33970020Y-35560020D03*
X32070020Y-37465020D03*
X33970020Y-37465020D03*
D13*
X46355020Y-46240020D03*
X46355020Y-47740020D03*
X30480020Y-36945020D03*
X30480020Y-35445020D03*
D35*
X33770020Y-33655020D03*
X32270020Y-33655020D03*
D13*
X66421020Y-34302020D03*
X66421020Y-35802020D03*
D35*
X69227020Y-34290020D03*
X70727020Y-34290020D03*
X111240020Y-30861020D03*
X109740020Y-30861020D03*
D13*
X91389618Y-21298082D03*
X91389618Y-22798082D03*
D35*
X101461020Y-24638020D03*
X99961020Y-24638020D03*
X89928020Y-13462020D03*
X91428020Y-13462020D03*
X83070020Y-35814020D03*
X84570020Y-35814020D03*
D13*
X108421758Y-30855364D03*
X108421758Y-32355364D03*
X15199518Y-50029972D03*
X15199518Y-51529972D03*
D35*
X85840020Y-32385020D03*
X84340020Y-32385020D03*
D13*
X52164000Y-22180000D03*
X52164000Y-20680000D03*
D35*
X69702000Y-3142000D03*
X71202000Y-3142000D03*
X69702000Y-4920000D03*
X71202000Y-4920000D03*
X69702000Y-6698000D03*
X71202000Y-6698000D03*
X69702000Y-8476000D03*
X71202000Y-8476000D03*
X84156000Y-8476000D03*
X82656000Y-8476000D03*
X84156000Y-5936000D03*
X82656000Y-5936000D03*
X57510000Y-12032000D03*
X59010000Y-12032000D03*
D37*
X43528000Y-69784020D03*
X43528000Y-67884020D03*
D35*
X45318000Y-69944000D03*
X46818000Y-69944000D03*
X45318000Y-68166000D03*
X46818000Y-68166000D03*
D38*
X62077347Y-51746195D03*
X66637347Y-51746195D03*
D39*
X65882347Y-43771195D03*
X62832347Y-47121195D03*
X62832347Y-43771195D03*
X65882347Y-47121195D03*
D40*
X38956000Y-82644000D03*
D41*
X37971000Y-86626000D03*
X39941000Y-86626000D03*
D42*
X46942000Y-22634000D03*
X48242000Y-22634000D03*
X47592000Y-20734000D03*
X47592000Y-22634000D03*
X48242000Y-20734000D03*
X46942000Y-20734000D03*
X50498000Y-26698000D03*
X51798000Y-26698000D03*
X51148000Y-24798000D03*
X51148000Y-26698000D03*
X51798000Y-24798000D03*
X50498000Y-24798000D03*
X46942000Y-30000000D03*
X48242000Y-30000000D03*
X47592000Y-28100000D03*
X47592000Y-30000000D03*
X48242000Y-28100000D03*
X46942000Y-28100000D03*
D43*
X52860000Y-34018000D03*
X52860000Y-32718000D03*
X50960000Y-33368000D03*
X52860000Y-33368000D03*
X50960000Y-32718000D03*
X50960000Y-34018000D03*
X57178000Y-34018000D03*
X57178000Y-32718000D03*
X55278000Y-33368000D03*
X57178000Y-33368000D03*
X55278000Y-32718000D03*
X55278000Y-34018000D03*
X60894020Y-36718020D03*
X60894020Y-35418020D03*
X58994020Y-36068020D03*
X60894020Y-36068020D03*
X58994020Y-35418020D03*
X58994020Y-36718020D03*
X64704020Y-36718020D03*
X64704020Y-35418020D03*
X62804020Y-36068020D03*
X64704020Y-36068020D03*
X62804020Y-35418020D03*
X62804020Y-36718020D03*
D44*
X81280020Y-17522020D03*
X83820020Y-20832020D03*
X78740020Y-20832020D03*
D45*
X80637020Y-62992020D03*
X83947020Y-60452020D03*
X83947020Y-65532020D03*
D46*
X23048020Y-90618020D03*
X23048020Y-95818020D03*
X33848020Y-95818020D03*
X33848020Y-90618020D03*
D18*
X109867020Y-32385020D03*
X111367020Y-32385020D03*
D14*
X106811330Y-32437344D03*
X106811330Y-30937344D03*
D21*
X114697020Y-21336020D03*
X116697020Y-21336020D03*
X114697020Y-19304020D03*
X116697020Y-19304020D03*
D14*
X76200020Y-33032020D03*
X76200020Y-34532020D03*
D23*
X48184000Y-3904000D03*
X45984000Y-3904000D03*
X53518000Y-3904000D03*
X51318000Y-3904000D03*
X58598000Y-3904000D03*
X56398000Y-3904000D03*
D13*
X94361020Y-47232020D03*
X94361020Y-45732020D03*
X94361020Y-48272020D03*
X94361020Y-49772020D03*
X74676020Y-34278020D03*
X74676020Y-32778020D03*
X102115225Y-35910767D03*
X102115225Y-34410767D03*
X107419642Y-35889988D03*
X107419642Y-34389988D03*
X103766225Y-35910767D03*
X103766225Y-34410767D03*
X109197642Y-34389988D03*
X109197642Y-35889988D03*
X100591225Y-34410767D03*
X100591225Y-35910767D03*
D35*
X47834000Y-5682000D03*
X46334000Y-5682000D03*
X53168000Y-5682000D03*
X51668000Y-5682000D03*
X58248000Y-5682000D03*
X56748000Y-5682000D03*
X23507020Y-9144020D03*
X25007020Y-9144020D03*
X70972000Y-24732000D03*
X72472000Y-24732000D03*
D13*
X88011020Y-16472082D03*
X88011020Y-17972082D03*
D18*
X65036020Y-54102020D03*
X66536020Y-54102020D03*
D14*
X59944020Y-51042020D03*
X59944020Y-49542020D03*
D18*
X89396020Y-73406020D03*
X87896020Y-73406020D03*
D14*
X77089020Y-53582000D03*
X77089020Y-52082000D03*
X94361020Y-53582020D03*
X94361020Y-52082020D03*
D20*
X19328020Y-6858020D03*
X22328020Y-6858020D03*
D15*
X113500000Y-15300000D03*
X113500000Y-14650000D03*
X113500000Y-14000000D03*
X113500000Y-13350000D03*
X113500000Y-12700000D03*
D16*
X116620000Y-14960000D03*
X116620000Y-13040000D03*
D37*
X41656020Y-69784020D03*
X41656020Y-67884020D03*
D47*
X13130020Y-45182020D03*
X13130020Y-45832020D03*
X13130020Y-46482020D03*
X13130020Y-47132020D03*
X13130020Y-47782020D03*
D48*
X11430020Y-47462020D03*
X13570020Y-44392020D03*
X13570020Y-50042020D03*
D49*
X102089618Y-20988082D03*
X102089618Y-20488082D03*
X102089618Y-19988082D03*
X102089618Y-19488082D03*
X102089618Y-18988082D03*
X102089618Y-18488082D03*
X102089618Y-17988082D03*
X102089618Y-17488082D03*
X102089618Y-16988082D03*
X102089618Y-16488082D03*
X102089618Y-15988082D03*
X102089618Y-15488082D03*
D50*
X100489618Y-13888082D03*
X99989618Y-13888082D03*
X99489618Y-13888082D03*
X98989618Y-13888082D03*
X98489618Y-13888082D03*
X97989618Y-13888082D03*
X97489618Y-13888082D03*
X96989618Y-13888082D03*
X96489618Y-13888082D03*
X95989618Y-13888082D03*
X95489618Y-13888082D03*
X94989618Y-13888082D03*
D49*
X93389618Y-15488082D03*
X93389618Y-15988082D03*
X93389618Y-16488082D03*
X93389618Y-16988082D03*
X93389618Y-17488082D03*
X93389618Y-17988082D03*
X93389618Y-18488082D03*
X93389618Y-18988082D03*
X93389618Y-19488082D03*
X93389618Y-19988082D03*
X93389618Y-20488082D03*
X93389618Y-20988082D03*
D50*
X94989618Y-22588082D03*
X95489618Y-22588082D03*
X95989618Y-22588082D03*
X96489618Y-22588082D03*
X96989618Y-22588082D03*
X97489618Y-22588082D03*
X97989618Y-22588082D03*
X98489618Y-22588082D03*
X98989618Y-22588082D03*
X99489618Y-22588082D03*
X99989618Y-22588082D03*
X100489618Y-22588082D03*
D18*
X30404520Y-1460520D03*
X28904520Y-1460520D03*
X59602520Y-44005520D03*
X58102520Y-44005520D03*
X60071020Y-52451020D03*
X58571020Y-52451020D03*
X65468520Y-57213520D03*
X63968520Y-57213520D03*
D14*
X75120520Y-60019520D03*
X75120520Y-61519520D03*
D18*
X43751520Y-14732020D03*
X42251520Y-14732020D03*
X65556020Y-10223520D03*
X67056020Y-10223520D03*
D35*
X65544020Y-8636020D03*
X67044020Y-8636020D03*
D51*
X56609000Y-18178800D03*
X56609000Y-18686800D03*
X56609000Y-19194800D03*
X56609000Y-19677400D03*
X56609000Y-20185400D03*
X56609000Y-20693400D03*
X56609000Y-21176000D03*
X56609000Y-21684000D03*
X56609000Y-22192000D03*
X56609000Y-22700000D03*
X56609000Y-23182600D03*
X56609000Y-23690600D03*
X56609000Y-24198600D03*
X56609000Y-24681200D03*
X56609000Y-25189200D03*
X56609000Y-25697200D03*
D52*
X58564800Y-27653000D03*
X59072800Y-27653000D03*
X59580800Y-27653000D03*
X60063400Y-27653000D03*
X60571400Y-27653000D03*
X61079400Y-27653000D03*
X61562000Y-27653000D03*
X62070000Y-27653000D03*
X62578000Y-27653000D03*
X63086000Y-27653000D03*
X63568600Y-27653000D03*
X64076600Y-27653000D03*
X64584600Y-27653000D03*
X65067200Y-27653000D03*
X65575200Y-27653000D03*
X66083200Y-27653000D03*
D51*
X68039000Y-25697200D03*
X68039000Y-25189200D03*
X68039000Y-24681200D03*
X68039000Y-24198600D03*
X68039000Y-23690600D03*
X68039000Y-23182600D03*
X68039000Y-22700000D03*
X68039000Y-22192000D03*
X68039000Y-21684000D03*
X68039000Y-21176000D03*
X68039000Y-20693400D03*
X68039000Y-20185400D03*
X68039000Y-19677400D03*
X68039000Y-19194800D03*
X68039000Y-18686800D03*
X68039000Y-18178800D03*
D52*
X66083200Y-16223000D03*
X65575200Y-16223000D03*
X65067200Y-16223000D03*
X64584600Y-16223000D03*
X64076600Y-16223000D03*
X63568600Y-16223000D03*
X63086000Y-16223000D03*
X62578000Y-16223000D03*
X62070000Y-16223000D03*
X61562000Y-16223000D03*
X61079400Y-16223000D03*
X60571400Y-16223000D03*
X60063400Y-16223000D03*
X59580800Y-16223000D03*
X59072800Y-16223000D03*
X58564800Y-16223000D03*
D53*
X113470020Y-5792082D03*
X104970020Y-5792082D03*
D18*
X40652020Y-96012020D03*
X42152020Y-96012020D03*
D35*
X42152020Y-97536020D03*
X40652020Y-97536020D03*
D54*
X67390020Y-84770020D03*
X67390020Y-83820020D03*
X67390020Y-82870020D03*
X64690020Y-82870020D03*
X64690020Y-84770020D03*
X64690020Y-83820020D03*
D55*
X36717520Y-43815020D03*
X36717520Y-45085020D03*
X36717520Y-46355020D03*
X36717520Y-47625020D03*
X42117520Y-47625020D03*
X42117520Y-46355020D03*
X42117520Y-45085020D03*
X42117520Y-43815020D03*
D56*
X40005020Y-47420020D03*
X40005020Y-44020020D03*
X38830020Y-47420020D03*
X38830020Y-44020020D03*
D55*
X15762520Y-24765020D03*
X15762520Y-26035020D03*
X15762520Y-27305020D03*
X15762520Y-28575020D03*
X21162520Y-28575020D03*
X21162520Y-27305020D03*
X21162520Y-26035020D03*
X21162520Y-24765020D03*
D56*
X19050020Y-28370020D03*
X19050020Y-24970020D03*
X17875020Y-28370020D03*
X17875020Y-24970020D03*
D14*
X34290020Y-48375020D03*
X34290020Y-46875020D03*
X34290020Y-43585020D03*
X34290020Y-45085020D03*
X13335020Y-24650020D03*
X13335020Y-26150020D03*
D29*
X6985020Y-28015020D03*
X6985020Y-21515020D03*
X27940020Y-47065020D03*
X27940020Y-40565020D03*
D32*
X15825020Y-35935020D03*
X15825020Y-31375020D03*
D33*
X7850020Y-32130020D03*
X11200020Y-35180020D03*
X7850020Y-35180020D03*
X11200020Y-32130020D03*
D13*
X63500020Y-89650020D03*
X63500020Y-88150020D03*
X39116020Y-53352020D03*
X39116020Y-54852020D03*
X46355020Y-43700020D03*
X46355020Y-45200020D03*
D35*
X58686020Y-76835020D03*
X60186020Y-76835020D03*
D18*
X89966827Y-48739421D03*
X88466827Y-48739421D03*
D14*
X91375827Y-49108421D03*
X91375827Y-47608421D03*
D18*
X103640793Y-31787045D03*
X102140793Y-31787045D03*
D14*
X91375827Y-39734421D03*
X91375827Y-41234421D03*
X84582020Y-42660020D03*
X84582020Y-41160020D03*
D20*
X78629271Y-54634489D03*
X81629271Y-54634489D03*
X78629271Y-57174489D03*
X81629271Y-57174489D03*
D14*
X79075120Y-30725062D03*
X79075120Y-32225062D03*
D44*
X57150020Y-93345020D03*
X59690020Y-96655020D03*
X54610020Y-96655020D03*
D45*
X24380020Y-34290020D03*
X27690020Y-31750020D03*
X27690020Y-36830020D03*
X16895020Y-8890020D03*
X13585020Y-11430020D03*
X13585020Y-6350020D03*
X59567020Y-60452020D03*
X56257020Y-62992020D03*
X56257020Y-57912020D03*
X78732020Y-50038020D03*
X82042020Y-47498020D03*
X82042020Y-52578020D03*
D57*
X89551020Y-15052020D03*
X89551020Y-16952020D03*
X91551020Y-16002020D03*
D58*
X23815020Y-7604020D03*
X25715020Y-7604020D03*
X24765020Y-5604020D03*
D57*
X89851827Y-54449421D03*
X89851827Y-52549421D03*
X87851827Y-53499421D03*
D13*
X84771827Y-49108421D03*
X84771827Y-47608421D03*
D35*
X85926827Y-48612421D03*
X87426827Y-48612421D03*
X88466827Y-50644421D03*
X89966827Y-50644421D03*
D13*
X96960053Y-28339373D03*
X96960053Y-29839373D03*
X98484053Y-29839373D03*
X98484053Y-28339373D03*
X91375827Y-46568421D03*
X91375827Y-45068421D03*
X98552020Y-32970995D03*
X98552020Y-31470995D03*
X97409020Y-31470995D03*
X97409020Y-32970995D03*
X91375827Y-42528421D03*
X91375827Y-44028421D03*
X88581827Y-39202421D03*
X88581827Y-37702421D03*
X102255793Y-30632045D03*
X102255793Y-29132045D03*
D35*
X85799827Y-38706421D03*
X87299827Y-38706421D03*
D13*
X80345120Y-34880062D03*
X80345120Y-33380062D03*
X80645020Y-32340062D03*
X80645020Y-30840062D03*
D59*
X86041827Y-46019421D03*
X87311827Y-46019421D03*
X89851827Y-46019421D03*
X89851827Y-41119421D03*
X88581827Y-41119421D03*
X87311827Y-41119421D03*
X86041827Y-41119421D03*
X88581827Y-46019421D03*
D60*
X101100793Y-28332045D03*
X100600793Y-28332045D03*
X100100793Y-28332045D03*
X99600793Y-28332045D03*
X99600793Y-31432045D03*
X100100793Y-31432045D03*
X100600793Y-31432045D03*
X101100793Y-31432045D03*
D61*
X86295827Y-52456421D03*
X85345827Y-50356421D03*
X87245827Y-50356421D03*
M02*
