M48
;DRILL file {KiCad 4.0.7} date 11/24/18 14:58:51
;FORMAT={-:-/ absolute / inch / decimal}
FMAT,2
INCH,TZ
T1C0.012
T2C0.026
T3C0.028
T4C0.031
T5C0.039
T6C0.039
T7C0.051
T8C0.059
T9C0.071
T10C0.157
%
G90
G05
M72
T1
X0.025Y-0.12
X0.025Y-0.27
X0.025Y-0.41
X0.025Y-0.53
X0.025Y-0.615
X0.025Y-0.685
X0.025Y-0.765
X0.025Y-0.84
X0.025Y-0.92
X0.025Y-1.005
X0.025Y-1.085
X0.025Y-1.14
X0.025Y-1.19
X0.025Y-1.29
X0.025Y-1.39
X0.025Y-1.495
X0.025Y-1.6
X0.025Y-1.7
X0.025Y-1.8
X0.025Y-1.895
X0.025Y-2.
X0.025Y-2.1
X0.025Y-2.2
X0.025Y-2.3
X0.025Y-2.4
X0.025Y-2.5
X0.025Y-2.6
X0.025Y-2.7
X0.025Y-2.8
X0.025Y-2.9
X0.025Y-3.
X0.025Y-3.1
X0.025Y-3.2
X0.025Y-3.3
X0.025Y-3.375
X0.09Y-0.595
X0.115Y-1.24
X0.13Y-2.205
X0.14Y-0.03
X0.145Y-1.265
X0.16Y-3.2527
X0.17Y-2.64
X0.18Y-1.295
X0.1825Y-2.9475
X0.185Y-2.805
X0.215Y-1.335
X0.215Y-1.385
X0.215Y-1.425
X0.23Y-2.985
X0.23Y-3.035
X0.24Y-3.165
X0.24Y-3.2527
X0.24Y-3.335
X0.275Y-2.445
X0.275Y-2.495
X0.28Y-2.97
X0.28Y-3.005
X0.28Y-3.035
X0.285Y-1.325
X0.295Y-2.425
X0.295Y-2.475
X0.295Y-2.515
X0.31Y-0.03
X0.315Y-2.445
X0.315Y-3.2527
X0.325Y-2.52
X0.335Y-2.425
X0.355Y-2.445
X0.36Y-2.52
X0.375Y-1.235
X0.375Y-1.325
X0.375Y-1.405
X0.375Y-1.525
X0.375Y-1.56
X0.375Y-1.595
X0.375Y-1.63
X0.375Y-2.425
X0.375Y-2.975
X0.375Y-3.005
X0.375Y-3.035
X0.375Y-3.16
X0.375Y-3.2
X0.375Y-3.245
X0.375Y-3.285
X0.375Y-3.325
X0.375Y-3.36
X0.38Y-1.47
X0.4Y-0.495
X0.405Y-3.16
X0.405Y-3.2
X0.405Y-3.245
X0.405Y-3.285
X0.405Y-3.325
X0.405Y-3.36
X0.41Y-1.525
X0.41Y-1.56
X0.41Y-1.595
X0.41Y-1.63
X0.4225Y-2.9375
X0.4279Y-0.5224
X0.43Y-1.47
X0.445Y-1.525
X0.445Y-1.56
X0.445Y-1.595
X0.445Y-1.63
X0.45Y-0.2
X0.455Y-1.325
X0.455Y-3.255
X0.47Y-0.03
X0.475Y-1.525
X0.475Y-1.56
X0.475Y-1.595
X0.475Y-1.63
X0.475Y-2.085
X0.485Y-0.29
X0.49Y-1.47
X0.5Y-0.565
X0.5Y-0.6
X0.505Y-0.32
X0.505Y-0.645
X0.505Y-0.685
X0.505Y-0.73
X0.505Y-0.77
X0.51Y-0.93
X0.51Y-1.185
X0.52Y-0.29
X0.5374Y-3.17
X0.5374Y-3.2527
X0.5374Y-3.34
X0.54Y-0.32
X0.54Y-0.93
X0.5437Y-0.2037
X0.55Y-1.47
X0.555Y-0.29
X0.56Y-0.49
X0.56Y-0.77
X0.565Y-0.85
X0.565Y-1.125
X0.57Y-0.6
X0.57Y-0.65
X0.57Y-0.71
X0.585Y-0.93
X0.585Y-1.9116
X0.59Y-0.565
X0.595Y-1.17
X0.6Y-1.47
X0.61Y-0.03
X0.61Y-1.66
X0.615Y-0.6
X0.615Y-0.65
X0.615Y-0.71
X0.615Y-0.77
X0.615Y-3.255
X0.62Y-0.93
X0.625Y-1.28
X0.6367Y-1.9204
X0.645Y-1.17
X0.65Y-0.885
X0.65Y-1.47
X0.655Y-0.93
X0.665Y-1.28
X0.665Y-1.355
X0.67Y-2.115
X0.69Y-0.62
X0.7Y-1.05
X0.7006Y-0.3907
X0.705Y-1.205
X0.705Y-1.245
X0.705Y-1.28
X0.71Y-1.47
X0.725Y-0.76
X0.725Y-0.795
X0.725Y-0.87
X0.725Y-0.9
X0.725Y-0.93
X0.725Y-1.17
X0.73Y-0.66
X0.73Y-0.695
X0.745Y-0.335
X0.75Y-0.03
X0.75Y-1.05
X0.75Y-1.205
X0.755Y-3.255
X0.765Y-1.29
X0.765Y-1.355
X0.765Y-1.415
X0.765Y-1.47
X0.77Y-0.37
X0.79Y-0.335
X0.79Y-2.755
X0.8Y-1.165
X0.84Y-0.62
X0.84Y-3.165
X0.84Y-3.2527
X0.84Y-3.335
X0.845Y-1.165
X0.845Y-1.8476
X0.85Y-1.63
X0.87Y-2.37
X0.8791Y-0.3277
X0.88Y-2.27
X0.885Y-0.62
X0.9Y-0.03
X0.9Y-2.3
X0.9014Y-2.2243
X0.905Y-2.08
X0.915Y-3.255
X0.92Y-2.27
X0.925Y-0.62
X0.925Y-2.32
X0.935Y-2.395
X0.945Y-2.485
X0.945Y-2.545
X0.945Y-2.615
X0.945Y-2.685
X0.945Y-2.77
X0.95Y-2.235
X0.955Y-2.825
X0.9655Y-0.9705
X0.9687Y-1.4247
X0.97Y-0.615
X0.97Y-1.13
X0.98Y-0.655
X0.98Y-0.7
X0.99Y-2.225
X0.995Y-2.865
X1.015Y-1.45
X1.035Y-2.9
X1.04Y-0.03
X1.0543Y-0.3955
X1.0545Y-3.3345
X1.055Y-0.3
X1.055Y-2.225
X1.06Y-1.405
X1.07Y-0.68
X1.075Y-2.935
X1.095Y-3.06
X1.1Y-3.12
X1.1025Y-0.0575
X1.105Y-0.77
X1.105Y-2.075
X1.115Y-1.4
X1.115Y-2.225
X1.135Y-2.99
X1.16Y-1.45
X1.16Y-3.12
X1.18Y-2.99
X1.185Y-2.225
X1.19Y-1.995
X1.19Y-2.155
X1.1923Y-2.075
X1.2Y-1.36
X1.22Y-3.
X1.235Y-2.225
X1.2375Y-0.055
X1.2379Y-1.3243
X1.24Y-3.69
X1.24Y-3.75
X1.24Y-3.8
X1.245Y-3.24
X1.25Y-3.03
X1.25Y-3.85
X1.255Y-1.1763
X1.275Y-0.69
X1.275Y-2.075
X1.28Y-0.03
X1.29Y-3.065
X1.29Y-3.69
X1.295Y-2.225
X1.3Y-3.85
X1.33Y-1.52
X1.335Y-1.68
X1.335Y-3.07
X1.34Y-3.69
X1.35Y-3.85
X1.355Y-2.225
X1.36Y-1.29
X1.36Y-1.325
X1.36Y-1.355
X1.365Y-0.625
X1.365Y-1.44
X1.365Y-1.52
X1.365Y-1.68
X1.365Y-2.77
X1.37Y-0.85
X1.37Y-1.485
X1.375Y-1.015
X1.38Y-2.93
X1.39Y-1.6
X1.39Y-1.875
X1.39Y-3.69
X1.39Y-3.85
X1.4Y-3.07
X1.405Y-1.485
X1.405Y-1.52
X1.41Y-1.68
X1.415Y-2.225
X1.42Y-0.69
X1.42Y-2.77
X1.425Y-1.935
X1.43Y-3.77
X1.43Y-3.81
X1.43Y-3.85
X1.44Y-1.68
X1.445Y-1.485
X1.445Y-1.52
X1.45Y-0.03
X1.46Y-2.03
X1.465Y-1.935
X1.465Y-2.85
X1.466Y-2.9287
X1.466Y-3.015
X1.47Y-3.07
X1.47Y-3.75
X1.475Y-1.67
X1.48Y-2.225
X1.48Y-3.89
X1.49Y-2.1
X1.49Y-2.65
X1.495Y-1.37
X1.495Y-2.77
X1.52Y-0.825
X1.525Y-1.955
X1.525Y-2.005
X1.525Y-2.05
X1.53Y-1.37
X1.53Y-1.8
X1.53Y-3.7
X1.53Y-3.74
X1.5337Y-3.195
X1.5337Y-3.2537
X1.5337Y-3.315
X1.54Y-1.41
X1.54Y-1.45
X1.54Y-1.505
X1.54Y-1.54
X1.54Y-1.645
X1.54Y-2.225
X1.54Y-2.65
X1.54Y-3.07
X1.55Y-1.68
X1.55Y-1.92
X1.55Y-2.93
X1.555Y-0.995
X1.56Y-2.715
X1.56Y-2.77
X1.56Y-3.78
X1.56Y-3.84
X1.565Y-2.005
X1.565Y-2.05
X1.57Y-1.645
X1.575Y-1.8
X1.575Y-1.955
X1.58Y-2.65
X1.58Y-3.1
X1.59Y-1.365
X1.61Y-3.07
X1.615Y-1.34
X1.62Y-0.03
X1.62Y-1.375
X1.6256Y-0.8194
X1.635Y-1.915
X1.635Y-2.185
X1.64Y-2.705
X1.65Y-2.62
X1.6542Y-2.9792
X1.655Y-3.455
X1.66Y-3.07
X1.6634Y-0.5409
X1.675Y-2.5
X1.68Y-0.73
X1.685Y-1.91
X1.69Y-1.01
X1.69Y-2.62
X1.69Y-3.145
X1.69Y-3.88
X1.71Y-1.78
X1.71Y-3.46
X1.715Y-2.705
X1.715Y-3.07
X1.7225Y-0.54
X1.725Y-2.41
X1.725Y-2.5
X1.73Y-2.62
X1.735Y-0.65
X1.7362Y-1.29
X1.7397Y-1.0465
X1.745Y-1.45
X1.745Y-2.2887
X1.75Y-2.39
X1.75Y-2.44
X1.75Y-2.475
X1.765Y-3.07
X1.77Y-2.41
X1.77Y-2.97
X1.775Y-2.62
X1.78Y-0.03
X1.78Y-1.455
X1.78Y-2.5
X1.7805Y-1.7205
X1.7806Y-3.015
X1.7867Y-2.8167
X1.79Y-0.99
X1.79Y-1.535
X1.795Y-1.135
X1.795Y-1.5
X1.795Y-2.39
X1.7987Y-2.2887
X1.8025Y-1.3375
X1.805Y-1.93
X1.81Y-3.455
X1.815Y-0.89
X1.82Y-1.105
X1.82Y-2.41
X1.82Y-2.62
X1.825Y-3.15
X1.835Y-2.5
X1.845Y-1.63
X1.845Y-3.18
X1.845Y-3.255
X1.85Y-2.2887
X1.855Y-0.76
X1.86Y-2.62
X1.86Y-3.3
X1.86Y-3.42
X1.86Y-3.88
X1.895Y-2.755
X1.9Y-0.77
X1.9Y-1.07
X1.9Y-1.23
X1.9Y-2.41
X1.9Y-2.61
X1.905Y-3.065
X1.91Y-1.495
X1.9125Y-1.305
X1.915Y-3.17
X1.925Y-2.23
X1.925Y-2.38
X1.93Y-1.915
X1.94Y-0.03
X1.945Y-0.155
X1.945Y-2.41
X1.9513Y-1.1626
X1.955Y-0.525
X1.965Y-1.105
X1.965Y-2.38
X1.9761Y-1.5915
X1.98Y-0.935
X1.985Y-2.41
X1.995Y-1.91
X2.Y-1.085
X2.Y-2.61
X2.0045Y-2.9705
X2.005Y-1.245
X2.005Y-2.38
X2.015Y-1.76
X2.02Y-3.455
X2.025Y-2.41
X2.035Y-1.62
X2.035Y-2.61
X2.04Y-1.97
X2.04Y-3.88
X2.045Y-2.38
X2.055Y-2.8
X2.06Y-1.485
X2.06Y-2.41
X2.075Y-0.845
X2.08Y-0.03
X2.08Y-0.935
X2.09Y-1.92
X2.09Y-2.61
X2.095Y-2.025
X2.095Y-3.785
X2.095Y-3.835
X2.1Y-2.655
X2.1164Y-1.4682
X2.12Y-1.29
X2.12Y-1.34
X2.12Y-1.81
X2.125Y-1.665
X2.13Y-2.61
X2.135Y-2.275
X2.135Y-2.32
X2.145Y-2.92
X2.1455Y-1.0705
X2.1455Y-1.1295
X2.155Y-0.155
X2.165Y-0.735
X2.165Y-2.57
X2.165Y-2.615
X2.17Y-2.43
X2.175Y-1.245
X2.175Y-3.
X2.175Y-3.39
X2.18Y-1.205
X2.19Y-1.485
X2.19Y-2.32
X2.205Y-3.78
X2.205Y-3.835
X2.2155Y-1.3793
X2.2225Y-1.595
X2.225Y-1.95
X2.225Y-3.485
X2.23Y-1.5
X2.235Y-2.32
X2.24Y-3.025
X2.24Y-3.165
X2.2494Y-1.3753
X2.25Y-0.03
X2.26Y-1.78
X2.26Y-2.11
X2.265Y-0.515
X2.27Y-1.505
X2.275Y-3.1
X2.275Y-3.145
X2.28Y-2.32
X2.28Y-3.19
X2.28Y-3.23
X2.28Y-3.88
X2.285Y-3.33
X2.285Y-3.39
X2.285Y-3.565
X2.2875Y-1.7
X2.2875Y-2.025
X2.2887Y-1.3137
X2.29Y-0.8114
X2.3Y-2.71
X2.31Y-1.515
X2.31Y-1.58
X2.315Y-2.675
X2.32Y-1.36
X2.325Y-0.745
X2.325Y-3.39
X2.335Y-1.03
X2.335Y-1.245
X2.34Y-2.89
X2.3466Y-1.7009
X2.35Y-3.725
X2.35Y-0.8533
X2.355Y-0.155
X2.36Y-3.51
X2.37Y-3.455
X2.375Y-3.39
X2.39Y-2.46
X2.39Y-2.51
X2.39Y-2.575
X2.395Y-1.65
X2.395Y-1.71
X2.395Y-1.75
X2.395Y-2.01
X2.4Y-0.03
X2.4Y-1.485
X2.4Y-2.065
X2.4042Y-0.5008
X2.405Y-1.68
X2.405Y-1.935
X2.41Y-2.485
X2.41Y-2.54
X2.42Y-1.625
X2.425Y-2.3746
X2.43Y-2.46
X2.43Y-2.51
X2.43Y-2.575
X2.435Y-0.819
X2.445Y-1.645
X2.45Y-1.935
X2.45Y-2.305
X2.45Y-3.89
X2.455Y-1.79
X2.455Y-2.485
X2.455Y-2.54
X2.455Y-3.47
X2.465Y-3.73
X2.47Y-0.495
X2.47Y-1.15
X2.47Y-1.36
X2.475Y-1.49
X2.475Y-1.625
X2.475Y-3.025
X2.4846Y-2.252
X2.485Y-3.375
X2.49Y-3.3
X2.4924Y-3.2626
X2.4955Y-3.56
X2.505Y-1.645
X2.515Y-0.34
X2.515Y-2.295
X2.52Y-1.935
X2.52Y-2.13
X2.52Y-2.195
X2.52Y-3.04
X2.525Y-0.695
X2.53Y-0.03
X2.53Y-0.78
X2.53Y-1.625
X2.53Y-3.73
X2.5338Y-1.7892
X2.535Y-1.24
X2.535Y-1.71
X2.535Y-1.87
X2.5475Y-0.34
X2.55Y-2.225
X2.555Y-0.5874
X2.555Y-1.645
X2.555Y-2.42
X2.555Y-3.44
X2.555Y-3.48
X2.5626Y-0.954
X2.565Y-1.935
X2.57Y-1.005
X2.57Y-3.08
X2.575Y-2.195
X2.58Y-3.6
X2.58Y-3.655
X2.585Y-0.565
X2.585Y-0.705
X2.585Y-2.715
X2.5894Y-0.9773
X2.6Y-1.235
X2.6Y-3.73
X2.605Y-1.79
X2.605Y-3.125
X2.61Y-3.89
X2.615Y-1.38
X2.615Y-1.935
X2.625Y-0.57
X2.625Y-0.98
X2.6355Y-3.1005
X2.6392Y-0.539
X2.65Y-3.415
X2.6544Y-2.1356
X2.655Y-2.32
X2.655Y-3.37
X2.655Y-3.715
X2.6577Y-2.1715
X2.6577Y-2.2271
X2.66Y-0.635
X2.66Y-2.94
X2.67Y-1.735
X2.67Y-1.785
X2.67Y-1.835
X2.67Y-1.885
X2.675Y-1.28
X2.68Y-0.03
X2.6805Y-0.6845
X2.69Y-2.7
X2.69Y-3.415
X2.69Y-3.67
X2.7044Y-1.2524
X2.71Y-0.335
X2.71Y-0.655
X2.715Y-0.125
X2.715Y-0.195
X2.715Y-1.98
X2.7234Y-1.4034
X2.725Y-3.2
X2.7265Y-1.2955
X2.7498Y-0.5446
X2.7498Y-0.5789
X2.75Y-3.67
X2.7506Y-0.6139
X2.765Y-2.2
X2.7658Y-0.4892
X2.77Y-3.03
X2.78Y-3.195
X2.78Y-3.89
X2.7893Y-1.0084
X2.79Y-2.52
X2.795Y-1.2
X2.8003Y-1.4449
X2.8003Y-2.3
X2.8003Y-2.3357
X2.82Y-3.67
X2.8231Y-1.7224
X2.83Y-0.03
X2.83Y-1.81
X2.83Y-3.195
X2.85Y-0.845
X2.85Y-2.74
X2.86Y-0.38
X2.865Y-0.895
X2.87Y-0.48
X2.875Y-0.58
X2.881Y-0.529
X2.885Y-0.98
X2.885Y-3.67
X2.89Y-3.195
X2.91Y-3.1
X2.93Y-2.46
X2.9399Y-1.321
X2.94Y-3.89
X2.9534Y-0.6863
X2.955Y-3.67
X2.9561Y-0.88
X2.96Y-3.195
X2.9644Y-1.0194
X2.97Y-0.03
X2.975Y-0.925
X2.997Y-2.363
X3.Y-2.89
X3.0101Y-1.4201
X3.015Y-3.67
X3.02Y-2.56
X3.025Y-1.125
X3.03Y-0.48
X3.03Y-1.025
X3.03Y-3.195
X3.0382Y-1.3258
X3.075Y-1.595
X3.075Y-1.73
X3.075Y-1.77
X3.08Y-1.905
X3.08Y-3.67
X3.095Y-0.68
X3.095Y-3.195
X3.1Y-3.89
X3.12Y-0.03
X3.13Y-2.57
X3.13Y-2.78
X3.13Y-3.04
X3.13Y-3.79
X3.1305Y-3.1805
X3.14Y-1.73
X3.14Y-1.77
X3.145Y-0.82
X3.145Y-3.5793
X3.15Y-0.905
X3.15Y-3.615
X3.15Y-3.67
X3.155Y-1.52
X3.155Y-1.67
X3.1556Y-1.595
X3.16Y-0.665
X3.16Y-1.415
X3.16Y-2.065
X3.16Y-2.11
X3.165Y-1.835
X3.165Y-1.905
X3.165Y-1.98
X3.17Y-0.28
X3.17Y-0.38
X3.175Y-2.15
X3.175Y-2.235
X3.175Y-2.27
X3.179Y-2.4333
X3.19Y-0.515
X3.19Y-3.89
X3.205Y-1.73
X3.205Y-1.77
X3.21Y-1.415
X3.215Y-1.18
X3.225Y-0.905
X3.23Y-2.53
X3.23Y-2.73
X3.23Y-2.99
X3.2325Y-3.8325
X3.235Y-1.595
X3.235Y-3.54
X3.24Y-3.225
X3.245Y-0.82
X3.245Y-1.32
X3.25Y-1.905
X3.255Y-2.115
X3.2636Y-0.6126
X3.265Y-1.73
X3.265Y-1.77
X3.27Y-0.03
X3.2762Y-1.1001
X3.29Y-2.115
X3.2944Y-1.3358
X3.3016Y-1.3968
X3.32Y-1.0987
X3.3202Y-1.1834
X3.33Y-1.725
X3.33Y-2.115
X3.345Y-0.865
X3.3455Y-1.2174
X3.35Y-0.235
X3.35Y-0.335
X3.3532Y-0.6668
X3.36Y-3.89
X3.38Y-1.21
X3.38Y-1.465
X3.385Y-2.58
X3.4Y-0.6
X3.41Y-2.115
X3.415Y-1.735
X3.42Y-0.03
X3.43Y-1.09
X3.44Y-0.75
X3.4432Y-1.376
X3.455Y-1.185
X3.4556Y-0.9371
X3.475Y-1.41
X3.4847Y-2.3197
X3.485Y-0.745
X3.4975Y-0.9374
X3.5043Y-0.5448
X3.51Y-2.62
X3.51Y-3.89
X3.515Y-1.875
X3.515Y-2.03
X3.515Y-2.68
X3.52Y-2.82
X3.5246Y-1.0546
X3.5317Y-1.4674
X3.5318Y-0.9406
X3.535Y-1.685
X3.55Y-1.72
X3.555Y-0.73
X3.555Y-0.785
X3.575Y-1.055
X3.575Y-1.515
X3.58Y-0.03
X3.58Y-1.37
X3.5886Y-1.3391
X3.5974Y-2.0273
X3.5975Y-1.8075
X3.6Y-1.975
X3.61Y-3.17
X3.62Y-1.28
X3.62Y-3.54
X3.625Y-1.43
X3.635Y-1.255
X3.6428Y-1.0986
X3.6494Y-2.965
X3.66Y-2.6056
X3.685Y-2.415
X3.685Y-2.545
X3.6852Y-1.0978
X3.71Y-2.295
X3.715Y-0.97
X3.73Y-3.89
X3.74Y-0.03
X3.7445Y-2.4605
X3.76Y-1.86
X3.7601Y-1.324
X3.7763Y-1.2756
X3.78Y-0.71
X3.78Y-0.84
X3.785Y-0.46
X3.79Y-1.315
X3.8065Y-2.2615
X3.8145Y-2.4728
X3.815Y-1.085
X3.835Y-1.27
X3.853Y-0.968
X3.86Y-2.92
X3.865Y-2.66
X3.87Y-2.445
X3.875Y-0.655
X3.88Y-1.085
X3.89Y-0.03
X3.92Y-0.425
X3.92Y-2.395
X3.92Y-3.89
X3.925Y-1.29
X3.9365Y-0.45
X3.9378Y-0.6533
X3.94Y-3.54
X3.95Y-3.17
X3.96Y-1.315
X3.96Y-1.45
X3.968Y-0.6721
X3.97Y-0.595
X3.97Y-0.715
X3.985Y-0.5
X4.01Y-0.23
X4.02Y-1.45
X4.04Y-1.29
X4.045Y-0.495
X4.05Y-0.03
X4.05Y-0.31
X4.055Y-0.89
X4.08Y-1.29
X4.09Y-2.7
X4.12Y-3.89
X4.129Y-0.599
X4.135Y-0.375
X4.1385Y-0.8485
X4.145Y-0.45
X4.15Y-0.16
X4.15Y-0.31
X4.1622Y-0.6178
X4.17Y-1.385
X4.205Y-1.315
X4.23Y-1.455
X4.24Y-0.03
X4.24Y-0.23
X4.25Y-0.49
X4.25Y-0.75
X4.265Y-1.385
X4.3Y-3.89
X4.35Y-1.245
X4.36Y-0.23
X4.36Y-0.32
X4.36Y-0.38
X4.37Y-1.45
X4.375Y-0.745
X4.375Y-0.795
X4.375Y-0.85
X4.4Y-0.03
X4.41Y-0.5
X4.41Y-1.
X4.42Y-2.54
X4.425Y-0.745
X4.425Y-0.795
X4.425Y-0.85
X4.43Y-1.75
X4.43Y-2.12
X4.45Y-1.46
X4.475Y-0.745
X4.475Y-0.795
X4.475Y-0.85
X4.48Y-0.17
X4.485Y-1.24
X4.485Y-1.3
X4.49Y-3.89
X4.52Y-0.29
X4.55Y-0.03
X4.58Y-0.23
X4.635Y-0.745
X4.635Y-0.78
X4.635Y-0.82
X4.635Y-0.86
X4.67Y-0.1
X4.67Y-0.2
X4.67Y-0.3
X4.67Y-0.42
X4.67Y-0.69
X4.67Y-0.91
X4.67Y-1.19
X4.67Y-1.31
X4.67Y-1.46
X4.67Y-1.62
X4.67Y-1.75
X4.67Y-1.89
X4.67Y-2.04
X4.67Y-2.19
X4.67Y-2.35
X4.67Y-2.5
X4.67Y-2.66
X4.67Y-2.82
X4.67Y-2.97
X4.67Y-3.13
X4.67Y-3.31
X4.67Y-3.51
X4.67Y-3.69
X4.67Y-3.89
T4
X0.2096Y-1.6863
X0.2096Y-1.8438
X0.2096Y-1.9225
X0.2096Y-2.0013
X3.3401Y-2.8846
X3.3401Y-2.9634
X3.3401Y-3.0421
X3.3401Y-3.1209
X3.3401Y-3.1996
X3.3401Y-3.2783
X3.3401Y-3.3571
X3.3401Y-3.4358
X3.3401Y-3.5146
X3.3401Y-3.5933
X4.2062Y-2.8846
X4.2062Y-2.9634
X4.2062Y-3.0421
X4.2062Y-3.1209
X4.2062Y-3.1996
X4.2062Y-3.2783
X4.2062Y-3.3571
X4.2062Y-3.4358
X4.2062Y-3.5146
X4.2062Y-3.5933
T5
X0.3022Y-0.1927
X0.3022Y-0.3698
T6
X0.7637Y-0.1437
X0.8637Y-0.1437
X0.9637Y-0.1437
X2.2637Y-0.3337
X2.3637Y-0.3337
X2.9376Y-1.4264
X2.9376Y-1.5264
X2.9376Y-1.6264
X2.9376Y-1.7264
X2.9376Y-1.8264
X2.9376Y-1.9264
X2.9376Y-2.0264
X2.9376Y-2.1264
X3.8376Y-1.4264
X3.8376Y-1.5264
X3.8376Y-1.6264
X3.8376Y-1.7264
X3.8376Y-1.8264
X3.8376Y-1.9264
X3.8376Y-2.0264
X3.8376Y-2.1264
X4.16Y-1.55
X4.16Y-1.65
X4.16Y-1.75
X4.16Y-1.85
X4.16Y-1.95
X4.16Y-2.05
X4.16Y-2.15
X4.16Y-2.25
X4.16Y-2.35
X4.16Y-2.45
T7
X0.4002Y-0.1433
X0.4002Y-0.4192
T8
X0.2096Y-1.6036
X0.2096Y-2.084
T9
X0.5512Y-2.444
X0.5512Y-2.6094
X0.7677Y-2.444
X0.7677Y-2.6094
T10
X1.8281Y-3.6875
T2
X4.4717Y-0.4559G85X4.4559Y-0.4559
G05
X4.4717Y-0.6465G85X4.4559Y-0.6465
G05
X4.4717Y-0.9579G85X4.4559Y-0.9579
G05
X4.4717Y-1.1484G85X4.4559Y-1.1484
G05
T3
X4.5917Y-0.4437G85X4.572Y-0.4437
G05
X4.5917Y-0.6587G85X4.572Y-0.6587
G05
X4.5917Y-0.9457G85X4.572Y-0.9457
G05
X4.5917Y-1.1606G85X4.572Y-1.1606
G05
T6
X0.3051Y-3.5544G85X0.3051Y-3.6331
G05
X0.3839Y-3.7788G85X0.4626Y-3.7788
G05
X0.5413Y-3.5544G85X0.5413Y-3.6331
G05
T0
M30
