G04 #@! TF.FileFunction,Paste,Top*
%FSLAX46Y46*%
G04 Gerber Fmt 4.6, Leading zero omitted, Abs format (unit mm)*
G04 Created by KiCad (PCBNEW 4.0.7) date 12/12/18 15:38:43*
%MOMM*%
%LPD*%
G01*
G04 APERTURE LIST*
%ADD10C,0.100000*%
%ADD11R,0.450000X1.500000*%
%ADD12R,0.900000X0.500000*%
%ADD13R,0.750000X0.800000*%
%ADD14R,1.650000X0.400000*%
%ADD15R,2.500000X1.430000*%
%ADD16R,1.600000X1.000000*%
%ADD17R,0.800000X0.750000*%
%ADD18R,1.250000X1.000000*%
%ADD19R,1.000000X1.600000*%
%ADD20R,1.000000X1.250000*%
%ADD21R,1.800000X2.500000*%
%ADD22R,1.200000X0.900000*%
%ADD23R,0.900000X1.200000*%
%ADD24R,4.860000X3.360000*%
%ADD25R,1.400000X1.390000*%
%ADD26R,2.100000X0.750000*%
%ADD27R,1.700000X2.400000*%
%ADD28R,10.000000X3.500000*%
%ADD29R,2.400000X1.700000*%
%ADD30R,6.000000X2.150000*%
%ADD31R,2.200000X1.200000*%
%ADD32R,3.050000X2.750000*%
%ADD33R,0.900000X1.700000*%
%ADD34R,0.500000X0.900000*%
%ADD35R,0.700000X1.300000*%
%ADD36R,1.300000X0.700000*%
%ADD37R,1.200000X2.200000*%
%ADD38R,2.750000X3.050000*%
%ADD39R,3.360000X4.860000*%
%ADD40R,1.390000X1.400000*%
%ADD41R,0.400000X0.650000*%
%ADD42R,0.650000X0.400000*%
%ADD43R,1.000000X2.510000*%
%ADD44R,2.510000X1.000000*%
%ADD45R,3.200000X2.700000*%
%ADD46R,1.300000X0.250000*%
%ADD47R,0.250000X1.300000*%
%ADD48R,1.473200X0.279400*%
%ADD49R,0.279400X1.473200*%
%ADD50R,4.500000X2.000000*%
%ADD51R,1.560000X0.650000*%
%ADD52R,1.550000X0.600000*%
%ADD53R,0.705000X2.040000*%
%ADD54R,0.900000X0.800000*%
%ADD55R,0.600000X2.000000*%
%ADD56R,0.300000X0.800000*%
%ADD57R,0.600000X1.300000*%
G04 APERTURE END LIST*
D10*
D11*
X19812020Y-72073020D03*
X20462020Y-72073020D03*
X19162020Y-72073020D03*
X21112020Y-72073020D03*
X18512020Y-72073020D03*
D12*
X18034020Y-34429020D03*
X18034020Y-35929020D03*
D13*
X13335020Y-29325020D03*
X13335020Y-27825020D03*
D12*
X26035020Y-24650020D03*
X26035020Y-26150020D03*
X26035020Y-27190020D03*
X26035020Y-28690020D03*
D14*
X113500000Y-28050000D03*
X113500000Y-27400000D03*
X113500000Y-26750000D03*
X113500000Y-26100000D03*
X113500000Y-25450000D03*
D15*
X116620000Y-27710000D03*
X116620000Y-25790000D03*
D13*
X17018020Y-93968020D03*
X17018020Y-92468020D03*
D16*
X19304020Y-92226020D03*
X19304020Y-95226020D03*
X37338020Y-91186020D03*
X37338020Y-94186020D03*
X42766000Y-83684000D03*
X42766000Y-86684000D03*
X45814000Y-83684000D03*
X45814000Y-86684000D03*
D17*
X42397000Y-20811816D03*
X43897000Y-20811816D03*
X26785132Y-85588642D03*
X28285132Y-85588642D03*
D16*
X59276000Y-81906000D03*
X59276000Y-84906000D03*
X61816000Y-81906000D03*
X61816000Y-84906000D03*
D18*
X67945020Y-89900020D03*
X67945020Y-87900020D03*
X66040020Y-89900020D03*
X66040020Y-87900020D03*
D17*
X71026421Y-27893237D03*
X69526421Y-27893237D03*
X66155020Y-86360020D03*
X64655020Y-86360020D03*
X46216020Y-19304020D03*
X44716020Y-19304020D03*
D13*
X67056020Y-38874020D03*
X67056020Y-40374020D03*
D19*
X20550020Y-17145020D03*
X17550020Y-17145020D03*
X20438006Y-19685020D03*
X17438006Y-19685020D03*
X20438006Y-21971020D03*
X17438006Y-21971020D03*
D18*
X13335020Y-20590020D03*
X13335020Y-22590020D03*
X15240020Y-20590020D03*
X15240020Y-22590020D03*
D19*
X41124020Y-36322020D03*
X38124020Y-36322020D03*
X41091000Y-40894020D03*
X38091000Y-40894020D03*
X41124020Y-38608020D03*
X38124020Y-38608020D03*
D18*
X36195020Y-39640020D03*
X36195020Y-41640020D03*
X34290020Y-39640020D03*
X34290020Y-41640020D03*
D13*
X68072020Y-35548020D03*
X68072020Y-34048020D03*
D17*
X61804000Y-12032000D03*
X60304000Y-12032000D03*
D13*
X53688000Y-21164000D03*
X53688000Y-19664000D03*
X71214000Y-21672000D03*
X71214000Y-20172000D03*
D17*
X63606000Y-30828000D03*
X65106000Y-30828000D03*
D13*
X55372020Y-28690020D03*
X55372020Y-27190020D03*
D17*
X61066000Y-13556000D03*
X62566000Y-13556000D03*
D18*
X63848000Y-11762000D03*
X63848000Y-9762000D03*
D20*
X65864000Y-32512020D03*
X63864000Y-32512020D03*
D13*
X105359618Y-12408082D03*
X105359618Y-13908082D03*
D17*
X97231618Y-11049020D03*
X98731618Y-11049020D03*
D13*
X103835618Y-12408082D03*
X103835618Y-13908082D03*
D17*
X97243618Y-12446020D03*
X98743618Y-12446020D03*
D13*
X104089618Y-21552082D03*
X104089618Y-23052082D03*
X103835618Y-15214082D03*
X103835618Y-16714082D03*
D17*
X105093618Y-10618082D03*
X103593618Y-10618082D03*
X100799618Y-10618082D03*
X102299618Y-10618082D03*
D13*
X91389618Y-18504082D03*
X91389618Y-20004082D03*
D17*
X96965618Y-24588082D03*
X95465618Y-24588082D03*
X87376020Y-35814020D03*
X85876020Y-35814020D03*
D18*
X22098020Y-67977020D03*
X22098020Y-69977020D03*
D20*
X18574020Y-69977020D03*
X20574020Y-69977020D03*
D16*
X31844000Y-74492000D03*
X31844000Y-71492000D03*
X29050000Y-71492000D03*
X29050000Y-74492000D03*
X45687000Y-62221000D03*
X45687000Y-65221000D03*
X43147000Y-62221000D03*
X43147000Y-65221000D03*
X53561000Y-62221000D03*
X53561000Y-65221000D03*
X51021000Y-62221000D03*
X51021000Y-65221000D03*
X48481000Y-62221000D03*
X48481000Y-65221000D03*
D21*
X33782020Y-81026020D03*
X33782020Y-85026020D03*
D22*
X30480020Y-80392020D03*
X30480020Y-83692020D03*
D23*
X69470020Y-78740020D03*
X72770020Y-78740020D03*
D22*
X69173944Y-40455174D03*
X69173944Y-37155174D03*
D24*
X45687000Y-58133000D03*
D25*
X41705000Y-57148000D03*
X41705000Y-59118000D03*
D26*
X75009600Y-15976600D03*
X78609600Y-15976600D03*
X75009600Y-14706600D03*
X78609600Y-14706600D03*
X75009600Y-13436600D03*
X78609600Y-13436600D03*
X75009600Y-12166600D03*
X78609600Y-12166600D03*
X75009600Y-10896600D03*
X78609600Y-10896600D03*
X75009600Y-9626600D03*
X78609600Y-9626600D03*
X75009600Y-8356600D03*
X78609600Y-8356600D03*
X75009600Y-7086600D03*
X78609600Y-7086600D03*
X75009600Y-5816600D03*
X78609600Y-5816600D03*
X75009600Y-4546600D03*
X78609600Y-4546600D03*
D27*
X59296000Y-79342000D03*
X61796000Y-79342000D03*
D28*
X74295020Y-83745020D03*
X74295020Y-90245020D03*
D29*
X23002006Y-17292020D03*
X23002006Y-19792020D03*
X43655000Y-38374020D03*
X43655000Y-40874020D03*
D30*
X38335000Y-62100000D03*
X38335000Y-65530000D03*
X28335000Y-65530000D03*
X28335000Y-62100000D03*
D31*
X36585020Y-54985020D03*
X36585020Y-50425020D03*
D32*
X28610020Y-51180020D03*
X31960020Y-54230020D03*
X28610020Y-54230020D03*
X31960020Y-51180020D03*
D31*
X43537000Y-76669000D03*
X43537000Y-72109000D03*
D32*
X35562000Y-72864000D03*
X38912000Y-75914000D03*
X35562000Y-75914000D03*
X38912000Y-72864000D03*
D33*
X42840000Y-81374000D03*
X45740000Y-81374000D03*
D34*
X42430020Y-24384020D03*
X43930020Y-24384020D03*
X43897000Y-22589816D03*
X42397000Y-22589816D03*
X31242020Y-85598020D03*
X29742020Y-85598020D03*
X28285132Y-83810642D03*
X26785132Y-83810642D03*
D35*
X68260020Y-92075020D03*
X66360020Y-92075020D03*
D34*
X71027447Y-31750020D03*
X69527447Y-31750020D03*
D12*
X67945020Y-80252020D03*
X67945020Y-78752020D03*
D34*
X69526421Y-29337020D03*
X71026421Y-29337020D03*
X64885020Y-91440020D03*
X63385020Y-91440020D03*
X60534000Y-92583020D03*
X59034000Y-92583020D03*
X60534000Y-90518000D03*
X59034000Y-90518000D03*
D12*
X43180020Y-19292020D03*
X43180020Y-17792020D03*
D34*
X44704020Y-17780020D03*
X46204020Y-17780020D03*
D12*
X110975642Y-35889988D03*
X110975642Y-34389988D03*
X69232344Y-43560774D03*
X69232344Y-42060774D03*
D35*
X11750020Y-18368976D03*
X13650020Y-18368976D03*
X11750020Y-16082976D03*
X13650020Y-16082976D03*
D12*
X10160020Y-17895020D03*
X10160020Y-16395020D03*
D34*
X13450020Y-13970020D03*
X11950020Y-13970020D03*
D35*
X32070020Y-35560020D03*
X33970020Y-35560020D03*
X32070020Y-37465020D03*
X33970020Y-37465020D03*
D12*
X46355020Y-46240020D03*
X46355020Y-47740020D03*
X30480020Y-36945020D03*
X30480020Y-35445020D03*
D34*
X33770020Y-33655020D03*
X32270020Y-33655020D03*
D12*
X66421020Y-34302020D03*
X66421020Y-35802020D03*
D34*
X69227020Y-34290020D03*
X70727020Y-34290020D03*
X111240020Y-30861020D03*
X109740020Y-30861020D03*
D12*
X91389618Y-21298082D03*
X91389618Y-22798082D03*
D34*
X101461020Y-24638020D03*
X99961020Y-24638020D03*
X89928020Y-13462020D03*
X91428020Y-13462020D03*
X83070020Y-35814020D03*
X84570020Y-35814020D03*
D12*
X108421758Y-30855364D03*
X108421758Y-32355364D03*
D34*
X85840020Y-32385020D03*
X84340020Y-32385020D03*
D12*
X52164000Y-22180000D03*
X52164000Y-20680000D03*
D34*
X69702000Y-3142000D03*
X71202000Y-3142000D03*
X69702000Y-4920000D03*
X71202000Y-4920000D03*
X69702000Y-6698000D03*
X71202000Y-6698000D03*
X69702000Y-8476000D03*
X71202000Y-8476000D03*
X84156000Y-8476000D03*
X82656000Y-8476000D03*
X84156000Y-5936000D03*
X82656000Y-5936000D03*
X57510000Y-12032000D03*
X59010000Y-12032000D03*
D36*
X43528000Y-69784020D03*
X43528000Y-67884020D03*
D34*
X45318000Y-69944000D03*
X46818000Y-69944000D03*
X45318000Y-68166000D03*
X46818000Y-68166000D03*
D37*
X62077347Y-51746195D03*
X66637347Y-51746195D03*
D38*
X65882347Y-43771195D03*
X62832347Y-47121195D03*
X62832347Y-43771195D03*
X65882347Y-47121195D03*
D39*
X38956000Y-82644000D03*
D40*
X37971000Y-86626000D03*
X39941000Y-86626000D03*
D41*
X46942000Y-22634000D03*
X48242000Y-22634000D03*
X47592000Y-20734000D03*
X47592000Y-22634000D03*
X48242000Y-20734000D03*
X46942000Y-20734000D03*
X50498000Y-26698000D03*
X51798000Y-26698000D03*
X51148000Y-24798000D03*
X51148000Y-26698000D03*
X51798000Y-24798000D03*
X50498000Y-24798000D03*
X46942000Y-30000000D03*
X48242000Y-30000000D03*
X47592000Y-28100000D03*
X47592000Y-30000000D03*
X48242000Y-28100000D03*
X46942000Y-28100000D03*
D42*
X52860000Y-34018000D03*
X52860000Y-32718000D03*
X50960000Y-33368000D03*
X52860000Y-33368000D03*
X50960000Y-32718000D03*
X50960000Y-34018000D03*
X57178000Y-34018000D03*
X57178000Y-32718000D03*
X55278000Y-33368000D03*
X57178000Y-33368000D03*
X55278000Y-32718000D03*
X55278000Y-34018000D03*
X60894020Y-36718020D03*
X60894020Y-35418020D03*
X58994020Y-36068020D03*
X60894020Y-36068020D03*
X58994020Y-35418020D03*
X58994020Y-36718020D03*
X64704020Y-36718020D03*
X64704020Y-35418020D03*
X62804020Y-36068020D03*
X64704020Y-36068020D03*
X62804020Y-35418020D03*
X62804020Y-36718020D03*
D43*
X81280020Y-17522020D03*
X83820020Y-20832020D03*
X78740020Y-20832020D03*
D44*
X80637020Y-62992020D03*
X83947020Y-60452020D03*
X83947020Y-65532020D03*
D45*
X23048020Y-90618020D03*
X23048020Y-95818020D03*
X33848020Y-95818020D03*
X33848020Y-90618020D03*
D17*
X109867020Y-32385020D03*
X111367020Y-32385020D03*
D13*
X106811330Y-32437344D03*
X106811330Y-30937344D03*
D20*
X114697020Y-21336020D03*
X116697020Y-21336020D03*
X114697020Y-19304020D03*
X116697020Y-19304020D03*
D13*
X76200020Y-33032020D03*
X76200020Y-34532020D03*
D22*
X48184000Y-3904000D03*
X45984000Y-3904000D03*
X53518000Y-3904000D03*
X51318000Y-3904000D03*
X58598000Y-3904000D03*
X56398000Y-3904000D03*
D12*
X94361020Y-47232020D03*
X94361020Y-45732020D03*
X94361020Y-48272020D03*
X94361020Y-49772020D03*
X74676020Y-34278020D03*
X74676020Y-32778020D03*
X102115225Y-35910767D03*
X102115225Y-34410767D03*
X107419642Y-35889988D03*
X107419642Y-34389988D03*
X103766225Y-35910767D03*
X103766225Y-34410767D03*
X109197642Y-34389988D03*
X109197642Y-35889988D03*
X100591225Y-34410767D03*
X100591225Y-35910767D03*
D34*
X47834000Y-5682000D03*
X46334000Y-5682000D03*
X53168000Y-5682000D03*
X51668000Y-5682000D03*
X58248000Y-5682000D03*
X56748000Y-5682000D03*
X26785020Y-12319020D03*
X25285020Y-12319020D03*
X70972000Y-24732000D03*
X72472000Y-24732000D03*
D12*
X88011020Y-16472082D03*
X88011020Y-17972082D03*
D17*
X65036020Y-54102020D03*
X66536020Y-54102020D03*
D13*
X59944020Y-51042020D03*
X59944020Y-49542020D03*
D17*
X89396020Y-73406020D03*
X87896020Y-73406020D03*
D13*
X77089020Y-53582000D03*
X77089020Y-52082000D03*
X94361020Y-53582020D03*
X94361020Y-52082020D03*
D19*
X19328020Y-9271020D03*
X22328020Y-9271020D03*
D14*
X113500000Y-15300000D03*
X113500000Y-14650000D03*
X113500000Y-14000000D03*
X113500000Y-13350000D03*
X113500000Y-12700000D03*
D15*
X116620000Y-14960000D03*
X116620000Y-13040000D03*
D36*
X41656020Y-69784020D03*
X41656020Y-67884020D03*
D46*
X102089618Y-20988082D03*
X102089618Y-20488082D03*
X102089618Y-19988082D03*
X102089618Y-19488082D03*
X102089618Y-18988082D03*
X102089618Y-18488082D03*
X102089618Y-17988082D03*
X102089618Y-17488082D03*
X102089618Y-16988082D03*
X102089618Y-16488082D03*
X102089618Y-15988082D03*
X102089618Y-15488082D03*
D47*
X100489618Y-13888082D03*
X99989618Y-13888082D03*
X99489618Y-13888082D03*
X98989618Y-13888082D03*
X98489618Y-13888082D03*
X97989618Y-13888082D03*
X97489618Y-13888082D03*
X96989618Y-13888082D03*
X96489618Y-13888082D03*
X95989618Y-13888082D03*
X95489618Y-13888082D03*
X94989618Y-13888082D03*
D46*
X93389618Y-15488082D03*
X93389618Y-15988082D03*
X93389618Y-16488082D03*
X93389618Y-16988082D03*
X93389618Y-17488082D03*
X93389618Y-17988082D03*
X93389618Y-18488082D03*
X93389618Y-18988082D03*
X93389618Y-19488082D03*
X93389618Y-19988082D03*
X93389618Y-20488082D03*
X93389618Y-20988082D03*
D47*
X94989618Y-22588082D03*
X95489618Y-22588082D03*
X95989618Y-22588082D03*
X96489618Y-22588082D03*
X96989618Y-22588082D03*
X97489618Y-22588082D03*
X97989618Y-22588082D03*
X98489618Y-22588082D03*
X98989618Y-22588082D03*
X99489618Y-22588082D03*
X99989618Y-22588082D03*
X100489618Y-22588082D03*
D17*
X59602520Y-44005520D03*
X58102520Y-44005520D03*
X60071020Y-52451020D03*
X58571020Y-52451020D03*
X65468520Y-57213520D03*
X63968520Y-57213520D03*
D13*
X75120520Y-60019520D03*
X75120520Y-61519520D03*
D17*
X43751520Y-14732020D03*
X42251520Y-14732020D03*
X65556020Y-10223520D03*
X67056020Y-10223520D03*
D34*
X65544020Y-8636020D03*
X67044020Y-8636020D03*
D48*
X56609000Y-18178800D03*
X56609000Y-18686800D03*
X56609000Y-19194800D03*
X56609000Y-19677400D03*
X56609000Y-20185400D03*
X56609000Y-20693400D03*
X56609000Y-21176000D03*
X56609000Y-21684000D03*
X56609000Y-22192000D03*
X56609000Y-22700000D03*
X56609000Y-23182600D03*
X56609000Y-23690600D03*
X56609000Y-24198600D03*
X56609000Y-24681200D03*
X56609000Y-25189200D03*
X56609000Y-25697200D03*
D49*
X58564800Y-27653000D03*
X59072800Y-27653000D03*
X59580800Y-27653000D03*
X60063400Y-27653000D03*
X60571400Y-27653000D03*
X61079400Y-27653000D03*
X61562000Y-27653000D03*
X62070000Y-27653000D03*
X62578000Y-27653000D03*
X63086000Y-27653000D03*
X63568600Y-27653000D03*
X64076600Y-27653000D03*
X64584600Y-27653000D03*
X65067200Y-27653000D03*
X65575200Y-27653000D03*
X66083200Y-27653000D03*
D48*
X68039000Y-25697200D03*
X68039000Y-25189200D03*
X68039000Y-24681200D03*
X68039000Y-24198600D03*
X68039000Y-23690600D03*
X68039000Y-23182600D03*
X68039000Y-22700000D03*
X68039000Y-22192000D03*
X68039000Y-21684000D03*
X68039000Y-21176000D03*
X68039000Y-20693400D03*
X68039000Y-20185400D03*
X68039000Y-19677400D03*
X68039000Y-19194800D03*
X68039000Y-18686800D03*
X68039000Y-18178800D03*
D49*
X66083200Y-16223000D03*
X65575200Y-16223000D03*
X65067200Y-16223000D03*
X64584600Y-16223000D03*
X64076600Y-16223000D03*
X63568600Y-16223000D03*
X63086000Y-16223000D03*
X62578000Y-16223000D03*
X62070000Y-16223000D03*
X61562000Y-16223000D03*
X61079400Y-16223000D03*
X60571400Y-16223000D03*
X60063400Y-16223000D03*
X59580800Y-16223000D03*
X59072800Y-16223000D03*
X58564800Y-16223000D03*
D50*
X113470020Y-5792082D03*
X104970020Y-5792082D03*
D51*
X67390020Y-84770020D03*
X67390020Y-83820020D03*
X67390020Y-82870020D03*
X64690020Y-82870020D03*
X64690020Y-84770020D03*
X64690020Y-83820020D03*
D52*
X36717520Y-43815020D03*
X36717520Y-45085020D03*
X36717520Y-46355020D03*
X36717520Y-47625020D03*
X42117520Y-47625020D03*
X42117520Y-46355020D03*
X42117520Y-45085020D03*
X42117520Y-43815020D03*
D53*
X40005020Y-47420020D03*
X40005020Y-44020020D03*
X38830020Y-47420020D03*
X38830020Y-44020020D03*
D52*
X15762520Y-24765020D03*
X15762520Y-26035020D03*
X15762520Y-27305020D03*
X15762520Y-28575020D03*
X21162520Y-28575020D03*
X21162520Y-27305020D03*
X21162520Y-26035020D03*
X21162520Y-24765020D03*
D53*
X19050020Y-28370020D03*
X19050020Y-24970020D03*
X17875020Y-28370020D03*
X17875020Y-24970020D03*
D13*
X34290020Y-48375020D03*
X34290020Y-46875020D03*
X34290020Y-43585020D03*
X34290020Y-45085020D03*
X13335020Y-24650020D03*
X13335020Y-26150020D03*
D28*
X6985020Y-28015020D03*
X6985020Y-21515020D03*
X27940020Y-47065020D03*
X27940020Y-40565020D03*
D31*
X15825020Y-35935020D03*
X15825020Y-31375020D03*
D32*
X7850020Y-32130020D03*
X11200020Y-35180020D03*
X7850020Y-35180020D03*
X11200020Y-32130020D03*
D12*
X63500020Y-89650020D03*
X63500020Y-88150020D03*
X39116020Y-53352020D03*
X39116020Y-54852020D03*
X46355020Y-43700020D03*
X46355020Y-45200020D03*
D34*
X58686020Y-76835020D03*
X60186020Y-76835020D03*
D17*
X89966827Y-48739421D03*
X88466827Y-48739421D03*
D13*
X91375827Y-49108421D03*
X91375827Y-47608421D03*
D17*
X103640793Y-31787045D03*
X102140793Y-31787045D03*
D13*
X91375827Y-39734421D03*
X91375827Y-41234421D03*
X84582020Y-42660020D03*
X84582020Y-41160020D03*
D19*
X78629271Y-54634489D03*
X81629271Y-54634489D03*
X78629271Y-57174489D03*
X81629271Y-57174489D03*
D13*
X79075120Y-30725062D03*
X79075120Y-32225062D03*
D43*
X57150020Y-93345020D03*
X59690020Y-96655020D03*
X54610020Y-96655020D03*
D44*
X24380020Y-34290020D03*
X27690020Y-31750020D03*
X27690020Y-36830020D03*
X16895020Y-8890020D03*
X13585020Y-11430020D03*
X13585020Y-6350020D03*
X59567020Y-60452020D03*
X56257020Y-62992020D03*
X56257020Y-57912020D03*
X78732020Y-50038020D03*
X82042020Y-47498020D03*
X82042020Y-52578020D03*
D54*
X89551020Y-15052020D03*
X89551020Y-16952020D03*
X91551020Y-16002020D03*
X26781020Y-10729020D03*
X26781020Y-8829020D03*
X24781020Y-9779020D03*
X89851827Y-54449421D03*
X89851827Y-52549421D03*
X87851827Y-53499421D03*
D12*
X84771827Y-49108421D03*
X84771827Y-47608421D03*
D34*
X85926827Y-48612421D03*
X87426827Y-48612421D03*
X88466827Y-50644421D03*
X89966827Y-50644421D03*
D12*
X96960053Y-28339373D03*
X96960053Y-29839373D03*
X98484053Y-29839373D03*
X98484053Y-28339373D03*
X91375827Y-46568421D03*
X91375827Y-45068421D03*
X98552020Y-32970995D03*
X98552020Y-31470995D03*
X97409020Y-31470995D03*
X97409020Y-32970995D03*
X91375827Y-42528421D03*
X91375827Y-44028421D03*
X88581827Y-39202421D03*
X88581827Y-37702421D03*
X102255793Y-30632045D03*
X102255793Y-29132045D03*
D34*
X85799827Y-38706421D03*
X87299827Y-38706421D03*
D12*
X80345120Y-34880062D03*
X80345120Y-33380062D03*
X80645020Y-32340062D03*
X80645020Y-30840062D03*
D55*
X86041827Y-46019421D03*
X87311827Y-46019421D03*
X89851827Y-46019421D03*
X89851827Y-41119421D03*
X88581827Y-41119421D03*
X87311827Y-41119421D03*
X86041827Y-41119421D03*
X88581827Y-46019421D03*
D56*
X101100793Y-28332045D03*
X100600793Y-28332045D03*
X100100793Y-28332045D03*
X99600793Y-28332045D03*
X99600793Y-31432045D03*
X100100793Y-31432045D03*
X100600793Y-31432045D03*
X101100793Y-31432045D03*
D57*
X86295827Y-52456421D03*
X85345827Y-50356421D03*
X87245827Y-50356421D03*
M02*
